<?xml version="1.0" standalone="no"?> <!DOCTYPE svg PUBLIC "-//W3C//DTD SVG 1.0//EN" "http://www.w3.org/TR/2001/REC-SVG-20010904/DTD/svg10.dtd" > <svg xmlns="http://www.w3.org/2000/svg" width="100%" height="100%">
<defs >
<font id="something" horiz-adv-x="820" ><font-face
    font-family="Myriad Pro Light"
    units-per-em="2048"
    panose-1="2 11 4 3 3 4 3 2 2 4"
    ascent="1536"
    descent="-512"
    alphabetic="0" />
<missing-glyph horiz-adv-x="1024" d="M0 0V1434H1024V0H0ZM512 809L860 1331H164L512 809ZM573 717L922 195V1239L573 717ZM164 102H860L512 625L164 102ZM102 1239V195L451 717L102 1239Z" />
<glyph unicode=" " glyph-name="space" horiz-adv-x="448" />
<glyph unicode="!" glyph-name="exclam" horiz-adv-x="423" d="M252 362H170L152 1380H270L252 362ZM211 -23H209Q175 -23 152 3T131 68Q131 108 154 134T213 160T272 134T295 68Q295 30 272 4T211 -23Z" />
<glyph unicode="&quot;" glyph-name="quotedbl" horiz-adv-x="616" d="M123 1417H242L215 965H150L123 1417ZM375 1417H494L467 965H401L375 1417Z" />
<glyph unicode="#" glyph-name="numbersign" horiz-adv-x="952" d="M342 502H569L612 840H383L342 502ZM279 0H193L246 424H76V502H256L299 840H119V918H309L362 1331H444L393 918H623L676 1331H760L707 918H877V840H696L655 502H836V424H645L592 0H506L559 424H332L279
0Z" />
<glyph unicode="$" glyph-name="dollar" horiz-adv-x="999" d="M522 -174H438V39Q357 39 278 64T147 131L188 207Q302 119 455 119Q576 119 651 189T727 365Q727 461 667 527T487 647Q324 718 246 795T168 991Q168 1113 247 1197T453 1300V1513H537V1303Q679 1297
782 1229L739 1153Q630 1223 502 1223Q383 1223 322 1158T260 1008Q260 915 317 859T518 739Q671 669 746 585T821 373Q821 252 742 158T522 41V-174Z" />
<glyph unicode="%" glyph-name="percent" horiz-adv-x="1509" d="M356 1354H358Q482 1354 557 1253T633 956Q633 754 552 647T346 539Q229 539 149 640T66 938Q66 1140 151 1247T356 1354ZM350 1284H348Q258 1284 206 1188T154 946Q149 802 202 705T348 608Q447
608 497 703T547 950Q547 1020 536 1078T503 1184T441 1257T350 1284ZM397 -27H315L1110 1358H1192L397 -27ZM1167 803H1169Q1293 803 1368 702T1444 406Q1444 203 1363 96T1157 -12Q1040 -12 960 89T877 387Q877 589 962 696T1167 803ZM1161 733H1159Q1069 733
1017 637T965 395Q960 252 1014 155T1159 57Q1258 57 1308 152T1358 399Q1358 494 1340 566T1276 686T1161 733Z" />
<glyph unicode="&amp;" glyph-name="ampersand" horiz-adv-x="1146" d="M1147 0H1024L872 158Q686 -23 453 -23Q285 -23 174 88T63 362Q63 611 338 770V776Q217 939 217 1077Q217 1209 301 1306T528 1403Q642 1403 717 1328T793 1128Q793 1016 719 927T471 752V745L872
285Q969 430 1014 729H1108Q1049 380 928 227L1147 0ZM475 57H477Q579 57 666 100T817 215L383 711Q162 575 162 375Q162 237 251 147T475 57ZM514 1325H512Q418 1325 364 1256T309 1087Q309 1009 338 946T422 809Q560 881 630 952T700 1120Q700 1203 653 1264T514
1325Z" />
<glyph unicode="&apos;" glyph-name="quotesingle" horiz-adv-x="364" d="M123 1417H242L215 965H150L123 1417Z" />
<glyph unicode="(" glyph-name="parenleft" horiz-adv-x="542" d="M428 1427H520Q382 1257 307 1052T231 582Q231 324 307 125T520 -252H428Q368 -179 322 -102T231 78T163 310T139 584T163 858T231 1092T321 1274T428 1427Z" />
<glyph unicode=")" glyph-name="parenright" horiz-adv-x="542" d="M115 -252H23Q159 -78 235 125T311 590T236 1051T23 1427H115Q406 1069 406 588Q406 443 382 314T314 82T222 -99T115 -252Z" />
<glyph unicode="*" glyph-name="asterisk" horiz-adv-x="800" d="M532 1403L621 1354L440 1102V1098L739 1122V1026L442 1053V1047L623 805L528 752L399 1020H395L254 750L174 803L354 1049V1055L61 1026V1122L350 1100V1104L174 1350L264 1401L399 1135H403L532 1403Z" />
<glyph unicode="+" glyph-name="plus" horiz-adv-x="1220" d="M567 1090H655V588H1139V506H655V0H567V506H82V588H567V1090Z" />
<glyph unicode="," glyph-name="comma" horiz-adv-x="356" d="M131 -248L53 -258Q78 -193 112 -56T160 176L289 197Q263 89 211 -55T131 -248Z" />
<glyph unicode="-" glyph-name="hyphen" horiz-adv-x="610" d="M61 606H549V520H61V606Z" />
<glyph unicode="." glyph-name="period" horiz-adv-x="356" d="M193 -23H190Q155 -23 132 4T111 70Q111 110 134 136T195 162Q231 162 253 136T276 70Q276 31 253 4T193 -23Z" />
<glyph unicode="/" glyph-name="slash" horiz-adv-x="718" d="M72 -82H-25L629 1403H729L72 -82Z" />
<glyph unicode="0" glyph-name="zero" horiz-adv-x="999" d="M514 1354Q700 1354 811 1186T922 684Q922 335 806 156T483 -23Q403 -23 333 17T206 137T114 351T78 659Q78 801 102 917T167 1114T264 1249T383 1329T514 1354ZM500 1274Q359 1274 269 1110T178 657Q178
381 265 220T498 59Q606 59 679 138T785 352T819 674Q819 807 801 915T744 1104T644 1229T500 1274Z" />
<glyph unicode="1" glyph-name="one" horiz-adv-x="999" d="M483 0V1233H479L262 1104L238 1182L489 1331H580V0H483Z" />
<glyph unicode="2" glyph-name="two" horiz-adv-x="999" d="M887 0H94V61L217 188Q339 308 416 388T563 551T671 699T729 831T750 967Q750 1028 736 1078T691 1173T601 1243T461 1268Q314 1268 178 1153L139 1221Q288 1354 479 1354Q578 1354 653 1320T769 1229T830
1112T850 987Q850 910 826 833T764 688T653 533T510 371T326 184L231 88V84H887V0Z" />
<glyph unicode="3" glyph-name="three" horiz-adv-x="999" d="M92 68L131 145Q179 114 256 88T418 61Q496 61 557 82T654 135T715 209T747 291T756 369Q755 449 721 510T631 608T508 663T365 682H279V762H367Q424 762 481 778T589 826T670 911T702 1032Q702 1134
639 1202T444 1270Q309 1270 186 1178L147 1249Q200 1292 285 1323T457 1354Q547 1354 616 1328T724 1256T783 1157T803 1044Q803 941 739 857T555 729V725Q685 699 770 606T856 373Q856 296 829 227T748 101T606 11T406 -23Q311 -23 226 4T92 68Z" />
<glyph unicode="4" glyph-name="four" horiz-adv-x="999" d="M750 0H655V391H20V457L670 1331H750V473H954V391H750V0ZM137 473H655V1012Q655 1113 662 1196L655 1198Q615 1125 553 1030L137 477V473Z" />
<glyph unicode="5" glyph-name="five" horiz-adv-x="999" d="M831 1331V1245H332L266 817Q318 827 387 827Q524 827 635 770Q722 727 782 637T842 424Q842 228 713 103T395 -23Q299 -23 216 2T86 63L125 141Q171 109 244 85T401 61Q547 61 646 159T745 406Q743
558 647 650T358 743Q275 743 170 729L256 1331H831Z" />
<glyph unicode="6" glyph-name="six" horiz-adv-x="999" d="M799 1354L801 1264Q721 1264 655 1251Q517 1222 411 1136T248 933T178 682H182Q233 762 322 815T526 868Q708 868 816 749T924 440Q924 352 897 270T818 122T687 17T508 -23Q320 -23 198 125T76 537Q76
728 135 883T293 1141Q441 1295 666 1339Q736 1354 799 1354ZM514 59H516Q652 59 737 162T823 432Q823 602 735 693T502 784Q408 784 325 732T197 592Q174 551 174 514Q174 308 263 184T514 59Z" />
<glyph unicode="7" glyph-name="seven" horiz-adv-x="999" d="M127 1331H905V1260L305 0H209L803 1245V1249H127V1331Z" />
<glyph unicode="8" glyph-name="eight" horiz-adv-x="999" d="M362 702L360 711Q246 760 191 840T135 1012Q135 1161 244 1257T516 1354Q677 1354 772 1261T868 1036Q868 941 814 857T635 715V707Q773 652 844 562T915 354Q915 245 857 158T705 24T498 -23Q320
-23 202 78T84 332Q84 459 156 552T362 702ZM498 59Q642 59 729 137T817 340Q817 474 732 549T473 674Q334 632 259 548T184 352Q178 230 264 145T498 59ZM506 1274Q379 1274 305 1202T231 1026Q231 912 306 845T526 741Q770 828 770 1028Q770 1075 755 1117T710
1195T627 1252T506 1274Z" />
<glyph unicode="9" glyph-name="nine" horiz-adv-x="999" d="M207 -23V68Q255 61 356 78Q526 106 647 233Q793 397 825 655L821 653Q687 481 477 481Q358 481 270 539T139 689T96 887Q96 1009 148 1115T299 1287T524 1354Q701 1354 812 1208T924 799Q924 588 861
429T696 168Q634 103 550 57T385 -6Q267 -26 207 -23ZM506 1272H504Q368 1272 282 1164T195 891Q195 744 278 655T494 565Q597 565 681 613T811 739Q827 769 827 797Q827 1015 746 1143T506 1272Z" />
<glyph unicode=":" glyph-name="colon" horiz-adv-x="356" d="M193 739H190Q155 739 132 765T111 829Q111 870 134 897T195 924Q231 924 253 897T276 829Q276 791 253 765T193 739ZM193 -23H190Q155 -23 132 4T111 70Q111 110 134 136T195 162Q231 162 253 136T276
70Q276 31 253 4T193 -23Z" />
<glyph unicode=";" glyph-name="semicolon" horiz-adv-x="356" d="M131 -248L53 -258Q78 -193 112 -56T160 176L289 197Q263 89 211 -55T131 -248ZM211 739H209Q174 739 151 765T129 829Q129 870 152 897T213 924Q249 924 272 897T295 829Q295 791 272 765T211 739Z" />
<glyph unicode="&lt;" glyph-name="less" horiz-adv-x="1220" d="M145 510V582L1075 1090V995L240 547V543L1075 96V0L145 510Z" />
<glyph unicode="=" glyph-name="equal" horiz-adv-x="1220" d="M1139 707H82V788H1139V707ZM1139 317H82V399H1139V317Z" />
<glyph unicode="&gt;" glyph-name="greater" horiz-adv-x="1220" d="M1075 582V510L145 0V96L981 543V547L145 995V1090L1075 582Z" />
<glyph unicode="?" glyph-name="question" horiz-adv-x="780" d="M385 358H295L287 412Q260 593 418 786Q503 887 539 959T575 1108Q575 1204 518 1260T352 1317Q224 1317 143 1253L106 1323Q155 1361 229 1383T371 1405Q448 1405 509 1381T607 1315T663 1222T682
1114Q682 1025 639 944T504 754Q430 662 402 584T381 420L385 358ZM336 -23H334Q299 -23 276 4T254 70Q254 110 277 136T338 162Q376 162 398 137T420 70Q420 31 397 4T336 -23Z" />
<glyph unicode="@" glyph-name="at" horiz-adv-x="1468" d="M926 528L977 782Q919 803 850 803Q748 803 660 746T522 591T471 383Q471 306 512 259T629 211Q696 211 762 263T870 388T926 528ZM1016 -57L1044 -129Q895 -215 688 -215Q562 -215 451 -170T257 -43T126
160T78 424Q78 551 110 669T207 885T359 1057T565 1172T815 1214Q989 1214 1121 1137T1324 927T1395 623Q1395 509 1365 415T1286 261T1175 168T1047 135Q985 135 942 184T909 328H901Q842 229 768 182T596 135Q509 135 445 204T381 385Q381 513 444 626T621 809T868
879Q979 879 1073 840L999 473Q946 213 1067 213Q1158 210 1230 321T1303 604Q1303 847 1170 993T801 1139Q672 1139 557 1089T356 948T220 723T170 430Q170 178 319 21T698 -137Q887 -137 1016 -57Z" />
<glyph unicode="A" glyph-name="A" horiz-adv-x="1198" d="M879 483H332L162 0H61L561 1380H655L1153 0H1053L879 483ZM362 565H848L680 1026Q651 1111 608 1270H604Q582 1181 532 1030L362 565Z" />
<glyph unicode="B" glyph-name="B" horiz-adv-x="1034" d="M168 2V1362Q290 1391 444 1391Q691 1391 807 1278Q891 1191 891 1051Q891 947 825 863T653 741V737Q701 726 748 702T841 637T915 531T944 385Q944 226 842 121Q717 -10 408 -10Q274 -10 168 2ZM264
1294V774H467Q614 774 702 850T791 1044Q791 1309 440 1309Q316 1309 264 1294ZM264 694V82Q315 72 434 72Q500 72 558 81T669 114T761 171T821 260T844 383Q844 462 812 523T723 620T594 675T438 694H264Z" />
<glyph unicode="C" glyph-name="C" horiz-adv-x="1167" d="M1073 127L1102 49Q1044 18 947 -2T731 -23Q629 -23 535 3T357 85T212 222T114 421T78 682Q78 888 161 1050T404 1308T776 1403Q982 1403 1098 1341L1065 1260Q944 1319 778 1319Q499 1319 339 1149T178
680Q178 396 333 230T762 63Q945 63 1073 127Z" />
<glyph unicode="D" glyph-name="D" horiz-adv-x="1325" d="M168 2V1362Q357 1391 520 1391Q899 1391 1077 1202Q1249 1024 1249 725Q1249 398 1069 201Q976 100 823 45T473 -10Q286 -10 168 2ZM264 1288V82Q336 72 487 72Q813 72 981 242T1149 719Q1150 852 1113
959T999 1145T799 1266T514 1309Q390 1309 264 1288Z" />
<glyph unicode="E" glyph-name="E" horiz-adv-x="954" d="M817 768V686H264V82H883V0H168V1380H850V1298H264V768H817Z" />
<glyph unicode="F" glyph-name="F" horiz-adv-x="946" d="M168 0V1380H850V1298H264V750H801V668H264V0H168Z" />
<glyph unicode="G" glyph-name="G" horiz-adv-x="1277" d="M1157 684V61Q970 -14 756 -14Q455 -14 266 168Q179 254 129 388T78 686Q78 802 107 907T196 1101T341 1255T543 1358T797 1395Q897 1395 982 1376T1118 1333L1087 1251Q965 1311 793 1311Q509 1311 344
1142T178 690Q178 400 337 235T772 70Q972 70 1061 117V604H739V684H1157Z" />
<glyph unicode="H" glyph-name="H" horiz-adv-x="1290" d="M168 1380H264V774H1026V1380H1122V0H1026V690H264V0H168V1380Z" />
<glyph unicode="I" glyph-name="I" horiz-adv-x="432" d="M168 1380H264V0H168V1380Z" />
<glyph unicode="J" glyph-name="J" horiz-adv-x="706" d="M457 449V1380H555V428Q555 -23 182 -23Q86 -23 14 10L35 90Q108 61 182 61Q251 61 299 79T385 140T439 259T457 449Z" />
<glyph unicode="K" glyph-name="K" horiz-adv-x="1019" d="M168 0V1380H264V682H272Q308 731 389 825L879 1380H999L473 795L1049 0H930L406 727L264 571V0H168Z" />
<glyph unicode="L" glyph-name="L" horiz-adv-x="917" d="M168 0V1380H264V82H881V0H168Z" />
<glyph unicode="M" glyph-name="M" horiz-adv-x="1593" d="M1372 0L1331 655Q1300 1114 1303 1266H1296Q1223 1041 1112 752L821 0H754L481 733Q348 1101 303 1266H297Q293 978 268 635L225 0H129L229 1380H342L639 586Q751 272 791 137H795Q832 268 950 584L1257
1380H1374L1468 0H1372Z" />
<glyph unicode="N" glyph-name="N" horiz-adv-x="1306" d="M262 0H168V1380H260L799 565Q979 283 1057 131L1061 133Q1044 359 1044 694V1380H1141V0H1049L522 803Q320 1120 254 1249L250 1247Q262 1043 262 698V0Z" />
<glyph unicode="O" glyph-name="O" horiz-adv-x="1374" d="M696 1403Q870 1403 1005 1319T1218 1075T1296 705Q1296 528 1245 387T1107 157T911 23T680 -23Q553 -23 443 26T252 165T125 386T78 676Q78 842 126 980T257 1210T453 1352T696 1403ZM690 1321Q588 1321
503 1285T358 1188T258 1045T198 870T178 680Q178 562 212 452T308 253T469 112T686 59Q806 59 903 110T1064 250T1162 454T1196 698Q1196 787 1177 874T1117 1043T1018 1185T875 1284T690 1321Z" />
<glyph unicode="P" glyph-name="P" horiz-adv-x="1028" d="M168 0V1364Q303 1391 463 1391Q712 1391 827 1274Q934 1170 934 1004Q934 836 838 729Q773 653 667 613T432 573Q320 573 264 590V0H168ZM264 1292V676Q338 655 440 655Q626 655 731 743T836 995Q836
1152 734 1230T459 1309Q343 1309 264 1292Z" />
<glyph unicode="Q" glyph-name="Q" horiz-adv-x="1374" d="M1311 -90L1280 -180Q1086 -135 764 -43Q706 -23 686 -23Q558 -20 448 28T256 163T126 382T78 676Q78 844 126 982T257 1212T454 1353T698 1403Q870 1403 1005 1318T1218 1074T1296 705Q1296 428 1180
252T862 12V6Q1170 -67 1311 -90ZM682 59H684Q842 59 960 148T1137 380T1196 698Q1196 787 1177 874T1118 1043T1019 1185T877 1284T694 1321Q591 1321 505 1285T360 1187T259 1042T198 867T178 676Q178 558 212 448T308 251T468 112T682 59Z" />
<glyph unicode="R" glyph-name="R" horiz-adv-x="1034" d="M168 0V1362Q303 1391 465 1391Q717 1391 838 1276Q882 1233 908 1168T934 1030Q934 896 862 805T664 670V666Q825 615 877 373Q944 66 979 0H877Q847 59 788 336Q758 487 687 557T479 633H264V0H168ZM264
1292V713H483Q643 713 739 795T836 1014Q836 1166 736 1238T463 1311Q347 1311 264 1292Z" />
<glyph unicode="S" glyph-name="S" horiz-adv-x="950" d="M86 72L123 154Q257 61 426 61Q578 61 668 140T758 348Q758 464 694 538T479 672Q304 733 214 824T123 1053Q123 1205 236 1304T524 1403Q613 1403 685 1384T799 1337L762 1255Q727 1280 663 1300T518
1321T378 1298T284 1236T235 1155T219 1069Q219 957 285 889T506 760Q595 724 656 687T764 603T832 495T854 358Q854 282 827 214T747 93T609 8T416 -23Q327 -23 234 4T86 72Z" />
<glyph unicode="T" glyph-name="T" horiz-adv-x="952" d="M428 0V1298H-23V1380H977V1298H526V0H428Z" />
<glyph unicode="U" glyph-name="U" horiz-adv-x="1282" d="M168 1380H264V547Q264 420 292 325T372 173T488 89T633 61Q811 61 914 182T1018 547V1380H1116V557Q1116 433 1090 334T1019 169T911 59T778 -4T627 -23Q552 -23 487 -5T362 54T260 159T193 320T168 541V1380Z" />
<glyph unicode="V" glyph-name="V" horiz-adv-x="1042" d="M551 0H459L0 1380H102L346 641Q457 312 508 113H514Q562 294 690 641L958 1380H1063L551 0Z" />
<glyph unicode="W" glyph-name="W" horiz-adv-x="1679" d="M487 0H393L31 1380H129L330 602Q409 303 444 129H451Q472 252 575 602L803 1380H897L1102 608Q1107 587 1123 526T1145 438T1165 360T1185 276T1199 204T1212 129H1219Q1249 281 1343 604L1571 1380H1671L1257
0H1163L954 795Q873 1105 848 1264H844Q814 1094 721 797L487 0Z" />
<glyph unicode="X" glyph-name="X" horiz-adv-x="1118" d="M1055 0H942L733 340Q614 518 553 627H547Q484 509 373 338L176 0H61L500 700L80 1380H193L414 1012L557 776H561Q604 854 707 1012L938 1380H1053L610 709L1055 0Z" />
<glyph unicode="Y" glyph-name="Y" horiz-adv-x="1030" d="M567 0H471V598L31 1380H141L369 969Q388 932 421 872T478 764T524 672H528Q561 744 688 971L924 1380H1034L567 596V0Z" />
<glyph unicode="Z" glyph-name="Z" horiz-adv-x="1103" d="M70 0V66L901 1292V1298H137V1380H1026V1315L193 88V82H1036V0H70Z" />
<glyph unicode="[" glyph-name="bracketleft" horiz-adv-x="542" d="M532 -229H184V1405H532V1329H272V-154H532V-229Z" />
<glyph unicode="\" glyph-name="backslash" horiz-adv-x="712" d="M735 -82H639L-10 1403H88L735 -82Z" />
<glyph unicode="]" glyph-name="bracketright" horiz-adv-x="542" d="M10 1405H360V-229H10V-154H270V1329H10V1405Z" />
<glyph unicode="^" glyph-name="asciicircum" horiz-adv-x="1220" d="M1075 401H981L612 1237H608L242 401H147L565 1331H655L1075 401Z" />
<glyph unicode="_" glyph-name="underscore" horiz-adv-x="1024" d="M0 -154H1024V-256H0V-154Z" />
<glyph unicode="`" glyph-name="grave" horiz-adv-x="614" d="M68 1409H211L393 1126H317L68 1409Z" />
<glyph unicode="a" glyph-name="a" horiz-adv-x="929" d="M776 616V233Q776 104 791 0H702L688 141H682Q641 75 559 26T369 -23Q231 -23 156 58T80 248Q80 421 233 516T680 608V633Q680 670 677 702T658 777T618 851T544 903T428 924Q284 924 182 850L152 922Q277
1006 438 1006Q776 1006 776 616ZM680 315V526Q630 527 585 526T488 518T394 500T311 468T243 421T199 353T182 264Q182 164 239 112T379 59Q493 59 566 116T670 256Q680 289 680 315Z" />
<glyph unicode="b" glyph-name="b" horiz-adv-x="1130" d="M166 229V1454H262V801H266Q373 1006 627 1006Q812 1006 929 866T1047 502Q1047 376 1009 274T908 108T768 11T608 -23Q370 -23 256 178H252L246 0H158Q166 140 166 229ZM262 575V379Q262 357 270 307Q302
195 390 127T594 59Q759 59 853 181T948 500Q948 615 909 710T790 866T602 926Q493 926 401 854T274 662Q262 612 262 575Z" />
<glyph unicode="c" glyph-name="c" horiz-adv-x="913" d="M817 119L844 43Q721 -23 557 -23Q344 -23 214 117T84 481Q84 714 227 860T592 1006Q675 1006 745 987T850 944L815 864Q710 922 582 922Q486 922 409 887T282 792T208 653T182 487Q182 297 290 180T571
63Q688 63 817 119Z" />
<glyph unicode="d" glyph-name="d" horiz-adv-x="1114" d="M852 1454H948V229Q948 140 956 0H868L862 186H858Q816 97 726 37T508 -23Q325 -23 205 116T84 473Q83 712 211 859T526 1006Q644 1006 727 956T848 834H852V1454ZM852 397V594Q852 639 842 684Q814 787
731 856T532 926Q373 926 278 802T182 483Q182 398 203 323T266 189T374 94T526 59Q635 59 723 127T842 315Q852 360 852 397Z" />
<glyph unicode="e" glyph-name="e" horiz-adv-x="993" d="M905 502H180Q180 387 209 301T291 164T410 88T555 63Q713 63 827 119L852 41Q739 -23 543 -23Q333 -23 209 115T84 473Q84 715 208 860T526 1006Q618 1006 689 973T800 891T866 778T900 662T909 561Q909
518 905 502ZM186 580H807Q808 625 801 669T773 760T721 844T636 903T514 926Q451 926 398 905T309 848T247 767T206 675T186 580Z" />
<glyph unicode="f" glyph-name="f" horiz-adv-x="536" d="M268 0H172V905H31V983H172V1036Q172 1282 281 1391Q367 1477 498 1477Q585 1477 645 1444L614 1366Q560 1395 489 1395Q436 1395 397 1376T333 1324T294 1245T274 1148T268 1038V983H532V905H268V0Z" />
<glyph unicode="g" glyph-name="g" horiz-adv-x="1114" d="M948 729V143Q948 -37 915 -143T815 -311Q752 -371 663 -399T481 -428Q394 -428 309 -406T170 -344L205 -266Q333 -348 496 -348Q661 -348 756 -253T852 51V190H848Q806 108 718 54T506 0Q385 0 288 64T137
239T84 483Q84 607 122 708T224 873T365 971T526 1006Q595 1006 653 989T750 942T815 882T858 817H862L866 983H956Q948 835 948 729ZM852 408V606Q852 658 840 700Q807 797 728 861T535 926Q378 926 280 807T182 494Q182 380 220 289T338 140T530 82Q631 82 714
140T834 303Q852 352 852 408Z" />
<glyph unicode="h" glyph-name="h" horiz-adv-x="1097" d="M166 0V1454H262V807H266Q314 899 401 950Q491 1006 600 1006Q623 1006 648 1003T707 988T773 959T835 909T889 835T926 731T940 594V0H844V582Q844 637 836 685T807 778T756 853T679 903T573 922Q472
922 390 858T276 698Q262 659 262 602V0H166Z" />
<glyph unicode="i" glyph-name="i" horiz-adv-x="428" d="M262 0H166V983H262V0ZM215 1350Q249 1350 271 1325T293 1264Q293 1229 271 1205T211 1180Q178 1180 157 1204T135 1264Q135 1298 158 1324T215 1350Z" />
<glyph unicode="j" glyph-name="j" horiz-adv-x="438" d="M-88 -428L-100 -348Q40 -341 104 -266Q145 -218 161 -136T178 133V983H274V68Q274 -76 253 -166T170 -322Q123 -374 47 -401T-88 -428ZM229 1350Q262 1350 283 1325T305 1264Q305 1230 283 1205T223 1180Q190
1180 169 1205T147 1264Q147 1299 170 1324T229 1350Z" />
<glyph unicode="k" glyph-name="k" horiz-adv-x="866" d="M262 1454V510H266Q298 550 362 618L709 983H827L430 575L883 0H764L362 516L262 410V0H166V1454H262Z" />
<glyph unicode="l" glyph-name="l" horiz-adv-x="434" d="M166 0V1454H262V0H166Z" />
<glyph unicode="m" glyph-name="m" horiz-adv-x="1677" d="M166 0V748Q166 827 158 983H248L256 809H260Q368 1006 578 1006Q678 1006 753 947T860 791H864Q904 873 965 924Q1062 1006 1200 1006Q1235 1006 1271 998T1353 963T1435 891T1495 767T1520 580V0H1423V569Q1423
738 1358 830T1167 922Q1079 922 1009 866T909 727Q891 675 891 631V0H795V614Q795 752 731 837T551 922Q456 922 382 857T279 700Q262 660 262 606V0H166Z" />
<glyph unicode="n" glyph-name="n" horiz-adv-x="1097" d="M166 0V748Q166 827 158 983H248L256 805H260Q302 892 392 949T598 1006Q633 1006 670 999T758 965T847 896T913 774T940 590V0H844V582Q844 652 830 711T784 818T699 894T571 922Q469 922 388 858T276
696Q262 654 262 608V0H166Z" />
<glyph unicode="o" glyph-name="o" horiz-adv-x="1089" d="M549 1006Q753 1006 879 867T1006 502Q1006 395 978 306T904 158T796 56T669 -4T535 -23Q341 -23 213 117T84 483Q84 606 122 706T225 871T373 971T549 1006ZM547 926Q474 926 413 901T310 833T239 734T196
616T182 489Q182 306 286 183T541 59Q695 59 801 183T907 496Q907 552 895 610T854 725T786 826T683 898T547 926Z" />
<glyph unicode="p" glyph-name="p" horiz-adv-x="1130" d="M166 -406V670Q166 799 158 983H250L258 797H262Q374 1006 625 1006Q813 1006 930 866T1047 508Q1047 380 1011 277T913 110T771 11T600 -23Q493 -23 405 24T266 160H262V-406H166ZM262 580V387Q262 359
270 309Q301 196 390 128T594 59Q760 59 854 181T948 504Q948 617 909 711T790 866T602 926Q492 926 400 854T276 664Q262 601 262 580Z" />
<glyph unicode="q" glyph-name="q" horiz-adv-x="1110" d="M852 -406V170H846Q808 88 720 33T508 -23Q325 -23 205 116T84 473Q84 583 111 674T184 825T288 927T410 987T537 1006Q656 1006 738 952T858 815H862L866 983H956Q948 835 948 729V-406H852ZM852 385V596Q852
638 842 686Q814 788 732 857T535 926Q375 926 279 804T182 485Q182 400 202 326T263 191T371 95T526 59Q628 59 711 119T834 289Q852 339 852 385Z" />
<glyph unicode="r" glyph-name="r" horiz-adv-x="604" d="M166 0V688Q166 795 158 983H248L252 784H256Q290 881 364 943T537 1006Q555 1006 575 1001V907Q561 911 528 911Q429 911 360 835T270 637Q262 579 262 543V0H166Z" />
<glyph unicode="s" glyph-name="s" horiz-adv-x="763" d="M90 47L125 129Q234 61 346 61T516 113T575 248Q575 327 527 377T369 471Q119 565 119 739Q119 851 201 928T422 1006Q549 1006 639 944L600 864Q521 924 406 924Q316 924 266 875T215 754Q215 681 262
639T418 551Q546 501 609 434T672 260Q672 133 581 55T340 -23Q203 -23 90 47Z" />
<glyph unicode="t" glyph-name="t" horiz-adv-x="632" d="M203 1163L301 1200V983H582V905H301V266Q301 61 444 61Q504 61 557 78L569 2Q512 -23 432 -23Q321 -23 264 49Q203 118 203 283V905H37V983H203V1163Z" />
<glyph unicode="u" glyph-name="u" horiz-adv-x="1087" d="M922 983V240Q922 152 930 0H840L834 174H829Q786 94 699 36T492 -23Q449 -23 409 -14T321 23T240 97T182 224T158 412V983H254V430Q254 63 516 63Q616 63 693 122T805 262Q825 324 825 371V983H922Z" />
<glyph unicode="v" glyph-name="v" horiz-adv-x="925" d="M31 983H135L365 373Q426 217 461 111H465Q493 189 565 373L799 983H901L502 0H416L31 983Z" />
<glyph unicode="w" glyph-name="w" horiz-adv-x="1478" d="M47 983H147L311 424Q373 220 395 117H401Q441 263 500 424L696 983H788L977 428Q1036 248 1073 117H1077Q1099 215 1165 426L1341 983H1442L1114 0H1028L844 547Q779 727 741 883H737Q704 743 631 545L434
0H348L47 983Z" />
<glyph unicode="x" glyph-name="x" horiz-adv-x="878" d="M43 983H154L322 743Q368 682 434 575H438Q483 645 553 743L721 983H829L487 504L842 0H731L555 250Q513 310 432 434H428Q385 360 305 250L133 0H23L383 502L43 983Z" />
<glyph unicode="y" glyph-name="y" horiz-adv-x="901" d="M23 983H127L385 340Q426 235 457 129H461Q505 265 537 346L776 983H881L586 250Q488 -2 417 -136T254 -350Q172 -419 82 -453L51 -371Q150 -333 223 -262Q326 -159 387 -14Q399 19 399 29Q399 40 387 72L23 983Z" />
<glyph unicode="z" glyph-name="z" horiz-adv-x="825" d="M33 0V59L561 758L674 899V903H76V983H793L791 918L262 221L158 84V80H795V0H33Z" />
<glyph unicode="{" glyph-name="braceleft" horiz-adv-x="542" d="M55 553V625Q155 624 191 668T227 786Q227 833 209 963Q188 1087 188 1141Q188 1274 267 1339T477 1405H502V1329H465Q365 1328 322 1280T279 1133Q279 1088 297 969Q315 868 315 805Q316 719
281 665T184 594V590Q245 570 280 515T315 375Q315 306 297 211Q279 87 279 45Q279 -151 465 -154H502V-229H477Q415 -229 364 -214T273 -167T210 -79T188 53Q188 108 209 223Q227 354 227 393Q227 558 55 553Z" />
<glyph unicode="|" glyph-name="bar" horiz-adv-x="434" d="M174 1536H260V-512H174V1536Z" />
<glyph unicode="}" glyph-name="braceright" horiz-adv-x="542" d="M489 625V553Q315 558 315 393Q315 345 336 223Q354 124 354 53Q354 -23 332 -79T270 -167T179 -214T66 -229H41V-154H78Q264 -151 264 45Q264 112 246 211Q227 337 227 375Q227 460 262 515T358
590V594Q298 611 263 665T227 805Q227 836 246 969Q264 1064 264 1133Q264 1231 221 1279T78 1329H41V1405H66Q196 1405 275 1340T354 1141Q354 1069 336 963Q315 841 315 786Q315 753 321 727T345 676T399 638T489 625Z" />
<glyph unicode="~" glyph-name="asciitilde" horiz-adv-x="1220" d="M184 455H106Q99 572 164 645T326 719Q380 719 435 701T618 629Q693 596 727 582T814 554T909 539Q1038 539 1038 715H1114Q1121 583 1059 518T901 453Q802 453 600 539Q586 545 543 565T482
592T432 610T374 626T322 631Q255 631 220 586T184 455Z" />
</font>
</defs>
</svg>
