<?xml version="1.0" standalone="no"?>
<!DOCTYPE svg PUBLIC "-//W3C//DTD SVG 1.1//EN" "http://www.w3.org/Graphics/SVG/1.1/DTD/svg11.dtd" >
<svg>
<metadata>
Created by FontForge 20110222 at Wed May 14 16:40:47 2014
 By Orthosie Webhosting
Copyright (c) 2000 Adobe Systems Incorporated. All Rights Reserved. U.S. Patent Des. pending.
</metadata>
<defs>
<font id="" horiz-adv-x="1220" >
  <font-face 
    font-family=""
    font-weight="600"
    font-style="italic"
    font-stretch="normal"
    units-per-em="2048"
    panose-1="2 11 6 3 3 4 3 9 2 4"
    ascent="1536"
    descent="-512"
    x-height="997"
    cap-height="1380"
    bbox="-211 -512 2386 1854"
    underline-thickness="102"
    underline-position="-102"
    slope="-11"
    unicode-range="U+0020-FB04"
  />
<missing-glyph horiz-adv-x="1024" 
d="M0 0v1434h1024v-1434h-1024zM102 195l349 522l-349 522v-1044zM164 102h696l-348 523zM164 1331l348 -522l348 522h-696zM573 717l349 -522v1044z" />
    <glyph glyph-name=".notdef" horiz-adv-x="1024" 
d="M0 0v1434h1024v-1434h-1024zM102 195l349 522l-349 522v-1044zM164 102h696l-348 523zM164 1331l348 -522l348 522h-696zM573 717l349 -522v1044z" />
    <glyph glyph-name=".null" horiz-adv-x="0" 
 />
    <glyph glyph-name="nonmarkingreturn" horiz-adv-x="682" 
 />
    <glyph glyph-name="space" unicode=" " horiz-adv-x="374" 
 />
    <glyph glyph-name="exclam" unicode="!" horiz-adv-x="520" 
d="M37 123q0 72 48 123t120 51q63 0 103 -42t40 -108q0 -72 -48 -121t-120 -49h-2q-61 0 -101 42.5t-40 103.5zM154 428l145 952h262l-221 -952h-186z" />
    <glyph glyph-name="quotedbl" unicode="&#x22;" horiz-adv-x="716" 
d="M178 881l64 536h229l-141 -536h-152zM532 881l62 536h231l-141 -536h-152z" />
    <glyph glyph-name="numbersign" unicode="#" horiz-adv-x="1062" 
d="M55 383l27 154h192l84 266h-176l25 153h199l118 375h150l-117 -375h182l119 375h152l-119 -375h168l-27 -153h-188l-82 -266h174l-27 -154h-198l-119 -383h-154l119 383h-180l-119 -383h-154l119 383h-168zM428 537h180l82 266h-180z" />
    <glyph glyph-name="dollar" unicode="$" horiz-adv-x="1062" 
d="M53 123l78 182q129 -96 301 -96q102 0 169 50t67 130q0 61 -39 108.5t-133 94.5q-135 70 -209 150.5t-74 189.5q0 147 108.5 252.5t280.5 122.5l39 190h162l-37 -188q152 -6 246 -74l-78 -176q-123 70 -258 69q-94 0 -150.5 -46t-56.5 -115q0 -55 44 -98.5t159 -102.5
q254 -131 254 -338q0 -172 -117 -278.5t-297 -124.5l-39 -203h-160l37 201q-80 2 -164 32.5t-133 67.5z" />
    <glyph glyph-name="percent" unicode="%" horiz-adv-x="1691" 
d="M133 842q0 205 116 358.5t296 153.5h2q127 0 198.5 -83t71.5 -210q0 -221 -115.5 -373.5t-289.5 -152.5q-127 0 -203 83t-76 224zM299 -25l995 1379h150l-993 -1379h-152zM319 838q0 -160 113 -160q88 0 143.5 127t55.5 254q0 154 -111 153h-2q-86 0 -142.5 -123.5
t-56.5 -250.5zM934 289q0 205 115.5 359.5t296.5 154.5h2q127 0 198.5 -83t71.5 -210q0 -221 -116 -373.5t-290 -152.5q-127 0 -202.5 82t-75.5 223zM1120 285q0 -160 113 -160q88 0 143.5 127t55.5 256q0 152 -111 151h-2q-86 0 -142.5 -122.5t-56.5 -251.5z" />
    <glyph glyph-name="ampersand" unicode="&#x26;" horiz-adv-x="1292" 
d="M31 334q0 274 338 434l2 6q-76 131 -76 242q0 164 114.5 275.5t288.5 111.5q145 0 231.5 -81t86.5 -210q0 -229 -346 -391v-6q76 -127 213 -318q117 141 196 379h221q-123 -348 -309 -532q88 -125 189 -244h-283q-18 20 -47 58t-37 51q-158 -131 -377 -132
q-184 0 -294.5 99.5t-110.5 257.5zM274 373q0 -92 59.5 -152.5t166.5 -60.5h2q121 0 215 90q-164 227 -262 387q-181 -117 -181 -264zM512 1040q0 -96 61 -192q227 106 228 260q0 57 -31 96t-92 39h-2q-70 0 -117 -58.5t-47 -144.5z" />
    <glyph glyph-name="quotesingle" unicode="'" horiz-adv-x="376" 
d="M186 883l62 534h231l-141 -534h-152z" />
    <glyph glyph-name="parenleft" unicode="(" horiz-adv-x="616" 
d="M131 317q0 336 119 618t301 480h184q-178 -213 -292.5 -494.5t-114.5 -598.5q0 -301 96 -562h-172q-121 254 -121 557z" />
    <glyph glyph-name="parenright" unicode=")" horiz-adv-x="616" 
d="M-82 -240q178 215 293 497t115 599q0 299 -97 559h174q119 -248 119 -555q0 -336 -117.5 -617.5t-300.5 -482.5h-186z" />
    <glyph glyph-name="asterisk" unicode="*" horiz-adv-x="890" 
d="M141 930l33 178l295 -53v4l-174 256l166 88l88 -301h4l149 301l148 -88l-240 -258l2 -4l326 55l-35 -178l-303 47l-2 -4l182 -250l-166 -90l-88 303l-6 -2l-155 -303l-140 92l238 252l-2 4z" />
    <glyph glyph-name="plus" unicode="+" 
d="M100 467v160h435v463h165v-463h435v-160h-435v-467h-165v467h-435z" />
    <glyph glyph-name="comma" unicode="," horiz-adv-x="487" 
d="M-104 -248q150 297 219 541l266 20q-137 -317 -309 -544z" />
    <glyph glyph-name="hyphen" unicode="-" horiz-adv-x="645" 
d="M61 459l33 174h512l-33 -174h-512z" />
    <glyph glyph-name="period" unicode="." horiz-adv-x="487" 
d="M39 127q0 74 48 125t120 51q63 0 104 -43t41 -108q0 -74 -48 -123t-122 -49h-2q-61 0 -101 42t-40 105z" />
    <glyph glyph-name="slash" unicode="/" horiz-adv-x="667" 
d="M-94 -82l762 1485h178l-764 -1485h-176z" />
    <glyph glyph-name="zero" unicode="0" horiz-adv-x="1062" 
d="M84 446q0 221 68.5 425t211 343.5t324.5 139.5q188 0 274.5 -125t86.5 -314q0 -164 -39 -326.5t-112 -300.5t-190.5 -224.5t-258.5 -86.5h-3q-186 0 -274 129t-88 340zM319 436q0 -268 154 -268h2q80 0 147.5 84t106.5 206t60.5 242.5t21.5 208.5q0 254 -149 254
q-98 0 -181.5 -131t-122.5 -295t-39 -301z" />
    <glyph glyph-name="one" unicode="1" horiz-adv-x="1062" 
d="M317 1174l340 157h197l-252 -1331h-229l209 1102h-4l-246 -115z" />
    <glyph glyph-name="two" unicode="2" horiz-adv-x="1062" 
d="M-2 0l29 154l247 196q260 219 377 355.5t117 267.5q0 76 -49 128t-144 52q-150 0 -278 -88l-53 172q174 117 387 117q186 0 284.5 -98.5t98.5 -247.5q0 -100 -38 -194.5t-117 -185.5t-155.5 -163t-195.5 -166l-125 -92l2 -4h512l-37 -203h-862z" />
    <glyph glyph-name="three" unicode="3" horiz-adv-x="1062" 
d="M25 66l75 188q123 -74 277 -74q137 0 215 69.5t78 166.5q0 100 -75 151t-204 51h-59l37 185h55q115 0 213 56t98 157q0 63 -44 100t-130 37q-158 0 -264 -70l-41 181q156 90 350 90q168 0 274.5 -82t106.5 -219q0 -123 -84 -212t-211 -124v-4q104 -23 166 -104t62 -191
q0 -195 -163 -318t-388 -123q-111 0 -206 26t-138 63z" />
    <glyph glyph-name="four" unicode="4" horiz-adv-x="1062" 
d="M20 342l31 160l668 829h282l-151 -803h168l-35 -186h-168l-65 -342h-224l66 342h-572zM297 528h330l71 359q16 70 58 237h-6q-129 -195 -164 -241l-289 -351v-4z" />
    <glyph glyph-name="five" unicode="5" horiz-adv-x="1062" 
d="M29 53l65 189q106 -63 262 -64q129 0 228.5 78t99.5 197q0 227 -326 227q-51 0 -157 -8l188 659h660l-41 -205h-463l-82 -266q23 4 61 4q150 0 256 -73q152 -92 152 -295q0 -238 -169 -378.5t-415 -140.5q-104 0 -191 22.5t-128 53.5z" />
    <glyph glyph-name="six" unicode="6" horiz-adv-x="1062" 
d="M70 432q0 219 95 411.5t236 307.5q211 174 496 195q61 8 113 4l-35 -199q-47 2 -117 -6q-176 -23 -306 -127.5t-190 -261.5h5q125 131 299 131q150 0 239.5 -103.5t89.5 -265.5q0 -213 -146.5 -377t-365.5 -164q-201 0 -307 126t-106 329zM303 401q0 -104 50 -170.5
t141 -66.5h2q111 0 182.5 103.5t71.5 228.5q0 100 -49.5 154.5t-137.5 54.5q-68 0 -129 -41t-102 -109q-18 -33 -23 -66q-6 -43 -6 -88z" />
    <glyph glyph-name="seven" unicode="7" horiz-adv-x="1062" 
d="M70 0q250 375 741 1124v4h-592l39 203h856l-31 -160q-430 -676 -749 -1171h-264z" />
    <glyph glyph-name="eight" unicode="8" horiz-adv-x="1062" 
d="M41 315q0 137 84 236.5t215 150.5l2 7q-141 100 -141 254q0 170 137 280.5t328 110.5h2q158 0 262 -84t104 -230q0 -217 -250 -329v-6q92 -51 140.5 -132t48.5 -174q0 -195 -152.5 -308.5t-353.5 -113.5q-197 0 -311.5 94t-114.5 244zM293 344q0 -82 52 -136t144 -54h3
q96 0 163.5 62.5t67.5 162.5q0 162 -199 233q-96 -25 -163.5 -95.5t-67.5 -172.5zM432 979q0 -135 174 -195q84 29 140.5 89.5t56.5 140.5q0 70 -42 117t-124 47h-2q-84 0 -143.5 -59.5t-59.5 -139.5z" />
    <glyph glyph-name="nine" unicode="9" horiz-adv-x="1062" 
d="M106 -18l29 198q41 -2 125 4q147 16 272 105q158 115 228 295h-4q-109 -117 -277 -117q-156 0 -248 100.5t-92 251.5q0 213 152.5 374t367.5 161q197 0 297.5 -124t100.5 -321q0 -225 -100.5 -427.5t-239.5 -317.5q-190 -154 -459 -178q-86 -8 -152 -4zM383 848
q0 -90 47 -145.5t129 -55.5q137 0 217 117q20 29 29 61q12 47 12 121q0 100 -45 160.5t-135 60.5h-2q-102 0 -177 -97t-75 -222z" />
    <glyph glyph-name="colon" unicode=":" horiz-adv-x="487" 
d="M39 125q0 72 48 123t120 51q63 0 103 -42t40 -107q0 -74 -48 -123.5t-120 -49.5h-2q-61 0 -101 42.5t-40 105.5zM170 815q0 72 48 123t120 51q63 0 103 -42t40 -107q0 -74 -48 -123t-120 -49h-2q-61 0 -101 42t-40 105z" />
    <glyph glyph-name="semicolon" unicode=";" horiz-adv-x="487" 
d="M-104 -248q150 297 219 541l264 20q-143 -328 -309 -544zM180 815q0 72 48 123t120 51q63 0 103.5 -42t40.5 -107q0 -74 -48.5 -123t-119.5 -49h-2q-61 0 -101.5 42t-40.5 105z" />
    <glyph glyph-name="less" unicode="&#x3c;" 
d="M131 471v145l948 471v-182l-749 -360v-4l749 -359v-182z" />
    <glyph glyph-name="equal" unicode="=" 
d="M100 262v160h1037v-160h-1037zM100 678v160h1037v-160h-1037z" />
    <glyph glyph-name="greater" unicode="&#x3e;" 
d="M170 0v180l762 361v4l-762 362v180l950 -466v-156z" />
    <glyph glyph-name="question" unicode="?" horiz-adv-x="845" 
d="M172 123q0 72 47 123t119 51q63 0 104 -42t41 -108q0 -72 -48 -121t-122 -49h-2q-61 0 -100 42.5t-39 103.5zM244 1323q141 82 317 82q145 0 231.5 -76t86.5 -190q0 -78 -35 -152t-75 -121t-116 -123q-127 -133 -149 -266q0 -10 -4 -26.5t-4 -26.5h-232q4 37 4 53
q23 172 191 354q10 10 35.5 38t37 39.5t31 35t28.5 37.5t20.5 34.5t15.5 39t4 37.5q0 117 -137 118q-123 0 -213 -57z" />
    <glyph glyph-name="at" unicode="@" horiz-adv-x="1507" 
d="M76 430q0 324 211 553t547 229q268 0 438 -166.5t170 -424.5q0 -221 -108.5 -354.5t-270.5 -133.5q-70 0 -116 43t-48 125h-6q-102 -168 -277 -168q-96 0 -160.5 71.5t-64.5 192.5q0 195 136.5 337.5t346.5 142.5q141 0 232 -48l-66 -374q-35 -199 58 -201
q80 -4 144.5 93t64.5 265q0 217 -131.5 352.5t-362.5 135.5q-250 0 -425 -181.5t-175 -474.5q0 -252 145.5 -397t384.5 -145q168 0 297 67l35 -104q-154 -78 -364 -78q-268 0 -451.5 176t-183.5 467zM565 414q0 -63 31 -101.5t86 -38.5q70 0 131 74t78 168l37 211
q-41 12 -82 12q-117 0 -199 -96t-82 -229z" />
    <glyph glyph-name="A" unicode="A" 
d="M-55 0l690 1380h299l174 -1380h-248l-41 393h-432l-188 -393h-254zM463 578h344l-39 342q-8 82 -23 264h-4q-8 -20 -48 -117.5t-64 -144.5z" />
    <glyph glyph-name="B" unicode="B" horiz-adv-x="1132" 
d="M53 12l254 1348q154 31 332 31q215 0 332 -82q133 -82 133 -236q0 -125 -82 -214t-205 -122v-6q100 -31 160.5 -109.5t60.5 -193.5q0 -203 -178 -326q-160 -113 -487 -112q-199 -1 -320 22zM319 184q55 -6 125 -6q147 0 244.5 63.5t97.5 194.5q0 104 -75.5 153.5
t-194.5 49.5h-113zM440 815h111q137 0 222 60.5t85 164.5q0 164 -219 164q-86 0 -127 -10z" />
    <glyph glyph-name="C" unicode="C" horiz-adv-x="1169" 
d="M100 557q0 213 86 390t238 290q217 164 514 164q205 0 301 -62l-70 -192q-90 49 -260 49q-209 0 -350 -129q-94 -82 -147.5 -207t-53.5 -272q0 -184 97.5 -295t294.5 -111q164 0 276 51l23 -192q-139 -61 -361 -61q-270 0 -429 154.5t-159 422.5z" />
    <glyph glyph-name="D" unicode="D" horiz-adv-x="1363" 
d="M53 14l256 1348q176 29 365 29q338 0 506 -164q158 -143 157 -408q0 -195 -74.5 -364.5t-205.5 -278.5q-231 -186 -645 -186q-226 -1 -359 24zM328 193q63 -8 151 -9q283 0 436 170q164 176 164 459q0 182 -100 283.5t-309 101.5q-96 0 -154 -12z" />
    <glyph glyph-name="E" unicode="E" horiz-adv-x="1015" 
d="M49 0l262 1380h766l-39 -202h-526l-70 -363h498l-39 -201h-495l-78 -411h557l-39 -203h-797z" />
    <glyph glyph-name="F" unicode="F" horiz-adv-x="1003" 
d="M51 0l262 1380h760l-39 -202h-520l-76 -390h484l-39 -200h-482l-110 -588h-240z" />
    <glyph glyph-name="G" unicode="G" horiz-adv-x="1333" 
d="M100 563q0 184 73 349t204 280q238 203 590 203q225 0 348 -62l-74 -200q-123 57 -293 57q-225 0 -385 -137q-92 -80 -147.5 -207t-55.5 -266q0 -188 100.5 -290t293.5 -102q106 0 178 31l65 346h-243l37 193h477l-133 -697q-205 -76 -420 -75q-291 0 -457 159
q-158 156 -158 418z" />
    <glyph glyph-name="H" unicode="H" horiz-adv-x="1327" 
d="M51 0l262 1380h238l-107 -557h562l106 557h240l-262 -1380h-240l117 612h-561l-117 -612h-238z" />
    <glyph glyph-name="I" unicode="I" horiz-adv-x="524" 
d="M45 0l262 1380h238l-262 -1380h-238z" />
    <glyph glyph-name="J" unicode="J" horiz-adv-x="784" 
d="M-68 12l48 203q74 -27 170 -27q106 0 169.5 65.5t92.5 225.5l172 901h237l-176 -927q-47 -252 -163.5 -364t-331.5 -112q-144 0 -218 35z" />
    <glyph glyph-name="K" unicode="K" horiz-adv-x="1138" 
d="M49 0l262 1380h236l-121 -641h6q4 4 131 158l428 483h299l-569 -596l336 -784h-260l-262 635l-156 -146l-94 -489h-236z" />
    <glyph glyph-name="L" unicode="L" horiz-adv-x="956" 
d="M51 0l262 1380h238l-221 -1171h540l-39 -209h-780z" />
    <glyph glyph-name="M" unicode="M" horiz-adv-x="1642" 
d="M16 0l353 1380h313l74 -645q25 -307 26 -397h9q66 174 174 395l333 647h320l-182 -1380h-232l90 649q61 387 86 506h-6q-131 -297 -229 -487l-338 -652h-186l-72 641q-23 217 -37 498h-4q-8 -39 -50 -231.5t-61 -274.5l-159 -649h-222z" />
    <glyph glyph-name="N" unicode="N" horiz-adv-x="1333" 
d="M49 0l262 1380h275l241 -641q72 -201 123 -432h6q8 180 62 467l115 606h223l-262 -1380h-244l-248 653q-90 258 -131 445l-6 -2q-18 -176 -82 -506l-111 -590h-223z" />
    <glyph glyph-name="O" unicode="O" horiz-adv-x="1409" 
d="M98 547q0 188 67.5 367.5t190.5 295.5q199 193 486 193q262 0 401 -161t139 -411q0 -188 -65.5 -364t-181.5 -293q-201 -197 -492 -197h-2q-258 0 -400.5 163t-142.5 407zM350 559q0 -170 80 -275.5t244 -105.5h2q156 0 268 117q86 86 136 237.5t50 290.5q0 74 -14 137.5
t-48 120t-99.5 89t-155.5 32.5q-156 0 -274 -119q-86 -88 -137.5 -236.5t-51.5 -287.5z" />
    <glyph glyph-name="P" unicode="P" horiz-adv-x="1095" 
d="M49 0l258 1358q135 33 332 33q233 0 354 -99q127 -98 127 -274q0 -233 -176 -377q-162 -129 -432 -129q-68 0 -129 10l-100 -522h-234zM420 719q59 -12 125 -12q147 0 241.5 83.5t94.5 208.5q0 201 -240 201q-90 0 -133 -12z" />
    <glyph glyph-name="Q" unicode="Q" horiz-adv-x="1409" 
d="M98 549q0 180 64.5 355t181.5 294q96 98 226 151.5t272 53.5q180 0 305 -83t180 -208t55 -281q0 -178 -62.5 -353t-172.5 -288q-100 -100 -229 -145l-3 -6q182 -45 338 -70l-84 -192q-299 80 -501 172q-78 33 -97 33q-205 12 -339 164.5t-134 402.5zM350 553
q0 -166 79 -271.5t241 -105.5h2q156 0 270 115q86 86 137 241.5t51 296.5q0 70 -14 130.5t-47 118t-98.5 91t-157.5 33.5q-152 0 -272 -117q-86 -88 -138.5 -241.5t-52.5 -290.5z" />
    <glyph glyph-name="R" unicode="R" horiz-adv-x="1138" 
d="M51 0l260 1358q141 33 338 33q229 0 348 -88q129 -94 129 -252q0 -147 -90 -250t-229 -146v-6q121 -47 141 -262q33 -348 47 -387h-245q-14 59 -35 330q-8 129 -56.5 184t-144.5 55h-117l-108 -569h-238zM432 750h135q137 0 224.5 76.5t87.5 189.5q0 92 -64.5 139
t-171.5 47q-86 0 -129 -12z" />
    <glyph glyph-name="S" unicode="S" horiz-adv-x="1003" 
d="M10 76l82 196q137 -88 311 -88q106 0 180 54.5t74 150.5q0 66 -45 117t-147 106q-281 152 -281 361q0 193 146.5 310.5t361.5 117.5q190 0 307 -70l-77 -196q-113 62 -242 61h-8q-109 0 -173.5 -53t-64.5 -127q0 -66 49 -115t158 -108q268 -141 268 -367
q0 -205 -149.5 -325.5t-382.5 -120.5q-119 2 -217.5 29.5t-149.5 66.5z" />
    <glyph glyph-name="T" unicode="T" horiz-adv-x="1030" 
d="M135 1171l41 209h1006l-41 -209h-385l-221 -1171h-240l221 1171h-381z" />
    <glyph glyph-name="U" unicode="U" horiz-adv-x="1308" 
d="M139 401q0 78 19 193l149 786h240l-154 -805q-16 -86 -16 -167q0 -106 59.5 -168t165.5 -62q268 0 342 395l154 807h239l-153 -802q-59 -311 -208 -456t-405 -145h-7q-195 0 -309 106q-116 107 -116 318z" />
    <glyph glyph-name="V" unicode="V" horiz-adv-x="1185" 
d="M166 1380h246l80 -759q25 -242 28 -373h6q70 182 170 383l367 749h266l-719 -1380h-272z" />
    <glyph glyph-name="W" unicode="W" horiz-adv-x="1736" 
d="M195 1380h241l13 -708q1 -57 0 -112q0 -163 -5 -298h5q80 223 153 402l307 716h260l11 -696v-95q0 -184 -6 -321h4q80 233 145 402l299 710h250l-623 -1380h-256l-22 666q-1 46 -1 95q0 149 9 335h-4q-102 -295 -156 -420l-303 -676h-262z" />
    <glyph glyph-name="X" unicode="X" horiz-adv-x="1120" 
d="M-74 0l527 705l-250 675h252l104 -305q53 -166 68 -221h6q59 106 133 223l209 303h285l-517 -678l269 -702h-254l-109 307q-41 106 -82 238h-4q-86 -143 -149 -242l-201 -303h-287z" />
    <glyph glyph-name="Y" unicode="Y" horiz-adv-x="1118" 
d="M156 1380h256l108 -393q41 -168 55 -242h5q61 109 143 246l250 389h282l-591 -809l-109 -571h-240l109 567z" />
    <glyph glyph-name="Z" unicode="Z" horiz-adv-x="1105" 
d="M-47 0l27 141l862 1028v7h-604l38 204h926l-28 -149l-852 -1020l2 -6h665l-39 -205h-997z" />
    <glyph glyph-name="bracketleft" unicode="[" horiz-adv-x="616" 
d="M18 -229l312 1634h387l-27 -143h-205l-256 -1348h203l-26 -143h-388z" />
    <glyph glyph-name="backslash" unicode="\" horiz-adv-x="681" 
d="M115 1403h172l352 -1485h-172z" />
    <glyph glyph-name="bracketright" unicode="]" horiz-adv-x="616" 
d="M-68 -229l27 143h205l256 1348h-203l27 143h387l-312 -1634h-387z" />
    <glyph glyph-name="asciicircum" unicode="^" 
d="M104 373l422 958h160l420 -958h-184l-316 760h-4l-315 -760h-183z" />
    <glyph glyph-name="underscore" unicode="_" horiz-adv-x="1024" 
d="M-127 -256l21 102h1024l-21 -102h-1024z" />
    <glyph glyph-name="grave" unicode="`" horiz-adv-x="796" 
d="M266 1421h244l145 -303h-172z" />
    <glyph glyph-name="a" unicode="a" horiz-adv-x="1105" 
d="M57 317q0 131 45 254t130 224.5t222.5 163t305.5 61.5q162 0 301 -45l-103 -520q-42 -219 -41 -407q0 -24 1 -48h-222q4 100 19 223h-6q-133 -246 -357 -246q-133 0 -214 94t-81 246zM305 360q0 -190 144 -190q88 0 174 106.5t118 286.5l52 262q-37 10 -97 11
q-160 0 -275.5 -149t-115.5 -327z" />
    <glyph glyph-name="b" unicode="b" horiz-adv-x="1116" 
d="M84 248q0 82 20 170l207 1036h240l-123 -602l4 -2q125 170 326 170q150 0 225.5 -102.5t75.5 -249.5q0 -121 -42 -241t-119 -222.5t-203 -165t-277 -62.5q-160 0 -247 69t-87 202zM330 287q4 -125 133 -125q98 0 180 75.5t124 181t42 206.5q0 88 -40 144t-118 56
q-94 0 -177 -90t-114 -237l-18 -92q-13 -52 -13 -104q1 -8 1 -15z" />
    <glyph glyph-name="c" unicode="c" horiz-adv-x="880" 
d="M63 379q0 266 180.5 453.5t452.5 187.5q123 0 205 -39l-61 -184q-70 31 -152 30q-164 0 -269.5 -128t-105.5 -293q0 -111 59.5 -172.5t159.5 -61.5q109 0 211 47l11 -182q-119 -57 -287 -57q-186 0 -295 109.5t-109 289.5z" />
    <glyph glyph-name="d" unicode="d" horiz-adv-x="1114" 
d="M59 346q0 272 177.5 473t445.5 201q86 0 154 -29l88 463h237l-209 -1098q-39 -203 -45 -356h-219l21 176h-4q-133 -199 -343 -199q-135 0 -219 100.5t-84 268.5zM307 385q0 -96 40 -155.5t120 -59.5q86 0 166 88t108 236l60 303q-49 39 -137 39q-150 0 -253.5 -138.5
t-103.5 -312.5z" />
    <glyph glyph-name="e" unicode="e" horiz-adv-x="980" 
d="M63 391q0 240 160 434.5t404 194.5q147 0 234 -77t87 -204q0 -330 -602 -330q-25 0 -51 1q0 -9 -1 -19q0 -67 28 -123q57 -100 204.5 -100t274.5 65l22 -174q-154 -80 -352 -79q-201 0 -304.5 111.5t-103.5 299.5zM319 588h23q182 0 279 32q102 34 102 117v2q0 47 -35 75
t-92 28q-102 0 -177 -77t-100 -177z" />
    <glyph glyph-name="f" unicode="f" horiz-adv-x="630" 
d="M70 0l153 813h-131l35 184h131l8 52q43 227 166 335q106 92 264 93q94 0 148 -27l-45 -190q-41 18 -97 18q-82 0 -131 -64.5t-67 -169.5l-8 -47h206l-34 -184h-207l-154 -813h-237z" />
    <glyph glyph-name="g" unicode="g" horiz-adv-x="1112" 
d="M23 -360l59 182q98 -59 262 -60q125 0 207 70t117 236l24 112h-4q-121 -176 -313 -176q-143 0 -227.5 102.5t-84.5 249.5q0 125 44.5 244t125 212t206.5 150.5t276 57.5q190 0 346 -70l-152 -823q-61 -324 -204 -444q-135 -111 -369 -111q-204 0 -313 68zM313 393
q0 -88 38 -145.5t122 -57.5q88 0 167 93.5t105 228.5l58 297q-53 25 -133 25q-152 0 -254.5 -136.5t-102.5 -304.5z" />
    <glyph glyph-name="h" unicode="h" horiz-adv-x="1126" 
d="M41 0l276 1454h238l-117 -606h4q139 172 334 172q109 0 179.5 -68.5t70.5 -199.5q0 -78 -18 -174l-109 -578h-237l106 559q12 78 12 131q0 135 -125 135q-90 0 -174 -98t-112 -252l-90 -475h-238z" />
    <glyph glyph-name="i" unicode="i" horiz-adv-x="509" 
d="M41 0l190 997h238l-188 -997h-240zM268 1268q0 61 42 102t102 41q57 0 92 -35t35 -92q-2 -66 -44 -104.5t-104 -38.5h-2q-53 0 -87 35t-34 92z" />
    <glyph glyph-name="j" unicode="j" horiz-adv-x="520" 
d="M-211 -414l29 183q27 -6 71 -7q63 0 105.5 50.5t66.5 183.5l191 1001h235l-182 -977q-49 -252 -135 -346q-90 -102 -252 -102q-72 0 -129 14zM279 1268q0 61 41.5 102t101.5 41q57 0 92 -35t35 -92q-2 -66 -44 -104.5t-104 -38.5h-2q-53 0 -86.5 35t-33.5 92z" />
    <glyph glyph-name="k" unicode="k" horiz-adv-x="1015" 
d="M41 0l276 1454h238l-170 -889h4q59 72 92 107l297 325h295l-430 -411l287 -586h-264l-205 455l-117 -109l-65 -346h-238z" />
    <glyph glyph-name="l" unicode="l" horiz-adv-x="509" 
d="M41 0l276 1454h240l-278 -1454h-238z" />
    <glyph glyph-name="m" unicode="m" horiz-adv-x="1681" 
d="M43 0l127 688q20 106 49 309h207l-23 -174h5q135 197 346 197q111 0 169 -58.5t64 -146.5q133 201 354 205q106 0 174 -68.5t68 -197.5q0 -63 -16 -170l-109 -584h-231l102 557q14 72 14 125q0 143 -120 143q-86 0 -164 -97t-107 -251l-88 -477h-229l106 565
q12 82 13 117q0 143 -119 143q-84 0 -166 -101t-109 -251l-86 -473h-231z" />
    <glyph glyph-name="n" unicode="n" horiz-adv-x="1126" 
d="M41 0l129 688q23 111 51 309h213l-22 -178h4q139 201 358 201q113 0 183.5 -69.5t70.5 -205.5q0 -76 -18 -163l-109 -582h-239l106 563q12 74 12 119q0 143 -125 143q-86 0 -172 -99t-116 -265l-86 -461h-240z" />
    <glyph glyph-name="o" unicode="o" horiz-adv-x="1112" 
d="M66 389q0 260 162.5 445.5t412.5 185.5q193 0 300.5 -119t107.5 -293q0 -260 -163 -445.5t-411 -185.5h-2q-186 0 -296.5 116t-110.5 296zM311 395q0 -104 51.5 -168.5t141.5 -64.5h2q127 0 212 141t85 303q0 90 -46 160t-145 70q-133 0 -217 -142.5t-84 -298.5z" />
    <glyph glyph-name="p" unicode="p" horiz-adv-x="1116" 
d="M-43 -406l197 1033q25 141 57 377h215l-23 -170h5q63 88 151 137t184 49q154 0 235 -105.5t81 -263.5q0 -270 -166 -472t-414 -202q-125 0 -198 43h-5l-81 -426h-238zM313 213q61 -51 160 -51q135 0 235.5 147.5t100.5 323.5q0 78 -38 135t-120 57q-94 0 -179 -100
t-116 -268z" />
    <glyph glyph-name="q" unicode="q" horiz-adv-x="1116" 
d="M59 346q0 125 44 244t124 215t209 155.5t283 59.5q158 0 346 -62l-256 -1364h-240l121 566h-4q-57 -88 -144 -135.5t-180 -47.5q-139 0 -221 103.5t-82 265.5zM307 377q0 -98 40 -152.5t106 -54.5q96 0 180 95t110 239l58 303q-47 27 -137 27q-147 0 -252 -140.5
t-105 -316.5z" />
    <glyph glyph-name="r" unicode="r" horiz-adv-x="710" 
d="M41 0l117 614q18 92 51 383h207q-12 -141 -23 -209h6q53 104 134 168t180 64q8 0 25.5 -1t25.5 -1l-47 -234q-12 2 -45 2q-121 0 -204 -107.5t-114 -277.5l-75 -401h-238z" />
    <glyph glyph-name="s" unicode="s" horiz-adv-x="813" 
d="M4 53l62 170q117 -66 239 -65q70 0 112 34.5t42 88.5q0 47 -29 80.5t-102 72.5q-197 102 -197 258q0 143 113.5 235.5t290.5 92.5q150 0 235 -51l-61 -172q-82 45 -187 45q-68 0 -109.5 -32t-41.5 -83q0 -70 129 -139q207 -106 207 -266q0 -162 -119 -253
q-116 -89 -297 -90q-4 0 -8 1q-183 3 -279 73z" />
    <glyph glyph-name="t" unicode="t" horiz-adv-x="681" 
d="M96 813l35 184h133l37 187l246 69l-47 -256h223l-37 -184h-223l-78 -403q-18 -82 -18 -140q0 -90 88 -90q45 0 82 6l-23 -186q-49 -20 -156 -20q-117 0 -176 56t-59 148q0 80 20 185l86 444h-133z" />
    <glyph glyph-name="u" unicode="u" horiz-adv-x="1116" 
d="M92 260q0 82 21 178l106 559h238l-103 -544q-16 -78 -16 -138q0 -141 127 -141q86 0 167 94t111 244l91 485h239l-131 -688q-20 -106 -49 -309h-213l22 174h-4q-147 -197 -346 -197q-117 0 -188.5 69t-71.5 214z" />
    <glyph glyph-name="v" unicode="v" horiz-adv-x="995" 
d="M98 997h246l64 -495q6 -59 16 -143.5t12 -116.5h6q47 123 109 254l248 501h264l-555 -997h-240z" />
    <glyph glyph-name="w" unicode="w" horiz-adv-x="1476" 
d="M115 997h239l17 -485q2 -53 1 -111q0 -87 -3 -184h4q31 92 114 281l242 499h199l43 -485q9 -164 9 -248q0 -28 -1 -47h4q51 164 104 293l213 487h242l-487 -997h-226l-45 434q-10 123 -10 295h-4q-111 -272 -117 -285l-221 -444h-225z" />
    <glyph glyph-name="x" unicode="x" horiz-adv-x="966" 
d="M-88 0l434 514l-233 483h262l76 -180l65 -164h6q10 14 45 67.5t62 88.5l143 188h275l-420 -485l233 -512h-262l-80 188q-41 98 -67 179h-5q-92 -145 -102 -160l-156 -207h-276z" />
    <glyph glyph-name="y" unicode="y" horiz-adv-x="966" 
d="M-66 -254q117 43 177 88q109 76 176 199q10 18 4 45l-199 919h250l78 -479q31 -178 39 -250h4q80 201 96 238l213 491h254l-364 -735q-190 -379 -365 -549q-145 -139 -307 -172z" />
    <glyph glyph-name="z" unicode="z" horiz-adv-x="888" 
d="M-49 0l26 145l396 433q115 123 227 219l2 6h-465l39 194h750l-29 -153l-389 -424q-117 -129 -225 -219v-6h503l-36 -195h-799z" />
    <glyph glyph-name="braceleft" unicode="{" horiz-adv-x="616" 
d="M66 522l24 133q94 2 132 42t52 104q8 51 17.5 162.5t19.5 169.5q49 272 340 272h64l-29 -143h-37q-129 0 -166 -162q-8 -41 -13 -133.5t-15 -145.5q-16 -104 -65.5 -158.5t-133.5 -72.5v-4q123 -29 123 -150q0 -74 -47 -215t-47 -196q0 -109 108 -111h37l-27 -143h-51
q-256 0 -256 213q0 72 51 233q51 145 52 201q0 43 -30.5 73.5t-102.5 30.5z" />
    <glyph glyph-name="bar" unicode="|" horiz-adv-x="468" 
d="M186 -512v2048h168v-2048h-168z" />
    <glyph glyph-name="braceright" unicode="}" horiz-adv-x="616" 
d="M-72 -229l29 143h37q129 0 166 162q8 41 13 133t15 145q16 104 65.5 158.5t133.5 73.5v4q-123 33 -123 149q0 41 47 215q47 141 47 197q0 109 -110 111h-35l27 143h49q256 0 256 -213q0 -88 -51 -234q-51 -158 -51.5 -200.5t31.5 -73.5t101 -31l-24 -133
q-66 0 -107 -25.5t-54 -52t-21 -67.5q-8 -51 -17.5 -163t-19.5 -169q-49 -272 -340 -272h-64z" />
    <glyph glyph-name="asciitilde" unicode="~" 
d="M113 414q-2 172 70.5 258t193.5 86q113 0 278 -92q154 -84 219 -84q90 0 97 166h162q8 -182 -65 -264.5t-191 -82.5q-115 0 -293 101q-137 78 -205 78q-98 0 -105 -166h-161z" />
    <glyph glyph-name="uni00A0" unicode="&#xa0;" horiz-adv-x="374" 
 />
    <glyph glyph-name="exclamdown" unicode="&#xa1;" horiz-adv-x="520" 
d="M-41 -393l219 950h189l-146 -950h-262zM170 838q0 72 48 121t122 49h2q61 0 100 -42t39 -104q0 -72 -47 -123t-119 -51q-63 0 -104 42t-41 108z" />
    <glyph glyph-name="cent" unicode="&#xa2;" horiz-adv-x="1062" 
d="M170 575q0 233 147.5 400.5t362.5 202.5l37 200h162l-37 -194q113 -4 182 -45l-76 -181q-72 41 -182 41q-139 0 -240.5 -114.5t-101.5 -282.5q0 -111 63.5 -176.5t174.5 -65.5q94 0 196 43l14 -178q-96 -47 -227 -51l-37 -201h-162l39 205q-154 27 -237 137
q-78 102 -78 260z" />
    <glyph glyph-name="sterling" unicode="&#xa3;" horiz-adv-x="1062" 
d="M39 0l22 139q90 39 163 119t100 172q18 55 18 145h-188l32 175h156q0 127 25 235q41 172 158.5 270.5t297.5 98.5q131 0 207 -49l-67 -185q-59 35 -152 35q-94 0 -151.5 -56.5t-75.5 -152.5q-18 -100 -15 -196h293l-33 -175h-264q-6 -70 -26 -139q-41 -143 -158 -229
l-2 -4h563l-33 -203h-870z" />
    <glyph glyph-name="currency" unicode="&#xa4;" horiz-adv-x="1062" 
d="M61 1077l117 121l148 -164q90 78 231 78h2q145 0 234 -78l153 164l115 -121l-170 -153q70 -96 70 -240q0 -145 -72 -246l166 -157l-115 -117l-147 166q-92 -82 -236 -82q-145 0 -233 78l-142 -164l-114 119l161 153q-76 100 -75 244q0 141 75 246zM336 680
q0 -127 68.5 -196.5t152.5 -69.5q90 0 155.5 68.5t65.5 199.5q0 113 -61.5 188.5t-159.5 75.5h-2q-94 0 -156.5 -75.5t-62.5 -190.5z" />
    <glyph glyph-name="yen" unicode="&#xa5;" horiz-adv-x="1062" 
d="M74 342l24 125h303l27 139h-305l24 125h244l-215 600h248l96 -370q37 -154 47 -207h6q94 164 121 211l244 366h262l-459 -600h242l-25 -125h-307l-26 -139h307l-25 -125h-305l-65 -342h-224l64 342h-303z" />
    <glyph glyph-name="brokenbar" unicode="&#xa6;" horiz-adv-x="468" 
d="M186 356h168v-716h-168v716zM186 664v716h168v-716h-168z" />
    <glyph glyph-name="section" unicode="&#xa7;" horiz-adv-x="1087" 
d="M82 -49l68 153q133 -86 280 -86q94 0 152.5 39t58.5 107q0 49 -43 89t-152 87q-145 61 -227 131t-82 172q0 90 58.5 167t158.5 128q-51 59 -51 137q0 152 130 240t306 88q184 0 293 -72l-61 -147q-115 61 -252 61q-86 0 -142.5 -38t-56.5 -99q0 -51 43 -84t154 -78
q139 -57 214 -126.5t75 -178.5q0 -182 -193 -295q53 -55 53 -147q0 -168 -131 -254t-307 -86q-219 0 -346 92zM344 700q0 -51 35 -92t125 -80q150 -66 194 -96q100 59 101 154q0 100 -131 168q-180 82 -211 100q-47 -23 -80 -64.5t-33 -87.5v-2z" />
    <glyph glyph-name="dieresis" unicode="&#xa8;" horiz-adv-x="796" 
d="M223 1268q0 59 39 97t94 38q53 0 85 -35t32 -86q0 -57 -38 -95t-93 -38h-2q-49 0 -83 33t-34 86zM623 1268q0 59 38.5 97t94.5 38q53 0 84.5 -35t31.5 -86q0 -57 -37.5 -95t-93.5 -38h-2q-49 0 -82.5 33t-33.5 86z" />
    <glyph glyph-name="copyright" unicode="&#xa9;" horiz-adv-x="1380" 
d="M117 696q0 262 182 446.5t442 184.5h2q258 0 437.5 -184.5t179.5 -446.5q0 -264 -179.5 -449.5t-439.5 -185.5t-442 185.5t-182 449.5zM236 692q0 -223 146 -375.5t359 -152.5q209 -2 354.5 151.5t145.5 378.5q0 223 -145.5 377t-354.5 154h-2q-211 0 -357 -155
t-146 -378zM397 684q0 170 117 275.5t277 105.5q74 0 139 -18.5t86 -38.5l-27 -99q-80 49 -198 49q-127 0 -197 -72.5t-70 -195.5q0 -117 72 -193.5t195 -76.5q127 0 208 53l27 -94q-96 -66 -254 -66q-174 0 -274.5 104.5t-100.5 266.5z" />
    <glyph glyph-name="ordfeminine" unicode="&#xaa;" horiz-adv-x="774" 
d="M123 772q0 180 118.5 309t333.5 129q125 0 230 -41l-74 -415q-14 -90 -14 -207h-164q0 55 6 117h-4q-86 -129 -231 -129q-88 0 -144.5 64t-56.5 173zM305 805q0 -131 101 -131q55 0 104 50t65 122l37 221q-35 12 -80 12q-96 0 -161.5 -82.5t-65.5 -191.5z" />
    <glyph glyph-name="guillemotleft" unicode="&#xab;" horiz-adv-x="897" 
d="M55 516l289 385h191l-302 -389l201 -381h-174zM424 516l287 385h192l-301 -389l201 -381h-174z" />
    <glyph glyph-name="logicalnot" unicode="&#xac;" 
d="M84 684v160h1036v-615h-166v455h-870z" />
    <glyph glyph-name="uni00AD" unicode="&#xad;" horiz-adv-x="645" 
d="M61 459l33 174h512l-33 -174h-512z" />
    <glyph glyph-name="registered" unicode="&#xae;" horiz-adv-x="825" 
d="M170 1057q0 143 103.5 243.5t252.5 100.5h2q147 0 250 -100.5t103 -243.5q0 -145 -102.5 -246.5t-252 -101.5t-253 101.5t-103.5 246.5zM268 1054.5q0 -112.5 74 -189.5t184 -77q109 -2 182.5 76t73.5 190.5t-73.5 189.5t-184.5 77h-2q-109 0 -181.5 -77t-72.5 -189.5z
M385 885v329q53 12 139 12.5t123 -26.5q35 -20 35 -70q0 -57 -72 -77v-4q49 -16 64 -84q14 -61 22 -80h-98q-10 12 -25 76q-8 49 -61 49h-35v-125h-92zM479 1073h33q70 0 70 45t-64 45q-10 0 -22.5 -1t-16.5 -1v-88z" />
    <glyph glyph-name="uni02C9" unicode="&#xaf;" horiz-adv-x="796" 
d="M297 1204l27 137h479l-27 -137h-479z" />
    <glyph glyph-name="uni02C9" unicode="&#x2c9;" horiz-adv-x="796" 
d="M297 1204l27 137h479l-27 -137h-479z" />
    <glyph glyph-name="degree" unicode="&#xb0;" horiz-adv-x="694" 
d="M176 1110q0 119 88 206t209 87h2q125 0 204 -80t79 -195q0 -125 -90 -209.5t-209 -84.5q-123 0 -203 79.5t-80 196.5zM317 1112q0 -70 42 -114t105.5 -44t107.5 49.5t44 120.5q0 63 -36.5 110.5t-108.5 47.5h-2q-66 0 -109 -52t-43 -118z" />
    <glyph glyph-name="plusminus" unicode="&#xb1;" 
d="M92 0v160h1034v-160h-1034zM92 645v160h434v375h166v-375h434v-160h-434v-383h-166v383h-434z" />
    <glyph glyph-name="uni00B2" unicode="&#xb2;" horiz-adv-x="659" 
d="M94 831l19 101l153 119q156 119 228.5 195.5t72.5 148.5q0 94 -112 94q-90 0 -176 -62l-35 123q123 90 274 90q115 0 185.5 -57t70.5 -156q0 -57 -24.5 -111t-76.5 -106.5t-95 -87.5t-119 -90l-64 -49v-4h312l-27 -148h-586z" />
    <glyph glyph-name="uni00B3" unicode="&#xb3;" horiz-adv-x="645" 
d="M106 885l62 129q82 -55 186 -56q76 0 122 36t46 89q0 55 -50 84t-128 29h-41l25 117h37q74 0 133 30.5t59 81.5q0 78 -104 78q-100 0 -179 -57l-22 123q109 72 258 71q109 0 179.5 -52t70.5 -130q0 -141 -193 -196v-5q66 -14 111 -61t45 -115q0 -119 -102.5 -189.5
t-258.5 -70.5q-164 1 -256 64z" />
    <glyph glyph-name="acute" unicode="&#xb4;" horiz-adv-x="796" 
d="M387 1118l197 303h252l-269 -303h-180z" />
    <glyph glyph-name="uni00B5" unicode="&#xb5;" horiz-adv-x="1112" 
d="M-10 -406q-18 92 35 369l194 1034h238l-109 -575q-43 -250 135 -250q61 0 117.5 53.5t93.5 126.5q27 53 35 99l105 546h237l-129 -688q-14 -82 0 -111.5t59 -33.5l-47 -174q-33 -12 -80 -13q-152 0 -157 193h-6q-106 -186 -273 -186q-125 0 -170 88l-20 -111
q-49 -254 -43 -367h-215z" />
    <glyph glyph-name="paragraph" unicode="&#xb6;" horiz-adv-x="1060" 
d="M150 883q0 229 176 363t477 134q188 0 264 -18l-283 -1468h-159l254 1333h-148l-254 -1333h-162l125 638l-24 7q-109 27 -187.5 115t-78.5 229z" />
    <glyph glyph-name="uni2219" unicode="&#xb7;" horiz-adv-x="487" 
d="M90 518q0 74 48 125t120 51q63 0 104 -43t41 -108q0 -74 -48 -123t-122 -49h-2q-61 0 -101 42t-40 105z" />
    <glyph glyph-name="uni2219" unicode="&#x2219;" horiz-adv-x="487" 
d="M90 518q0 74 48 125t120 51q63 0 104 -43t41 -108q0 -74 -48 -123t-122 -49h-2q-61 0 -101 42t-40 105z" />
    <glyph glyph-name="cedilla" unicode="&#xb8;" horiz-adv-x="796" 
d="M49 -379l45 105q49 -31 109 -31q33 0 57.5 16.5t24.5 46.5q0 63 -142 76l117 172h135l-73 -102q53 -12 85.5 -48t32.5 -83q0 -92 -72.5 -141.5t-169 -49.5t-149.5 39z" />
    <glyph glyph-name="uni00B9" unicode="&#xb9;" horiz-adv-x="518" 
d="M225 1536l230 94h168l-152 -799h-195l121 635h-2l-153 -65z" />
    <glyph glyph-name="ordmasculine" unicode="&#xba;" horiz-adv-x="749" 
d="M109 811q0 174 109.5 286.5t268.5 112.5h2q137 0 216 -77.5t79 -202.5q0 -174 -109.5 -284.5t-279.5 -110.5q-129 0 -207.5 79.5t-78.5 196.5zM291 811q0 -68 34.5 -107.5t90.5 -39.5q76 0 130 81.5t54 192.5q0 61 -29.5 102t-95.5 41h-2q-78 0 -130 -84t-52 -186z" />
    <glyph glyph-name="guillemotright" unicode="&#xbb;" horiz-adv-x="894" 
d="M12 131l301 391l-200 379h174l205 -385l-289 -385h-191zM381 131l301 391l-201 379h174l205 -385l-289 -385h-190z" />
    <glyph glyph-name="onequarter" unicode="&#xbc;" horiz-adv-x="1624" 
d="M215 1249l229 94h168l-151 -798h-195l121 635h-2l-154 -66zM225 -23l996 1377h157l-995 -1377h-158zM805 197l20 108l453 502h221l-92 -481h113l-25 -129h-113l-36 -197h-183l37 197h-395zM1014 328l4 -2h207l37 192q6 29 18 77t16 62h-6q-49 -72 -94 -125z" />
    <glyph glyph-name="onehalf" unicode="&#xbd;" horiz-adv-x="1624" 
d="M186 -23l1002 1377h153l-1001 -1377h-154zM203 1249l229 94h170l-153 -798h-195l123 635h-4l-154 -66zM858 0l19 100l151 119q160 125 230.5 199t70.5 145q0 94 -110 94q-88 0 -179 -61l-34 123q127 90 276 90q113 0 183.5 -57.5t70.5 -155.5q0 -76 -52 -152.5
t-105.5 -120.5t-157.5 -122l-64 -49v-5h311l-28 -147h-582z" />
    <glyph glyph-name="threequarters" unicode="&#xbe;" horiz-adv-x="1624" 
d="M72 598l61 129q80 -57 186 -57q76 0 122 35.5t46 89.5q0 55 -50 84.5t-128 29.5h-39l25 117h37q74 0 133 30.5t59 82.5q0 78 -104 78q-98 0 -180 -58l-21 123q109 72 258 72q109 0 179.5 -52.5t70.5 -130.5q0 -141 -192 -196l-3 -4q68 -14 112 -61.5t44 -114.5
q-2 -119 -103.5 -189.5t-256.5 -70.5q-164 0 -256 63zM293 -23l995 1377h158l-995 -1377h-158zM827 197l21 108l455 502h219l-90 -481h110l-24 -129h-111l-37 -197h-184l37 197h-396zM1036 328l4 -2h207l37 192q6 27 18.5 75t16.5 66h-4q-82 -111 -96 -127z" />
    <glyph glyph-name="questiondown" unicode="&#xbf;" horiz-adv-x="845" 
d="M-14 -145q0 102 56 190t167 199q129 133 151 266l9 53h231q0 -16 -4 -53q-23 -172 -193 -354q-119 -127 -145 -174q-25 -47 -25 -88q0 -117 138 -119q123 0 213 55l37 -170q-141 -80 -314 -80q-150 0 -235.5 78t-85.5 197zM381 838q0 72 48 121t122 49h2q61 0 100 -42
t39 -104q0 -72 -48 -123t-120 -51q-63 0 -103 42t-40 108z" />
    <glyph glyph-name="Agrave" unicode="&#xc0;" 
d="M-55 0l690 1380h299l174 -1380h-248l-41 393h-432l-188 -393h-254zM463 578h344l-39 342q-8 82 -23 264h-4q-8 -20 -48 -117.5t-64 -144.5zM471 1704h272l156 -248h-197z" />
    <glyph glyph-name="Aacute" unicode="&#xc1;" 
d="M-55 0l690 1380h299l174 -1380h-248l-41 393h-432l-188 -393h-254zM463 578h344l-39 342q-8 82 -23 264h-4q-8 -20 -48 -117.5t-64 -144.5zM662 1454l200 250h281l-275 -250h-206z" />
    <glyph glyph-name="Acircumflex" unicode="&#xc2;" 
d="M-55 0l690 1380h299l174 -1380h-248l-41 393h-432l-188 -393h-254zM463 578h344l-39 342q-8 82 -23 264h-4q-8 -20 -48 -117.5t-64 -144.5zM489 1454l250 250h183l163 -250h-176l-90 135h-4l-133 -135h-193z" />
    <glyph glyph-name="Atilde" unicode="&#xc3;" 
d="M-55 0l690 1380h299l174 -1380h-248l-41 393h-432l-188 -393h-254zM463 578h344l-39 342q-8 82 -23 264h-4q-8 -20 -48 -117.5t-64 -144.5zM510 1464q18 111 68.5 172.5t117.5 61.5q59 0 127 -41q57 -39 86 -39q43 0 70 86h121q-37 -227 -191 -227q-66 0 -125 39
q-63 37 -86 36q-43 0 -65 -88h-123z" />
    <glyph glyph-name="Adieresis" unicode="&#xc4;" 
d="M-55 0l690 1380h299l174 -1380h-248l-41 393h-432l-188 -393h-254zM463 578h344l-39 342q-8 82 -23 264h-4q-8 -20 -48 -117.5t-64 -144.5zM477 1581q0 55 39 93t92 38q51 0 83 -35t32 -82q0 -55 -38 -93t-91 -38h-2q-47 0 -81 34t-34 83zM881 1581q0 55 38.5 93t92.5 38
q51 0 82.5 -35t31.5 -82q0 -55 -37.5 -93t-91.5 -38h-2q-47 0 -80.5 34t-33.5 83z" />
    <glyph glyph-name="Aring" unicode="&#xc5;" 
d="M-55 0l690 1380h299l174 -1380h-248l-41 393h-432l-188 -393h-254zM463 578h344l-39 342q-8 82 -23 264h-4q-8 -20 -48 -117.5t-64 -144.5zM594 1602q-2 90 63.5 147t167.5 57h2q92 0 150.5 -49t58.5 -135q-2 -90 -67.5 -143.5t-165.5 -53.5q-88 0 -147.5 49.5
t-61.5 127.5zM721 1608q0 -39 23.5 -67t64.5 -28q45 0 72.5 30t27.5 75t-24.5 72.5t-65.5 27.5h-2q-43 0 -69.5 -31.5t-26.5 -78.5z" />
    <glyph glyph-name="AE" unicode="&#xc6;" horiz-adv-x="1662" 
d="M-102 0l878 1380h895l-37 -202h-520l-37 -367h494l-37 -201h-467l-37 -407h524l-38 -203h-730l37 428h-403l-268 -428h-254zM535 629h303l32 362q20 209 21 211h-6q-88 -156 -121 -209z" />
    <glyph glyph-name="Ccedilla" unicode="&#xc7;" horiz-adv-x="1171" 
d="M100 559q0 213 86 389t238 289q217 164 512 164q102 0 185 -19.5t116 -42.5l-68 -192q-94 49 -260 49q-207 0 -352 -129q-92 -78 -145.5 -205t-53.5 -274q0 -184 97.5 -295t292.5 -111q162 0 276 56l25 -191q-137 -66 -316 -67l-55 -76q55 -12 87 -48t32 -87
q0 -90 -74 -136.5t-168 -46.5q-96 0 -147 41l43 97q51 -29 106 -29q82 0 82 63.5t-139 75.5l102 150q-238 23 -370 177t-132 398z" />
    <glyph glyph-name="Egrave" unicode="&#xc8;" horiz-adv-x="1015" 
d="M49 0l262 1380h766l-39 -202h-526l-70 -363h498l-39 -201h-495l-78 -411h557l-39 -203h-797zM418 1704h272l156 -248h-197z" />
    <glyph glyph-name="Eacute" unicode="&#xc9;" horiz-adv-x="1015" 
d="M49 0l262 1380h766l-39 -202h-526l-70 -363h498l-39 -201h-495l-78 -411h557l-39 -203h-797zM575 1454l201 250h281l-275 -250h-207z" />
    <glyph glyph-name="Ecircumflex" unicode="&#xca;" horiz-adv-x="1015" 
d="M49 0l262 1380h766l-39 -202h-526l-70 -363h498l-39 -201h-495l-78 -411h557l-39 -203h-797zM408 1454l249 250h183l164 -250h-177l-90 135h-4l-133 -135h-192z" />
    <glyph glyph-name="Edieresis" unicode="&#xcb;" horiz-adv-x="1015" 
d="M49 0l262 1380h766l-39 -202h-526l-70 -363h498l-39 -201h-495l-78 -411h557l-39 -203h-797zM406 1581q0 55 38.5 93t92.5 38q51 0 82.5 -35t31.5 -82q0 -55 -38 -93t-91 -38h-2q-47 0 -80.5 34t-33.5 83zM809 1581q0 55 39 93t92 38q51 0 83 -35t32 -82q0 -55 -38 -93
t-91 -38h-2q-47 0 -81 34t-34 83z" />
    <glyph glyph-name="Igrave" unicode="&#xcc;" horiz-adv-x="524" 
d="M45 0l262 1380h238l-262 -1380h-238zM143 1704h273l155 -248h-196z" />
    <glyph glyph-name="Iacute" unicode="&#xcd;" horiz-adv-x="524" 
d="M45 0l262 1380h238l-262 -1380h-238zM307 1454l201 250h280l-274 -250h-207z" />
    <glyph glyph-name="Icircumflex" unicode="&#xce;" horiz-adv-x="524" 
d="M45 0l262 1380h238l-262 -1380h-238zM129 1454l250 250h182l164 -250h-176l-90 135h-4l-133 -135h-193z" />
    <glyph glyph-name="Idieresis" unicode="&#xcf;" horiz-adv-x="524" 
d="M45 0l262 1380h238l-262 -1380h-238zM133 1581q0 55 39 93t92 38q51 0 83 -35t32 -82q0 -55 -38 -93t-91 -38h-2q-47 0 -81 34t-34 83zM537 1581q0 55 38.5 93t92.5 38q51 0 82.5 -35t31.5 -82q0 -55 -37.5 -93t-91.5 -38h-2q-47 0 -80.5 34t-33.5 83z" />
    <glyph glyph-name="Eth" unicode="&#xd0;" horiz-adv-x="1384" 
d="M25 614l38 199h164l103 549q182 29 364 29q344 0 502 -158q162 -145 162 -414q0 -193 -77 -362.5t-208 -276.5q-233 -188 -641 -188q-215 0 -358 22l114 600h-163zM348 195q63 -8 156 -9q268 0 428 172q168 178 168 453q0 182 -99.5 284.5t-306.5 102.5q-100 0 -155 -10
l-72 -375h299l-39 -199h-299z" />
    <glyph glyph-name="Ntilde" unicode="&#xd1;" horiz-adv-x="1333" 
d="M49 0l262 1380h275l241 -641q72 -201 123 -432h6q8 180 62 467l115 606h223l-262 -1380h-244l-248 653q-90 258 -131 445l-6 -2q-18 -176 -82 -506l-111 -590h-223zM582 1466q18 111 68 172.5t118 61.5q59 0 127 -41q59 -39 86 -39q43 0 70 86h120q-37 -227 -190 -227
q-66 0 -125 39q-63 37 -86 36q-43 0 -65 -88h-123z" />
    <glyph glyph-name="Ograve" unicode="&#xd2;" horiz-adv-x="1409" 
d="M98 547q0 188 67.5 367.5t190.5 295.5q199 193 486 193q262 0 401 -161t139 -411q0 -188 -65.5 -364t-181.5 -293q-201 -197 -492 -197h-2q-258 0 -400.5 163t-142.5 407zM350 559q0 -170 80 -275.5t244 -105.5h2q156 0 268 117q86 86 136 237.5t50 290.5q0 74 -14 137.5
t-48 120t-99.5 89t-155.5 32.5q-156 0 -274 -119q-86 -88 -137.5 -236.5t-51.5 -287.5zM565 1704h273l155 -248h-196z" />
    <glyph glyph-name="Oacute" unicode="&#xd3;" horiz-adv-x="1409" 
d="M98 547q0 188 67.5 367.5t190.5 295.5q199 193 486 193q262 0 401 -161t139 -411q0 -188 -65.5 -364t-181.5 -293q-201 -197 -492 -197h-2q-258 0 -400.5 163t-142.5 407zM350 559q0 -170 80 -275.5t244 -105.5h2q156 0 268 117q86 86 136 237.5t50 290.5q0 74 -14 137.5
t-48 120t-99.5 89t-155.5 32.5q-156 0 -274 -119q-86 -88 -137.5 -236.5t-51.5 -287.5zM743 1458l201 250h281l-275 -250h-207z" />
    <glyph glyph-name="Ocircumflex" unicode="&#xd4;" horiz-adv-x="1409" 
d="M98 547q0 188 67.5 367.5t190.5 295.5q199 193 486 193q262 0 401 -161t139 -411q0 -188 -65.5 -364t-181.5 -293q-201 -197 -492 -197h-2q-258 0 -400.5 163t-142.5 407zM350 559q0 -170 80 -275.5t244 -105.5h2q156 0 268 117q86 86 136 237.5t50 290.5q0 74 -14 137.5
t-48 120t-99.5 89t-155.5 32.5q-156 0 -274 -119q-86 -88 -137.5 -236.5t-51.5 -287.5zM565 1454l250 250h182l164 -250h-176l-90 135h-4l-133 -135h-193z" />
    <glyph glyph-name="Otilde" unicode="&#xd5;" horiz-adv-x="1409" 
d="M98 547q0 188 67.5 367.5t190.5 295.5q199 193 486 193q262 0 401 -161t139 -411q0 -188 -65.5 -364t-181.5 -293q-201 -197 -492 -197h-2q-258 0 -400.5 163t-142.5 407zM350 559q0 -170 80 -275.5t244 -105.5h2q156 0 268 117q86 86 136 237.5t50 290.5q0 74 -14 137.5
t-48 120t-99.5 89t-155.5 32.5q-156 0 -274 -119q-86 -88 -137.5 -236.5t-51.5 -287.5zM600 1466q18 111 68.5 172.5t117.5 61.5q59 0 127 -41q57 -39 86 -39q43 0 70 86h121q-37 -227 -191 -227q-66 0 -125 39q-63 37 -86 36q-43 0 -65 -88h-123z" />
    <glyph glyph-name="Odieresis" unicode="&#xd6;" horiz-adv-x="1409" 
d="M98 547q0 188 67.5 367.5t190.5 295.5q199 193 486 193q262 0 401 -161t139 -411q0 -188 -65.5 -364t-181.5 -293q-201 -197 -492 -197h-2q-258 0 -400.5 163t-142.5 407zM350 559q0 -170 80 -275.5t244 -105.5h2q156 0 268 117q86 86 136 237.5t50 290.5q0 74 -14 137.5
t-48 120t-99.5 89t-155.5 32.5q-156 0 -274 -119q-86 -88 -137.5 -236.5t-51.5 -287.5zM571 1581q0 55 39 93t92 38q51 0 83 -35t32 -82q0 -55 -38 -93t-91 -38h-2q-47 0 -81 34t-34 83zM975 1581q0 55 39 93t92 38q51 0 83 -35t32 -82q0 -55 -38 -93t-91 -38h-2
q-47 0 -81 34t-34 83z" />
    <glyph glyph-name="multiply" unicode="&#xd7;" 
d="M98 963l113 114l403 -428l406 428l113 -112l-408 -426l408 -422l-115 -117l-406 428l-403 -428l-109 117l404 422z" />
    <glyph glyph-name="Oslash" unicode="&#xd8;" horiz-adv-x="1404" 
d="M57 -6l154 180q-115 154 -115 385q0 182 65.5 351t184.5 288q205 205 485 205q205 0 330 -100l154 178l125 -101l-162 -188q102 -143 102 -365q0 -184 -65.5 -357t-177.5 -290q-94 -96 -222.5 -149.5t-263.5 -53.5q-197 0 -317 97l-162 -189zM375 375h6l639 755
q-74 74 -205 74q-150 0 -268.5 -111.5t-169.5 -279.5q-74 -229 -2 -438zM475 244q70 -68 201 -68q139 0 251.5 102.5t168.5 268.5q76 227 12 434h-6z" />
    <glyph glyph-name="Ugrave" unicode="&#xd9;" horiz-adv-x="1308" 
d="M139 401q0 78 19 193l149 786h240l-154 -805q-16 -86 -16 -167q0 -106 59.5 -168t165.5 -62q268 0 342 395l154 807h239l-153 -802q-59 -311 -208 -456t-405 -145q-201 -2 -316.5 105.5t-115.5 318.5zM539 1704h272l156 -248h-197z" />
    <glyph glyph-name="Uacute" unicode="&#xda;" horiz-adv-x="1308" 
d="M139 401q0 78 19 193l149 786h240l-154 -805q-16 -86 -16 -167q0 -106 59.5 -168t165.5 -62q268 0 342 395l154 807h239l-153 -802q-59 -311 -208 -456t-405 -145q-201 -2 -316.5 105.5t-115.5 318.5zM690 1454l201 250h280l-274 -250h-207z" />
    <glyph glyph-name="Ucircumflex" unicode="&#xdb;" horiz-adv-x="1308" 
d="M139 401q0 78 19 193l149 786h240l-154 -805q-16 -86 -16 -167q0 -106 59.5 -168t165.5 -62q268 0 342 395l154 807h239l-153 -802q-59 -311 -208 -456t-405 -145q-201 -2 -316.5 105.5t-115.5 318.5zM541 1454l250 250h182l164 -250h-176l-91 135h-4l-133 -135h-192z
" />
    <glyph glyph-name="Udieresis" unicode="&#xdc;" horiz-adv-x="1308" 
d="M139 401q0 78 19 193l149 786h240l-154 -805q-16 -86 -16 -167q0 -106 59.5 -168t165.5 -62q268 0 342 395l154 807h239l-153 -802q-59 -311 -208 -456t-405 -145q-201 -2 -316.5 105.5t-115.5 318.5zM528 1581q0 55 39 93t92 38q51 0 83 -35t32 -82q0 -55 -38 -93
t-91 -38h-2q-47 0 -81 34t-34 83zM932 1581q0 55 39 93t92 38q51 0 83 -35t32 -82q0 -55 -38 -93t-91 -38h-2q-47 0 -81 34t-34 83z" />
    <glyph glyph-name="Yacute" unicode="&#xdd;" horiz-adv-x="1118" 
d="M156 1380h256l108 -393q41 -168 55 -242h5q61 109 143 246l250 389h282l-591 -809l-109 -571h-240l109 567zM582 1454l200 250h281l-275 -250h-206z" />
    <glyph glyph-name="Thorn" unicode="&#xde;" horiz-adv-x="1095" 
d="M49 0l262 1380h234l-49 -258q66 10 149 11q211 0 320 -101q109 -96 108 -250q0 -242 -170 -370.5t-418 -128.5q-84 0 -145 10l-57 -293h-234zM377 487q61 -10 129 -10q137 0 232.5 76t95.5 197q0 96 -64.5 144t-177.5 48q-80 0 -133 -12z" />
    <glyph glyph-name="germandbls" unicode="&#xdf;" horiz-adv-x="1148" 
d="M41 0l176 930q106 547 547 547q158 0 257 -87t99 -227q0 -129 -84 -213q-158 -70 -157 -176q0 -68 65 -160q96 -139 96 -262q0 -180 -118.5 -277.5t-303.5 -97.5q-135 0 -215 48l58 176q68 -37 153 -37q82 0 132.5 44t50.5 118q0 72 -66 166q-98 141 -98 235t60.5 169
t152.5 120q39 47 39 123q0 61 -39 103t-113 42q-98 0 -169.5 -84t-104.5 -252l-180 -948h-238z" />
    <glyph glyph-name="agrave" unicode="&#xe0;" horiz-adv-x="1105" 
d="M57 317q0 131 45 254t130 224.5t222.5 163t305.5 61.5q162 0 301 -45l-103 -520q-47 -248 -40 -455h-222q4 100 19 223h-6q-133 -246 -357 -246q-133 0 -214 94t-81 246zM305 360q0 -190 144 -190q88 0 174 106.5t118 286.5l52 262q-37 10 -97 11q-160 0 -275.5 -149
t-115.5 -327zM436 1421h244l145 -303h-172z" />
    <glyph glyph-name="aacute" unicode="&#xe1;" horiz-adv-x="1105" 
d="M57 317q0 131 45 254t130 224.5t222.5 163t305.5 61.5q162 0 301 -45l-103 -520q-47 -248 -40 -455h-222q4 100 19 223h-6q-133 -246 -357 -246q-133 0 -214 94t-81 246zM305 360q0 -190 144 -190q88 0 174 106.5t118 286.5l52 262q-37 10 -97 11q-160 0 -275.5 -149
t-115.5 -327zM608 1118l197 303h252l-269 -303h-180z" />
    <glyph glyph-name="acircumflex" unicode="&#xe2;" horiz-adv-x="1105" 
d="M57 317q0 131 45 254t130 224.5t222.5 163t305.5 61.5q162 0 301 -45l-103 -520q-47 -248 -40 -455h-222q4 100 19 223h-6q-133 -246 -357 -246q-133 0 -214 94t-81 246zM305 360q0 -190 144 -190q88 0 174 106.5t118 286.5l52 262q-37 10 -97 11q-160 0 -275.5 -149
t-115.5 -327zM432 1118l244 303h166l147 -303h-162l-84 172h-4l-131 -172h-176z" />
    <glyph glyph-name="atilde" unicode="&#xe3;" horiz-adv-x="1105" 
d="M57 317q0 131 45 254t130 224.5t222.5 163t305.5 61.5q162 0 301 -45l-103 -520q-47 -248 -40 -455h-222q4 100 19 223h-6q-133 -246 -357 -246q-133 0 -214 94t-81 246zM305 360q0 -190 144 -190q88 0 174 106.5t118 286.5l52 262q-37 10 -97 11q-160 0 -275.5 -149
t-115.5 -327zM428 1153q14 109 60.5 171t117.5 62q53 0 127 -43q57 -37 80 -36q25 0 38 18t26 70h120q-33 -227 -180 -228q-61 0 -127 41q-47 37 -80 37q-41 0 -59 -92h-123z" />
    <glyph glyph-name="adieresis" unicode="&#xe4;" horiz-adv-x="1105" 
d="M57 317q0 131 45 254t130 224.5t222.5 163t305.5 61.5q162 0 301 -45l-103 -520q-47 -248 -40 -455h-222q4 100 19 223h-6q-133 -246 -357 -246q-133 0 -214 94t-81 246zM305 360q0 -190 144 -190q88 0 174 106.5t118 286.5l52 262q-37 10 -97 11q-160 0 -275.5 -149
t-115.5 -327zM383 1268q0 59 39 97t94 38q53 0 85 -35t32 -86q0 -57 -38 -95t-93 -38h-2q-49 0 -83 33t-34 86zM782 1268q0 59 39 97t94 38q53 0 85 -35t32 -86q0 -57 -38 -95t-93 -38h-2q-49 0 -83 33t-34 86z" />
    <glyph glyph-name="aring" unicode="&#xe5;" horiz-adv-x="1105" 
d="M57 317q0 131 45 254t130 224.5t222.5 163t305.5 61.5q162 0 301 -45l-103 -520q-47 -248 -40 -455h-222q4 100 19 223h-6q-133 -246 -357 -246q-133 0 -214 94t-81 246zM305 360q0 -190 144 -190q88 0 174 106.5t118 286.5l52 262q-37 10 -97 11q-160 0 -275.5 -149
t-115.5 -327zM489 1280q-2 94 65 152.5t169 58.5h2q90 0 148.5 -50t58.5 -138q-2 -94 -69.5 -149.5t-166.5 -55.5q-86 0 -145.5 50t-61.5 132zM612 1288q0 -41 26 -70.5t67 -29.5q47 0 75.5 32.5t28.5 79.5q0 43 -25.5 72t-68.5 29h-2q-45 0 -73 -32t-28 -81z" />
    <glyph glyph-name="ae" unicode="&#xe6;" horiz-adv-x="1521" 
d="M10 244q0 135 94.5 229t236.5 134t314 36l4 31q12 61 -30.5 117.5t-143.5 56.5q-137 0 -270 -84l-41 154q160 102 340 102q238 0 291 -182h6q59 86 155.5 134t207.5 48q152 0 233.5 -77t81.5 -181q0 -102 -50 -171t-145.5 -100.5t-205 -42t-254.5 -4.5q-14 -104 14 -170
q59 -109 217 -108q131 0 278 65l15 -170q-143 -84 -348 -84q-115 0 -203 51.5t-125 145.5h-6q-133 -197 -375 -197q-133 0 -212 76t-79 191zM250 281q0 -55 33.5 -87t93.5 -32q82 0 148.5 58.5t84.5 162.5l19 100q-59 2 -118.5 -6t-122 -27.5t-100.5 -63.5t-38 -105z
M862 612q188 -8 291.5 16.5t103.5 110.5v2q0 41 -33.5 72t-93.5 31q-104 0 -176 -74t-92 -158z" />
    <glyph glyph-name="ccedilla" unicode="&#xe7;" horiz-adv-x="878" 
d="M61 379q0 266 180.5 453.5t452.5 187.5q123 0 205 -39l-61 -184q-74 31 -152 30q-164 0 -269.5 -128t-105.5 -293q0 -111 59.5 -172.5t159.5 -61.5q98 0 211 47l11 -182q-109 -47 -207 -53l-58 -78q53 -12 86 -50t33 -87q0 -90 -71.5 -138.5t-163.5 -48.5q-102 0 -156 39
l45 105q49 -31 111 -31q33 0 56.5 16.5t23.5 46.5q0 66 -142 78l103 148q-170 14 -260.5 123.5t-90.5 271.5z" />
    <glyph glyph-name="egrave" unicode="&#xe8;" horiz-adv-x="980" 
d="M63 391q0 240 160 434.5t404 194.5q147 0 234 -77t87 -204q0 -344 -653 -329q-4 -78 27 -142q57 -100 204.5 -100t274.5 65l22 -174q-154 -80 -352 -79q-201 0 -304.5 111.5t-103.5 299.5zM319 588q199 -2 301.5 31.5t102.5 117.5v2q0 47 -35 75t-92 28q-102 0 -177 -77
t-100 -177zM362 1421h244l146 -303h-172z" />
    <glyph glyph-name="eacute" unicode="&#xe9;" horiz-adv-x="980" 
d="M63 391q0 240 160 434.5t404 194.5q147 0 234 -77t87 -204q0 -344 -653 -329q-4 -78 27 -142q57 -100 204.5 -100t274.5 65l22 -174q-154 -80 -352 -79q-201 0 -304.5 111.5t-103.5 299.5zM319 588q199 -2 301.5 31.5t102.5 117.5v2q0 47 -35 75t-92 28q-102 0 -177 -77
t-100 -177zM522 1118l197 303h252l-269 -303h-180z" />
    <glyph glyph-name="ecircumflex" unicode="&#xea;" horiz-adv-x="980" 
d="M63 391q0 240 160 434.5t404 194.5q147 0 234 -77t87 -204q0 -344 -653 -329q-4 -78 27 -142q57 -100 204.5 -100t274.5 65l22 -174q-154 -80 -352 -79q-201 0 -304.5 111.5t-103.5 299.5zM319 588q199 -2 301.5 31.5t102.5 117.5v2q0 47 -35 75t-92 28q-102 0 -177 -77
t-100 -177zM354 1118l244 303h166l147 -303h-161l-84 172h-4l-132 -172h-176z" />
    <glyph glyph-name="edieresis" unicode="&#xeb;" horiz-adv-x="980" 
d="M63 391q0 240 160 434.5t404 194.5q147 0 234 -77t87 -204q0 -344 -653 -329q-4 -78 27 -142q57 -100 204.5 -100t274.5 65l22 -174q-154 -80 -352 -79q-201 0 -304.5 111.5t-103.5 299.5zM319 588q199 -2 301.5 31.5t102.5 117.5v2q0 47 -35 75t-92 28q-102 0 -177 -77
t-100 -177zM338 1268q0 59 39 97t94 38q53 0 85 -35t32 -86q0 -57 -38 -95t-93 -38h-2q-49 0 -83 33t-34 86zM737 1268q0 59 39 97t94 38q53 0 85 -35t32 -86q0 -57 -38 -95t-93 -38h-2q-49 0 -83 33t-34 86z" />
    <glyph glyph-name="igrave" unicode="&#xec;" horiz-adv-x="509" 
d="M41 0l190 997h238l-190 -997h-238zM84 1421h244l145 -303h-172z" />
    <glyph glyph-name="iacute" unicode="&#xed;" horiz-adv-x="509" 
d="M41 0l190 997h238l-190 -997h-238zM258 1118l197 303h252l-269 -303h-180z" />
    <glyph glyph-name="icircumflex" unicode="&#xee;" horiz-adv-x="509" 
d="M41 0l190 997h238l-190 -997h-238zM88 1118l244 303h166l147 -303h-162l-84 172h-4l-131 -172h-176z" />
    <glyph glyph-name="idieresis" unicode="&#xef;" horiz-adv-x="509" 
d="M41 0l190 997h238l-190 -997h-238zM74 1268q0 59 39 97t94 38q53 0 85 -35t32 -86q0 -57 -38 -95t-93 -38h-3q-49 0 -82.5 33t-33.5 86zM473 1268q0 59 39 97t94 38q53 0 85 -35t32 -86q0 -57 -38 -95t-93 -38h-2q-49 0 -83 33t-34 86z" />
    <glyph glyph-name="eth" unicode="&#xf0;" horiz-adv-x="1103" 
d="M59 389q0 240 153 413t376 177q119 4 186 -70l4 4q-51 137 -145 228l-314 -135l-36 106l254 111q-66 57 -177 112l111 135q137 -55 272 -163l281 120l41 -106l-229 -98q207 -213 206 -541q0 -311 -162.5 -508t-406.5 -197q-197 0 -305.5 118t-108.5 294zM305 387
q0 -96 49 -160.5t138 -64.5h2q127 0 208.5 126t85.5 292q4 94 -22 143q-51 82 -160 82q-129 0 -215 -131t-86 -287z" />
    <glyph glyph-name="ntilde" unicode="&#xf1;" horiz-adv-x="1126" 
d="M41 0l129 688q23 111 51 309h213l-22 -178h4q139 201 358 201q113 0 183.5 -69.5t70.5 -205.5q0 -76 -18 -163l-109 -582h-239l106 563q12 74 12 119q0 143 -125 143q-86 0 -172 -99t-116 -265l-86 -461h-240zM414 1153q14 109 60 171t118 62q53 0 127 -43q57 -37 80 -36
q25 0 38 18t25 70h121q-33 -227 -180 -228q-61 0 -127 41q-47 37 -80 37q-41 0 -59 -92h-123z" />
    <glyph glyph-name="ograve" unicode="&#xf2;" horiz-adv-x="1112" 
d="M66 389q0 260 162.5 445.5t412.5 185.5q193 0 300.5 -119t107.5 -293q0 -260 -163 -445.5t-411 -185.5h-2q-186 0 -296.5 116t-110.5 296zM311 395q0 -104 51.5 -168.5t141.5 -64.5h2q127 0 212 141t85 303q0 90 -46 160t-145 70q-133 0 -217 -142.5t-84 -298.5z
M379 1421h244l145 -303h-172z" />
    <glyph glyph-name="oacute" unicode="&#xf3;" horiz-adv-x="1112" 
d="M66 389q0 260 162.5 445.5t412.5 185.5q193 0 300.5 -119t107.5 -293q0 -260 -163 -445.5t-411 -185.5h-2q-186 0 -296.5 116t-110.5 296zM311 395q0 -104 51.5 -168.5t141.5 -64.5h2q127 0 212 141t85 303q0 90 -46 160t-145 70q-133 0 -217 -142.5t-84 -298.5z
M545 1118l196 303h252l-268 -303h-180z" />
    <glyph glyph-name="ocircumflex" unicode="&#xf4;" horiz-adv-x="1112" 
d="M66 389q0 260 162.5 445.5t412.5 185.5q193 0 300.5 -119t107.5 -293q0 -260 -163 -445.5t-411 -185.5h-2q-186 0 -296.5 116t-110.5 296zM311 395q0 -104 51.5 -168.5t141.5 -64.5h2q127 0 212 141t85 303q0 90 -46 160t-145 70q-133 0 -217 -142.5t-84 -298.5z
M389 1118l244 303h166l147 -303h-162l-84 172h-4l-131 -172h-176z" />
    <glyph glyph-name="otilde" unicode="&#xf5;" horiz-adv-x="1112" 
d="M66 389q0 260 162.5 445.5t412.5 185.5q193 0 300.5 -119t107.5 -293q0 -260 -163 -445.5t-411 -185.5h-2q-186 0 -296.5 116t-110.5 296zM311 395q0 -104 51.5 -168.5t141.5 -64.5h2q127 0 212 141t85 303q0 90 -46 160t-145 70q-133 0 -217 -142.5t-84 -298.5z
M385 1153q14 109 60.5 171t117.5 62q53 0 127 -43q57 -37 80 -36q25 0 38 18t26 70h120q-33 -227 -180 -228q-61 0 -127 41q-47 37 -80 37q-41 0 -59 -92h-123z" />
    <glyph glyph-name="odieresis" unicode="&#xf6;" horiz-adv-x="1112" 
d="M66 389q0 260 162.5 445.5t412.5 185.5q193 0 300.5 -119t107.5 -293q0 -260 -163 -445.5t-411 -185.5h-2q-186 0 -296.5 116t-110.5 296zM311 395q0 -104 51.5 -168.5t141.5 -64.5h2q127 0 212 141t85 303q0 90 -46 160t-145 70q-133 0 -217 -142.5t-84 -298.5z
M369 1268q0 59 38.5 97t94.5 38q53 0 84.5 -35t31.5 -86q0 -57 -37.5 -95t-93.5 -38h-2q-49 0 -82.5 33t-33.5 86zM768 1268q0 59 39 97t94 38q53 0 85 -35t32 -86q0 -57 -38 -95t-93 -38h-2q-49 0 -83 33t-34 86z" />
    <glyph glyph-name="divide" unicode="&#xf7;" 
d="M100 467v160h1037v-160h-1037zM487 188.5q0 59.5 37 97.5t94 38q59 0 94.5 -37t37.5 -99q0 -59 -36 -97t-96 -38h-2q-57 0 -93 38t-36 97.5zM487 905.5q0 59.5 37 97t94 37.5q59 0 94.5 -36.5t37.5 -98.5q0 -59 -36 -97t-96 -38h-2q-57 0 -93 38t-36 97.5z" />
    <glyph glyph-name="oslash" unicode="&#xf8;" horiz-adv-x="1112" 
d="M39 -25l121 142q-94 106 -94 282q0 254 163.5 437.5t409.5 183.5q137 0 233 -64l119 136l80 -70l-117 -137q96 -115 97 -277q0 -270 -165 -450.5t-394 -180.5q-158 0 -252 70l-127 -145zM309 434q0 -78 21 -123l4 -2l401 488q-43 47 -127 47q-129 0 -213 -135.5
t-86 -274.5zM377 205q51 -51 133 -51q121 0 208 130t89 279q0 63 -19 123h-6z" />
    <glyph glyph-name="ugrave" unicode="&#xf9;" horiz-adv-x="1116" 
d="M92 260q0 82 21 178l106 559h238l-103 -544q-16 -78 -16 -138q0 -141 127 -141q86 0 167 94t111 244l91 485h239l-131 -688q-20 -106 -49 -309h-213l22 174h-4q-147 -197 -346 -197q-117 0 -188.5 69t-71.5 214zM381 1421h244l145 -303h-172z" />
    <glyph glyph-name="uacute" unicode="&#xfa;" horiz-adv-x="1116" 
d="M92 260q0 82 21 178l106 559h238l-103 -544q-16 -78 -16 -138q0 -141 127 -141q86 0 167 94t111 244l91 485h239l-131 -688q-20 -106 -49 -309h-213l22 174h-4q-147 -197 -346 -197q-117 0 -188.5 69t-71.5 214zM543 1118l196 303h252l-268 -303h-180z" />
    <glyph glyph-name="ucircumflex" unicode="&#xfb;" horiz-adv-x="1116" 
d="M92 260q0 82 21 178l106 559h238l-103 -544q-16 -78 -16 -138q0 -141 127 -141q86 0 167 94t111 244l91 485h239l-131 -688q-20 -106 -49 -309h-213l22 174h-4q-147 -197 -346 -197q-117 0 -188.5 69t-71.5 214zM397 1118l244 303h166l147 -303h-161l-84 172h-4
l-132 -172h-176z" />
    <glyph glyph-name="udieresis" unicode="&#xfc;" horiz-adv-x="1116" 
d="M92 260q0 82 21 178l106 559h238l-103 -544q-16 -78 -16 -138q0 -141 127 -141q86 0 167 94t111 244l91 485h239l-131 -688q-20 -106 -49 -309h-213l22 174h-4q-147 -197 -346 -197q-117 0 -188.5 69t-71.5 214zM367 1268q0 59 38.5 97t94.5 38q53 0 84.5 -35t31.5 -86
q0 -57 -37.5 -95t-93.5 -38h-2q-49 0 -82.5 33t-33.5 86zM766 1268q0 59 39 97t94 38q53 0 85 -35t32 -86q0 -57 -38 -95t-93 -38h-2q-49 0 -83 33t-34 86z" />
    <glyph glyph-name="yacute" unicode="&#xfd;" horiz-adv-x="966" 
d="M-66 -254q117 43 177 88q109 76 176 199q10 18 4 45l-199 919h250l78 -479q31 -178 39 -250h4q80 201 96 238l213 491h254l-364 -735q-190 -379 -365 -549q-145 -139 -307 -172zM471 1118l197 303h252l-269 -303h-180z" />
    <glyph glyph-name="thorn" unicode="&#xfe;" horiz-adv-x="1120" 
d="M-43 -406l338 1786h237l-102 -530h4q117 170 309 170q154 0 236 -105.5t82 -265.5q-2 -274 -169 -473t-411 -199q-127 0 -200 43h-7l-79 -426h-238zM311 211q63 -49 162 -49q135 0 235.5 145.5t100.5 321.5q0 80 -38 138t-116 58q-94 0 -180 -99t-119 -277z" />
    <glyph glyph-name="ydieresis" unicode="&#xff;" horiz-adv-x="966" 
d="M-66 -254q117 43 177 88q109 76 176 199q10 18 4 45l-199 919h250l78 -479q31 -178 39 -250h4q80 201 96 238l213 491h254l-364 -735q-190 -379 -365 -549q-145 -139 -307 -172zM281 1268q0 59 38.5 97t94.5 38q53 0 84.5 -35t31.5 -86q0 -57 -37.5 -95t-93.5 -38h-2
q-49 0 -82.5 33t-33.5 86zM680 1268q0 59 39 97t94 38q53 0 85 -35t32 -86q0 -57 -38 -95t-93 -38h-2q-49 0 -83 33t-34 86z" />
    <glyph glyph-name="Aogonek" unicode="&#x104;" 
d="M-57 0l692 1380h297l174 -1380h-111q-90 -113 -90 -193q0 -82 84 -81q47 0 92 18l19 -121q-74 -59 -193 -59q-86 0 -134 46t-48 126q0 106 131 270l-39 387h-432l-188 -393h-254zM461 578h344l-39 342q-8 109 -21 264h-6q-96 -231 -110 -262z" />
    <glyph glyph-name="aogonek" unicode="&#x105;" horiz-adv-x="1105" 
d="M59 315q0 131 45.5 255t130 225.5t222 163t305.5 61.5q162 0 301 -45l-100 -520q-47 -250 -41 -455h-64q-109 -113 -108 -201q0 -33 21.5 -53t55.5 -20q57 0 99 18l20 -121q-78 -59 -194 -59q-86 0 -134.5 46t-48.5 126q0 106 131 270q2 49 19 217h-6
q-135 -246 -359 -246q-133 0 -214 94t-81 244zM307 360q0 -190 144 -190q88 0 175 106.5t119 286.5l50 262q-41 10 -97 11q-160 0 -275.5 -149t-115.5 -327z" />
    <glyph glyph-name="Cacute" unicode="&#x106;" horiz-adv-x="1169" 
d="M100 557q0 213 86 390t238 290q217 164 514 164q205 0 301 -62l-70 -192q-90 49 -260 49q-209 0 -350 -129q-94 -82 -147.5 -207t-53.5 -272q0 -184 97.5 -295t294.5 -111q164 0 276 51l23 -192q-139 -61 -361 -61q-270 0 -429 154.5t-159 422.5zM725 1462l201 250h280
l-274 -250h-207z" />
    <glyph glyph-name="cacute" unicode="&#x107;" horiz-adv-x="880" 
d="M63 379q0 266 180.5 453.5t452.5 187.5q123 0 205 -39l-61 -184q-70 31 -152 30q-164 0 -269.5 -128t-105.5 -293q0 -111 59.5 -172.5t159.5 -61.5q109 0 211 47l11 -182q-119 -57 -287 -57q-186 0 -295 109.5t-109 289.5zM500 1118l196 303h252l-268 -303h-180z" />
    <glyph glyph-name="Eogonek" unicode="&#x118;" horiz-adv-x="1015" 
d="M51 0l262 1380h766l-41 -202h-524l-70 -363h496l-39 -201h-495l-78 -411h559l-39 -203h-37q-74 -49 -120 -108.5t-46 -108.5q0 -61 62 -62q47 0 92 21l30 -121q-80 -59 -194 -59q-82 0 -129 43t-47 114q0 78 54 154t128 127h-590z" />
    <glyph glyph-name="eogonek" unicode="&#x119;" horiz-adv-x="980" 
d="M63 391q0 240 160 434.5t404 194.5q147 0 234 -77t87 -204q0 -344 -653 -329q-10 -80 27 -142q59 -102 204 -102q147 0 275 65l22 -174q-12 -6 -98 -43q-199 -115 -199 -217q0 -66 62 -65q45 0 94 20l27 -123q-90 -55 -199 -55q-82 0 -126 43t-44 115q0 135 154 245v3
h-54q-186 8 -281.5 118.5t-95.5 292.5zM319 588q199 -2 301.5 31.5t102.5 117.5v2q0 47 -35 75t-92 28q-104 0 -178 -77t-99 -177z" />
    <glyph glyph-name="dotlessi" unicode="&#x131;" horiz-adv-x="509" 
d="M41 0l190 997h238l-190 -997h-238z" />
    <glyph glyph-name="Lslash" unicode="&#x141;" horiz-adv-x="974" 
d="M-16 399l36 181l181 114l131 686h237l-98 -518l287 180l-35 -182l-287 -180l-88 -471h541l-39 -209h-780l96 514z" />
    <glyph glyph-name="lslash" unicode="&#x142;" horiz-adv-x="532" 
d="M0 412l35 184l153 106l144 752h237l-108 -563l164 113l-35 -185l-164 -114l-135 -705h-238l99 518z" />
    <glyph glyph-name="Nacute" unicode="&#x143;" horiz-adv-x="1333" 
d="M49 0l262 1380h275l241 -641q72 -201 123 -432h6q8 180 62 467l115 606h223l-262 -1380h-244l-248 653q-90 258 -131 445l-6 -2q-18 -176 -82 -506l-111 -590h-223zM705 1454l200 250h281l-275 -250h-206z" />
    <glyph glyph-name="nacute" unicode="&#x144;" horiz-adv-x="1126" 
d="M41 0l129 688q23 111 51 309h213l-22 -178h4q139 201 358 201q113 0 183.5 -69.5t70.5 -205.5q0 -76 -18 -163l-109 -582h-239l106 563q12 74 12 119q0 143 -125 143q-86 0 -172 -99t-116 -265l-86 -461h-240zM569 1118l197 303h252l-268 -303h-181z" />
    <glyph glyph-name="OE" unicode="&#x152;" horiz-adv-x="1822" 
d="M90 565q0 223 95.5 410.5t290 305.5t452.5 118q51 0 170 -10q115 -8 139 -9h645l-39 -202h-536l-68 -363h506l-39 -201h-506l-78 -411h568l-37 -203h-701q-27 0 -116 -8q-59 -10 -158 -10q-281 0 -434.5 163.5t-153.5 419.5zM344 582q0 -178 100.5 -289t292.5 -111
q70 0 146 17l184 981q-51 18 -156 18q-256 0 -411.5 -180t-155.5 -436z" />
    <glyph glyph-name="oe" unicode="&#x153;" horiz-adv-x="1667" 
d="M63 399q0 258 157 439.5t386 181.5q121 0 206 -54.5t122 -152.5h4q66 98 168 152.5t217 54.5q152 0 231.5 -80t79.5 -186q0 -84 -37.5 -145.5t-97 -98.5t-147.5 -58.5t-173 -27.5t-190 -6q-12 -80 25 -148q59 -102 209 -102q131 0 266 63l20 -170q-143 -84 -340 -84
q-252 0 -333 203h-7q-129 -203 -374 -203q-174 0 -283 117t-109 305zM309 406q0 -106 51.5 -174t137.5 -68h2q129 0 211 144.5t82 295.5q0 100 -43 167t-142 67q-133 0 -216 -136t-83 -296zM1016 594q180 -2 287.5 26.5t107.5 114.5v2q0 45 -35 75t-100 30q-96 0 -164.5 -75
t-95.5 -173z" />
    <glyph glyph-name="Sacute" unicode="&#x15a;" horiz-adv-x="1003" 
d="M10 76l82 196q137 -88 311 -88q106 0 180 54.5t74 150.5q0 66 -45 117t-147 106q-281 152 -281 361q0 193 146.5 310.5t361.5 117.5q190 0 307 -70l-77 -196q-117 63 -250 61q-109 0 -173.5 -53t-64.5 -127q0 -66 49 -115t158 -108q268 -141 268 -367
q0 -205 -149.5 -325.5t-382.5 -120.5q-119 2 -217.5 29.5t-149.5 66.5zM537 1454l200 250h281l-275 -250h-206z" />
    <glyph glyph-name="sacute" unicode="&#x15b;" horiz-adv-x="813" 
d="M4 53l62 170q117 -66 239 -65q70 0 112 34.5t42 88.5q0 47 -29 80.5t-102 72.5q-197 102 -197 258q0 143 113.5 235.5t290.5 92.5q150 0 235 -51l-61 -172q-82 45 -187 45q-68 0 -109.5 -32t-41.5 -83q0 -70 129 -139q207 -106 207 -266q0 -162 -119 -253.5t-305 -88.5
q-183 3 -279 73zM385 1118l197 303h252l-269 -303h-180z" />
    <glyph glyph-name="Ydieresis" unicode="&#x178;" horiz-adv-x="1118" 
d="M156 1380h256l108 -393q41 -168 55 -242h5q61 109 143 246l250 389h282l-591 -809l-109 -571h-240l109 567zM408 1581q0 55 38.5 93t92.5 38q51 0 82.5 -35t31.5 -82q0 -55 -37.5 -93t-91.5 -38h-2q-47 0 -80.5 34t-33.5 83zM811 1581q0 55 39 93t92 38q51 0 83 -35
t32 -82q0 -55 -38 -93t-91 -38h-2q-47 0 -81 34t-34 83z" />
    <glyph glyph-name="Zacute" unicode="&#x179;" horiz-adv-x="1105" 
d="M-47 0l27 141l862 1028v7h-604l38 204h926l-28 -149l-852 -1020l2 -6h665l-39 -205h-997zM608 1454l201 250h281l-275 -250h-207z" />
    <glyph glyph-name="zacute" unicode="&#x17a;" horiz-adv-x="888" 
d="M-49 0l26 145l396 433q115 123 227 219l2 6h-465l39 194h750l-29 -153l-389 -424q-117 -129 -225 -219v-6h503l-36 -195h-799zM442 1118l197 303h252l-268 -303h-181z" />
    <glyph glyph-name="Zdotaccent" unicode="&#x17b;" horiz-adv-x="1105" 
d="M-47 0l27 141l862 1028v7h-604l38 204h926l-28 -149l-852 -1020l2 -6h665l-39 -205h-997zM629 1581q0 57 39 95t94 38q51 0 84 -34.5t33 -84.5q0 -55 -38 -93t-93 -38h-3q-47 0 -81.5 34t-34.5 83z" />
    <glyph glyph-name="zdotaccent" unicode="&#x17c;" horiz-adv-x="888" 
d="M-49 0l26 145l396 433q115 123 227 219l2 6h-465l39 194h750l-29 -153l-389 -424q-117 -129 -225 -219v-6h503l-36 -195h-799zM465 1268q0 59 39 97t94 38q53 0 86 -35t33 -86q0 -59 -38 -97t-95 -38h-2q-49 0 -83 34t-34 87z" />
    <glyph glyph-name="florin" unicode="&#x192;" horiz-adv-x="1062" 
d="M-31 -141l51 170q45 -23 109 -23q70 0 118 72t89 241l82 338h-170l26 174h185l20 82q20 82 47 145.5t77 137.5t134 116t193 42q100 -2 151 -35l-61 -174q-49 23 -105 22q-147 0 -204 -249l-21 -87h221l-26 -174h-236l-98 -399q-51 -211 -145.5 -324.5t-268.5 -113.5
q-107 0 -168 39z" />
    <glyph glyph-name="circumflex" unicode="&#x2c6;" horiz-adv-x="796" 
d="M240 1118l243 303h166l148 -303h-162l-84 172h-4l-131 -172h-176z" />
    <glyph glyph-name="caron" unicode="&#x2c7;" horiz-adv-x="796" 
d="M295 1421h162l84 -174h6l131 174h176l-244 -303h-166z" />
    <glyph glyph-name="breve" unicode="&#x2d8;" horiz-adv-x="796" 
d="M315 1407h129q0 -127 105 -127q61 0 97 37t48 90h133q-20 -119 -96 -188.5t-192 -69.5q-131 0 -184.5 71.5t-39.5 186.5z" />
    <glyph glyph-name="dotaccent" unicode="&#x2d9;" horiz-adv-x="796" 
d="M420 1268q0 59 39 97t94 38q53 0 86 -35t33 -86q0 -59 -38 -97t-95 -38h-2q-49 0 -83 34t-34 87z" />
    <glyph glyph-name="ring" unicode="&#x2da;" horiz-adv-x="798" 
d="M330 1280q-2 94 64.5 152.5t168.5 58.5h2q90 0 148.5 -50t58.5 -138q-2 -94 -69.5 -149.5t-165.5 -55.5q-86 0 -145.5 50t-61.5 132zM453 1288q0 -41 25.5 -70.5t66.5 -29.5q47 0 75.5 32.5t28.5 79.5q0 43 -25.5 72t-68.5 29h-2q-45 0 -72.5 -32t-27.5 -81z" />
    <glyph glyph-name="ogonek" unicode="&#x2db;" horiz-adv-x="796" 
d="M121 -270q0 131 149 274h150q-119 -111 -119 -201q0 -78 82 -77q49 0 94 18l19 -121q-84 -59 -195 -59q-84 0 -132 44t-48 122z" />
    <glyph glyph-name="tilde" unicode="&#x2dc;" horiz-adv-x="796" 
d="M268 1153q14 109 60.5 171t117.5 62q53 0 127 -43q57 -37 80 -36q25 0 38.5 18t25.5 70h121q-33 -227 -181 -228q-61 0 -127 41q-47 37 -79 37q-41 0 -60 -92h-123z" />
    <glyph glyph-name="hungarumlaut" unicode="&#x2dd;" horiz-adv-x="796" 
d="M254 1116l180 303h219l-250 -303h-149zM586 1116l180 303h219l-252 -303h-147z" />
    <glyph glyph-name="uni037E" unicode="&#x37e;" horiz-adv-x="497" 
d="M-76 -248q141 313 191 531l264 8q-121 -289 -281 -522zM166 774q0 76 49 129t125 53q66 0 107.5 -44t41.5 -113q0 -78 -50 -128t-126 -50h-2q-63 0 -104 43.5t-41 109.5z" />
    <glyph glyph-name="tonos" unicode="&#x384;" horiz-adv-x="710" 
d="M389 1118l197 303h248l-269 -303h-176z" />
    <glyph glyph-name="dieresistonos" unicode="&#x385;" horiz-adv-x="808" 
d="M121 1260q0 51 34.5 85.5t86.5 34.5q47 0 75.5 -31.5t28.5 -76.5q0 -51 -33.5 -85t-83.5 -34h-2q-45 0 -75.5 30t-30.5 77zM367 1122l129 332h200l-196 -332h-133zM684 1260q0 51 35 85.5t86 34.5q47 0 75.5 -31.5t28.5 -76.5q0 -51 -33.5 -85t-82.5 -34h-2q-45 0 -76 30
t-31 77z" />
    <glyph glyph-name="Alphatonos" unicode="&#x386;" 
d="M-55 0l690 1380h299l174 -1380h-248l-41 393h-432l-188 -393h-254zM137 1042l47 338h205l-113 -338h-139zM463 578h344l-39 342q-8 82 -23 264h-4q-8 -20 -48 -117.5t-64 -144.5z" />
    <glyph glyph-name="anoteleia" unicode="&#x387;" horiz-adv-x="497" 
d="M106 635q0 76 49.5 130t125.5 54q68 0 109.5 -44t41.5 -113q0 -78 -50 -129.5t-126 -51.5h-2q-66 0 -107 43t-41 111z" />
    <glyph glyph-name="Epsilontonos" unicode="&#x388;" horiz-adv-x="1095" 
d="M18 1042l48 338h204l-112 -338h-140zM129 0l262 1380h766l-39 -202h-526l-70 -363h498l-41 -201h-494l-77 -411h557l-39 -203h-797z" />
    <glyph glyph-name="Etatonos" unicode="&#x389;" horiz-adv-x="1404" 
d="M16 1042l47 338h205l-112 -338h-140zM127 0l262 1380h238l-107 -557h561l107 557h239l-262 -1380h-239l114 612h-559l-116 -612h-238z" />
    <glyph glyph-name="Iotatonos" unicode="&#x38a;" horiz-adv-x="604" 
d="M20 1042l48 338h206l-114 -338h-140zM125 0l262 1380h240l-262 -1380h-240z" />
    <glyph glyph-name="Omicrontonos" unicode="&#x38c;" horiz-adv-x="1466" 
d="M14 1042l47 338h205l-112 -338h-140zM156 547q0 184 66.5 359t183.5 294q203 203 493 203q262 0 401.5 -161t139.5 -411q0 -184 -63.5 -358t-176.5 -291q-201 -205 -500 -205h-2q-258 0 -400 163t-142 407zM408 559q0 -170 79.5 -275.5t243.5 -105.5h2q188 0 321.5 206
t133.5 439q0 74 -14.5 137.5t-48 120t-99 89t-156.5 32.5q-131 0 -240.5 -101.5t-165.5 -248t-56 -293.5z" />
    <glyph glyph-name="Upsilontonos" unicode="&#x38e;" horiz-adv-x="1316" 
d="M-4 1042l47 338h205l-113 -338h-139zM293 1194l57 199q82 -4 172 -52.5t146 -128.5q139 -193 118 -477h13q90 283 297 475q88 80 183 128t165 55l18 -211q-141 -49 -297.5 -204t-251.5 -372q-63 -145 -88 -282l-59 -324h-240l62 326q27 152 24 274q-4 246 -90 402.5
t-229 191.5z" />
    <glyph glyph-name="Omegatonos" unicode="&#x38f;" horiz-adv-x="1499" 
d="M18 1042l48 338h206l-114 -338h-140zM35 0l33 184h280l2 11q-76 72 -128 190.5t-52 253.5q0 324 213 544t522 220q260 0 411.5 -156.5t151.5 -386.5q0 -219 -106.5 -393t-247.5 -272v-11h258l-33 -184h-548l24 150q162 100 280.5 277t118.5 407q0 160 -86 267t-243 107
q-201 0 -333 -180t-132 -430q0 -150 52 -267.5t138 -180.5l-26 -150h-549z" />
    <glyph glyph-name="iotadieresistonos" unicode="&#x390;" horiz-adv-x="509" 
d="M6 1243q0 51 34 84t83 33q45 0 73.5 -31t28.5 -74q0 -51 -32.5 -83.5t-81.5 -32.5h-2q-43 0 -73 28.5t-30 75.5zM70 160q0 47 26 184l123 653h238l-138 -721q-10 -61 5.5 -85.5t66.5 -22.5l-45 -176q-39 -14 -96 -15q-180 1 -180 183zM250 1108l127 332h203l-197 -332
h-133zM571 1243q0 51 34 84t83 33q45 0 74 -31t29 -74q0 -51 -33 -83.5t-82 -32.5h-2q-43 0 -73 28.5t-30 75.5z" />
    <glyph glyph-name="Alpha" unicode="&#x391;" 
d="M-55 0l690 1380h299l174 -1380h-248l-41 393h-432l-188 -393h-254zM463 578h344l-39 342q-8 82 -23 264h-4q-8 -20 -48 -117.5t-64 -144.5z" />
    <glyph glyph-name="Beta" unicode="&#x392;" horiz-adv-x="1132" 
d="M53 12l254 1348q154 31 332 31q215 0 332 -82q133 -82 133 -236q0 -125 -82 -214t-205 -122v-6q100 -31 160.5 -109.5t60.5 -193.5q0 -203 -178 -326q-160 -113 -487 -112q-199 -1 -320 22zM319 184q55 -6 125 -6q147 0 244.5 63.5t97.5 194.5q0 104 -75.5 153.5
t-194.5 49.5h-113zM440 815h111q137 0 222 60.5t85 164.5q0 164 -219 164q-86 0 -127 -10z" />
    <glyph glyph-name="Gamma" unicode="&#x393;" horiz-adv-x="937" 
d="M49 0l262 1380h770l-39 -202h-528l-223 -1178h-242z" />
    <glyph glyph-name="uniE000" unicode="&#x394;" horiz-adv-x="995" 
d="M0 995h995v-995h-995v995z" />
    <glyph glyph-name="uniE000" unicode="&#xe000;" horiz-adv-x="995" 
d="M0 995h995v-995h-995v995z" />
    <glyph glyph-name="Epsilon" unicode="&#x395;" horiz-adv-x="1015" 
d="M49 0l262 1380h766l-39 -202h-526l-70 -363h498l-39 -201h-495l-78 -411h557l-39 -203h-797z" />
    <glyph glyph-name="Zeta" unicode="&#x396;" horiz-adv-x="1105" 
d="M-47 0l27 141l862 1028v7h-604l38 204h926l-28 -149l-852 -1020l2 -6h665l-39 -205h-997z" />
    <glyph glyph-name="Eta" unicode="&#x397;" horiz-adv-x="1327" 
d="M51 0l262 1380h238l-107 -557h562l106 557h240l-262 -1380h-240l117 612h-561l-117 -612h-238z" />
    <glyph glyph-name="Theta" unicode="&#x398;" horiz-adv-x="1409" 
d="M98 547q0 182 66.5 358t183.5 297q201 201 494 201q262 0 401 -161t139 -411q0 -184 -63.5 -358t-177.5 -291q-199 -205 -498 -205h-2q-256 0 -399.5 163t-143.5 407zM350 559q0 -170 80 -276.5t244 -106.5h2q125 0 232.5 101.5t164.5 250t57 295.5q0 76 -14 138.5
t-48 120t-99.5 90t-157.5 32.5q-131 0 -239.5 -102.5t-165 -250t-56.5 -292.5zM489 612l31 191h479l-32 -191h-478z" />
    <glyph glyph-name="Iota" unicode="&#x399;" horiz-adv-x="524" 
d="M45 0l262 1380h238l-262 -1380h-238z" />
    <glyph glyph-name="Kappa" unicode="&#x39a;" horiz-adv-x="1138" 
d="M49 0l262 1380h236l-121 -641h6q4 4 131 158l428 483h299l-569 -596l336 -784h-260l-262 635l-156 -146l-94 -489h-236z" />
    <glyph glyph-name="Lambda" unicode="&#x39b;" 
d="M-57 0l688 1380h303l176 -1380h-254l-96 881q0 6 -19 286h-6q-49 -139 -117 -286l-415 -881h-260z" />
    <glyph glyph-name="Mu" unicode="&#x39c;" horiz-adv-x="1642" 
d="M16 0l353 1380h313l74 -645q25 -307 26 -397h9q66 174 174 395l333 647h320l-182 -1380h-232l90 649q61 387 86 506h-6q-131 -297 -229 -487l-338 -652h-186l-72 641q-23 217 -37 498h-4q-8 -39 -50 -231.5t-61 -274.5l-159 -649h-222z" />
    <glyph glyph-name="Nu" unicode="&#x39d;" horiz-adv-x="1333" 
d="M49 0l262 1380h275l241 -641q72 -201 123 -432h6q8 180 62 467l115 606h223l-262 -1380h-244l-248 653q-90 258 -131 445l-6 -2q-18 -176 -82 -506l-111 -590h-223z" />
    <glyph glyph-name="Xi" unicode="&#x39e;" horiz-adv-x="1124" 
d="M-6 0l35 203h968l-34 -203h-969zM197 612l32 199h785l-33 -199h-784zM231 1180l35 200h918l-35 -200h-918z" />
    <glyph glyph-name="Omicron" unicode="&#x39f;" horiz-adv-x="1409" 
d="M98 547q0 184 66.5 359t183.5 294q203 203 494 203q262 0 401 -161t139 -411q0 -184 -63.5 -358t-175.5 -291q-201 -205 -500 -205h-2q-258 0 -400.5 163t-142.5 407zM350 559q0 -170 80 -275.5t244 -105.5h2q188 0 321 206t133 439q0 74 -14 137.5t-48 120t-99.5 89
t-155.5 32.5q-131 0 -240.5 -101.5t-166 -248t-56.5 -293.5z" />
    <glyph glyph-name="Pi" unicode="&#x3a0;" horiz-adv-x="1308" 
d="M51 0l260 1380h1022l-260 -1380h-237l221 1180h-545l-223 -1180h-238z" />
    <glyph glyph-name="Rho" unicode="&#x3a1;" horiz-adv-x="1095" 
d="M49 0l258 1358q135 33 332 33q233 0 354 -99q127 -98 127 -274q0 -233 -176 -377q-162 -129 -432 -129q-68 0 -129 10l-100 -522h-234zM420 719q59 -12 125 -12q147 0 241.5 83.5t94.5 208.5q0 201 -240 201q-90 0 -133 -12z" />
    <glyph glyph-name="Sigma" unicode="&#x3a3;" horiz-adv-x="1120" 
d="M-33 0l23 147l534 545l-325 520l28 168h938l-35 -200h-634v-6l305 -492l-471 -471v-8h692l-33 -203h-1022z" />
    <glyph glyph-name="Tau" unicode="&#x3a4;" horiz-adv-x="1030" 
d="M135 1171l41 209h1006l-41 -209h-385l-221 -1171h-240l221 1171h-381z" />
    <glyph glyph-name="Upsilon" unicode="&#x3a5;" horiz-adv-x="1128" 
d="M109 1194l57 199q82 -4 172 -52.5t145 -128.5q139 -193 119 -477h12q90 283 297 475q88 80 183.5 128t165.5 55l18 -211q-141 -49 -298 -204t-251 -372q-63 -145 -88 -282l-59 -324h-240l61 326q27 152 25 274q-4 246 -90 402.5t-229 191.5z" />
    <glyph glyph-name="Phi" unicode="&#x3a6;" horiz-adv-x="1499" 
d="M98 584q0 172 66.5 318.5t171 236.5t224.5 140t233 50l22 109h225l-20 -109q190 -23 321.5 -163t131.5 -363q0 -168 -62.5 -310.5t-163 -233.5t-222.5 -144.5t-247 -57.5l-22 -112h-226l23 112q-195 25 -325 164.5t-130 362.5zM340 590q0 -145 68.5 -241.5t179.5 -115.5
l172 922q-150 -4 -285 -165.5t-135 -399.5zM811 233q170 10 295 171t125 397q0 150 -68.5 244t-177.5 110z" />
    <glyph glyph-name="Chi" unicode="&#x3a7;" horiz-adv-x="1120" 
d="M-74 0l527 705l-250 675h252l106 -305q39 -123 66 -221h6q68 121 135 223l207 303h285l-517 -678l269 -702h-254l-109 307q-41 106 -82 238h-4q-86 -143 -149 -242l-201 -303h-287z" />
    <glyph glyph-name="Psi" unicode="&#x3a8;" horiz-adv-x="1374" 
d="M137 801q0 63 17 162l79 417h232l-76 -399q-16 -98 -16 -152q0 -119 52 -176t161 -69l149 796h223l-149 -798q137 10 223 104t127 311l72 383h231l-80 -428q-49 -266 -206.5 -405t-399.5 -150l-74 -397h-225l76 397q-80 8 -149.5 33t-132 70t-98.5 123t-36 178z" />
    <glyph glyph-name="uni2126" unicode="&#x3a9;" horiz-adv-x="1437" 
d="M-25 0l33 184h281l2 11q-76 72 -128 190.5t-52 253.5q0 324 213 544t522 220q260 0 411.5 -156.5t151.5 -386.5q0 -219 -106.5 -393t-249.5 -272v-11h260l-33 -184h-549l25 150q162 100 280.5 277t118.5 407q0 160 -87 267t-245 107q-199 0 -331 -180t-132 -430
q0 -150 52.5 -267.5t138.5 -180.5l-27 -150h-549z" />
    <glyph glyph-name="uni2126" unicode="&#x2126;" horiz-adv-x="1437" 
d="M-25 0l33 184h281l2 11q-76 72 -128 190.5t-52 253.5q0 324 213 544t522 220q260 0 411.5 -156.5t151.5 -386.5q0 -219 -106.5 -393t-249.5 -272v-11h260l-33 -184h-549l25 150q162 100 280.5 277t118.5 407q0 160 -87 267t-245 107q-199 0 -331 -180t-132 -430
q0 -150 52.5 -267.5t138.5 -180.5l-27 -150h-549z" />
    <glyph glyph-name="Iotadieresis" unicode="&#x3aa;" horiz-adv-x="524" 
d="M45 0l262 1380h240l-262 -1380h-240zM127 1575q0 57 38 94t93 37q51 0 83 -34t32 -83q0 -57 -37 -94t-92 -37h-2q-49 0 -82 33t-33 84zM530 1575q0 57 38 94t94 37q51 0 82.5 -34t31.5 -83q0 -57 -37 -94t-92 -37h-2q-49 0 -82 33t-33 84z" />
    <glyph glyph-name="Upsilondieresis" unicode="&#x3ab;" horiz-adv-x="1128" 
d="M109 1194l57 199q82 -4 172 -52.5t145 -128.5q139 -193 119 -477h12q90 283 297 475q88 80 183.5 128t165.5 55l18 -211q-141 -49 -298 -204t-251 -372q-63 -145 -88 -282l-59 -324h-240l61 326q27 152 25 274q-4 246 -90 402.5t-229 191.5zM408 1552q0 57 37.5 94
t93.5 37q51 0 82.5 -33.5t31.5 -82.5q0 -57 -36.5 -94t-92.5 -37h-2q-49 0 -81.5 32.5t-32.5 83.5zM811 1552q0 57 38 94t93 37q51 0 83 -33.5t32 -82.5q0 -57 -37 -94t-92 -37h-2q-49 0 -82 32.5t-33 83.5z" />
    <glyph glyph-name="alphatonos" unicode="&#x3ac;" horiz-adv-x="1146" 
d="M61 348q0 283 165 477.5t360 194.5q209 0 266 -170h8q18 68 49 147h201q-27 -100 -55 -227q-70 -309 -92 -436q-33 -172 63 -168l-47 -176q-29 -12 -74 -13q-156 0 -157 195h-7q-131 -195 -350 -195q-147 0 -238.5 100.5t-91.5 270.5zM307 379q0 -94 46 -152.5t128 -58.5
q78 0 147.5 68.5t102.5 158.5q20 53 32.5 123t12.5 109q0 90 -45 149.5t-127 59.5q-115 0 -206 -139.5t-91 -315.5v-2zM559 1118l199 303h248l-269 -303h-178z" />
    <glyph glyph-name="epsilontonos" unicode="&#x3ad;" horiz-adv-x="866" 
d="M33 238q0 115 78.5 193.5t185.5 96.5l2 11q-160 43 -160 184q0 121 122 209t323 88q193 0 286 -74l-59 -151q-84 53 -217 53q-96 0 -154.5 -38t-58.5 -95q0 -113 237 -113h95l-29 -160h-106q-125 0 -205 -38.5t-80 -120.5q0 -57 57.5 -89t145.5 -32q137 0 278 61l12 -166
q-141 -80 -364 -80q-168 0 -278.5 65t-110.5 196zM420 1118l198 303h246l-268 -303h-176z" />
    <glyph glyph-name="etatonos" unicode="&#x3ae;" horiz-adv-x="1126" 
d="M39 0l131 688q39 227 29 309h209q18 -59 2 -178h4q139 201 360 201q111 0 182.5 -69.5t71.5 -205.5q0 -80 -18 -163l-117 -617q-51 -289 -45 -371h-225q-25 66 32 369l113 600q12 66 12 119q0 143 -125 143q-88 0 -174 -99t-116 -265l-86 -461h-240zM553 1118l197 303
h249l-270 -303h-176z" />
    <glyph glyph-name="iotatonos" unicode="&#x3af;" horiz-adv-x="509" 
d="M72 160q0 53 26 182l123 655h238l-137 -718q-10 -63 5 -89t66 -22l-47 -176q-35 -14 -96 -15q-178 1 -178 183zM268 1118l197 303h248l-269 -303h-176z" />
    <glyph glyph-name="upsilondieresistonos" unicode="&#x3b0;" horiz-adv-x="1064" 
d="M86 305q0 41 20 148l35 202q51 268 41 342h230q23 -47 -4 -186l-60 -332q-18 -115 -18 -135q0 -78 43 -124t104 -46q90 0 161 99.5t106.5 248t35.5 312.5q0 102 -14 163h221q27 -68 27 -182q0 -143 -35 -286.5t-101.5 -269.5t-181 -204t-256.5 -78q-160 0 -257 87
t-97 241zM231 1243q0 49 34 83t83 34q45 0 74 -31t29 -74q0 -51 -33 -83.5t-82 -32.5h-2q-43 0 -73 28.5t-30 75.5zM475 1108l127 332h203l-197 -332h-133zM795 1243q0 51 33.5 84t82.5 33q45 0 74 -31t29 -74q0 -51 -33 -83.5t-82 -32.5h-2q-43 0 -72.5 28.5t-29.5 75.5z
" />
    <glyph glyph-name="alpha" unicode="&#x3b1;" horiz-adv-x="1146" 
d="M61 348q0 283 165 477.5t360 194.5q209 0 266 -170h8q18 68 49 147h201q-27 -100 -55 -227q-70 -309 -92 -436q-33 -172 63 -168l-47 -176q-29 -12 -74 -13q-156 0 -157 195h-7q-131 -195 -350 -195q-147 0 -238.5 100.5t-91.5 270.5zM307 379q0 -94 46 -152.5t128 -58.5
q78 0 147.5 68.5t102.5 158.5q20 53 32.5 123t12.5 109q0 90 -45 149.5t-127 59.5q-115 0 -206 -139.5t-91 -315.5v-2z" />
    <glyph glyph-name="beta" unicode="&#x3b2;" horiz-adv-x="1124" 
d="M-2 -406q-25 86 29 361l170 909q63 358 231 500q131 113 307 113q150 0 240 -90.5t90 -223.5q0 -127 -63.5 -225t-163.5 -145l-2 -11q92 -25 156.5 -114.5t64.5 -214.5q0 -211 -143.5 -343.5t-325.5 -132.5q-195 0 -297 113h-4l-25 -133q-49 -264 -43 -363h-221zM324 297
q31 -57 91 -97t138 -40q106 0 183 82t77 204q0 100 -60.5 162t-158.5 70h-49l28 153q12 0 37 5q102 12 166 90t64 190q0 78 -38 125t-104 47q-190 0 -262 -381z" />
    <glyph glyph-name="gamma" unicode="&#x3b3;" horiz-adv-x="948" 
d="M37 997h262q51 -115 92 -320.5t43 -404.5h8q238 356 289 641q8 61 8 84h236q4 -35 -6 -92q-33 -178 -162 -405.5t-322 -448.5q-20 -23 -26 -55q-2 -14 -66 -402h-235q76 350 73 543q-2 197 -63 442.5t-131 417.5z" />
    <glyph glyph-name="delta" unicode="&#x3b4;" horiz-adv-x="1101" 
d="M57 406q0 209 126 357t304 222v8l-38 45q-90 100 -91 187q0 104 92.5 178t231.5 74q225 0 358 -144l-88 -141q-43 43 -109.5 77t-129.5 34q-53 0 -80 -21.5t-27 -54.5q0 -45 101 -137l10 -11l127 -123q193 -182 192 -403q0 -227 -154.5 -401.5t-396.5 -174.5
q-186 0 -307 119.5t-121 309.5zM303 414q0 -117 60.5 -188.5t152.5 -71.5q113 0 195 105.5t82 256.5q0 162 -115 275l-76 75q-125 -59 -212 -176.5t-87 -275.5z" />
    <glyph glyph-name="epsilon" unicode="&#x3b5;" horiz-adv-x="866" 
d="M31 238q0 115 78.5 193.5t187.5 96.5l2 11q-160 43 -160 184q0 121 122 209t323 88q193 0 286 -74l-59 -151q-84 53 -217 53q-96 0 -154.5 -38t-58.5 -95q0 -113 237 -113h95l-29 -160h-109q-125 0 -204.5 -38.5t-79.5 -120.5q0 -57 57.5 -89t145.5 -32q137 0 278 61
l12 -168q-139 -78 -364 -78q-168 0 -278.5 65t-110.5 196z" />
    <glyph glyph-name="zeta" unicode="&#x3b6;" horiz-adv-x="841" 
d="M68 403q0 227 173 472t398 389v8h-127q-137 0 -207 28l45 158q55 -10 254 -10h348l6 -162q-227 -121 -433 -366.5t-206 -470.5q0 -188 173 -263q74 -39 266 -67q16 -2 16 -23q0 -66 -66.5 -197.5t-136.5 -201.5l-147 49q25 33 56.5 101.5t41.5 111.5q-111 18 -194 55
q-260 108 -260 389z" />
    <glyph glyph-name="eta" unicode="&#x3b7;" horiz-adv-x="1126" 
d="M41 0l129 688q41 215 29 309h209q18 -59 2 -178h4q139 201 360 201q111 0 182.5 -69.5t71.5 -205.5q0 -80 -18 -163l-117 -617q-51 -289 -43 -371h-225q-27 57 30 369l113 600q12 66 12 119q0 143 -125 143q-88 0 -174 -99t-116 -265l-86 -461h-238z" />
    <glyph glyph-name="theta" unicode="&#x3b8;" horiz-adv-x="1101" 
d="M80 467q0 176 43 356q66 287 218.5 470.5t371.5 183.5q180 0 278.5 -129t98.5 -340q0 -143 -29 -297q-63 -328 -212 -531t-376 -203h-2q-186 0 -288.5 126t-102.5 364zM311 434q0 -135 48.5 -209.5t134.5 -74.5q221 0 315 507h-475q-23 -135 -23 -223zM367 831h475
q16 100 16 197q0 127 -44 202t-130 75q-117 0 -197.5 -133.5t-119.5 -340.5z" />
    <glyph glyph-name="iota" unicode="&#x3b9;" horiz-adv-x="509" 
d="M68 162q0 27 28 186l123 649h238l-135 -721q-12 -63 3 -87.5t66 -22.5l-45 -174q-39 -14 -96 -15q-182 1 -182 185z" />
    <glyph glyph-name="kappa" unicode="&#x3ba;" horiz-adv-x="1013" 
d="M43 0l139 750q37 182 23 247h223q29 -45 4 -180l-47 -248h10q66 66 410 428h274v-10q-166 -162 -481 -448v-7q66 -23 108 -84t97 -182l112 -266h-260l-84 203q-49 115 -90 168t-102 53h-21l-77 -424h-238z" />
    <glyph glyph-name="lambda" unicode="&#x3bb;" horiz-adv-x="937" 
d="M-78 0l490 932q20 39 20 59q0 4 -4 41q-47 248 -186 250h-33l47 182q47 8 82 6q143 -6 213 -117.5t117 -351.5l188 -1001h-244l-75 526q-18 121 -25 187l-12 2q-43 -113 -78 -191l-250 -524h-250z" />
    <glyph glyph-name="mu" unicode="&#x3bc;" horiz-adv-x="1112" 
d="M-10 -406q-18 92 35 369l194 1034h238l-109 -575q-43 -250 135 -250q61 0 117.5 53.5t93.5 126.5q27 53 35 99l105 546h237l-129 -688q-14 -82 0 -111.5t59 -33.5l-47 -174q-33 -12 -80 -13q-152 0 -157 193h-6q-106 -186 -273 -186q-125 0 -170 88l-20 -111
q-49 -254 -43 -367h-215z" />
    <glyph glyph-name="nu" unicode="&#x3bd;" horiz-adv-x="950" 
d="M66 997h253q45 -346 62 -499q18 -168 27 -260h10q256 410 307 657q8 37 12 102h232q0 -55 -6 -88q-63 -350 -502 -909h-228q-128 782 -167 997z" />
    <glyph glyph-name="xi" unicode="&#x3be;" horiz-adv-x="894" 
d="M53 377q0 168 110.5 289.5t258.5 156.5l2 11q-82 33 -131 101.5t-49 154.5q0 160 133 273.5t352 113.5q174 0 264 -66l-61 -156q-72 47 -188.5 47.5t-187.5 -63t-71 -158.5q0 -90 69 -138t187 -56q20 -2 70 -2l-29 -168h-63q-186 0 -298 -84t-112 -217q0 -184 248 -250
q102 -29 254 -47q16 -2 16 -25q0 -59 -72.5 -199.5t-129.5 -197.5l-150 51q23 33 55.5 103.5t42.5 109.5q-102 12 -188 41q-137 43 -234.5 133t-97.5 242z" />
    <glyph glyph-name="omicron" unicode="&#x3bf;" horiz-adv-x="1112" 
d="M63 389q0 260 163 445.5t415 185.5q193 0 300.5 -119t107.5 -293q0 -260 -163 -445.5t-413 -185.5h-2q-186 0 -297 116t-111 296zM309 395q0 -104 51.5 -168.5t141.5 -64.5h2q127 0 213 141t86 303q0 90 -46 160t-147 70q-133 0 -217 -142.5t-84 -298.5z" />
    <glyph glyph-name="pi" unicode="&#x3c0;" horiz-adv-x="1130" 
d="M4 0q127 209 229 612q27 104 48 199q-131 0 -197 -18l-4 139q76 66 323 65h773l-43 -186h-132l-92 -498q-39 -215 -32 -313h-228q-25 59 21 297l94 514h-254q-4 -12 -19.5 -83t-25.5 -110q-113 -461 -232 -618h-229z" />
    <glyph glyph-name="rho" unicode="&#x3c1;" horiz-adv-x="1132" 
d="M-14 -406q-12 94 39 361l81 448q35 195 94.5 307.5t143.5 186.5q143 123 342 123q176 0 282.5 -114.5t106.5 -289.5q0 -264 -158.5 -451.5t-365.5 -187.5q-86 0 -156.5 33t-103.5 88h-4l-27 -143q-49 -260 -49 -361h-225zM340 338q0 -61 53 -118.5t142 -57.5
q117 0 205.5 130t88.5 308q0 96 -48 160.5t-138 64.5q-100 0 -175 -90t-110 -264l-12 -55q-6 -35 -6 -78z" />
    <glyph glyph-name="sigma1" unicode="&#x3c2;" horiz-adv-x="876" 
d="M57 414q0 242 173 424t434 182q141 0 233 -51l-66 -170q-70 35 -165 35q-145 0 -253 -111t-108 -277q0 -199 209 -272q88 -31 254 -57q16 -2 16 -25q0 -68 -66.5 -198t-131.5 -197l-150 51q72 106 99 211q-109 20 -183 49q-119 43 -207 142.5t-88 263.5z" />
    <glyph glyph-name="sigma" unicode="&#x3c3;" horiz-adv-x="1155" 
d="M63 389q0 260 162 445.5t410 185.5h246h135h196l-30 -180q-80 0 -258 20l-2 -10q61 -41 90.5 -122t29.5 -155q0 -233 -161.5 -414.5t-405.5 -181.5q-188 0 -300 115t-112 297zM309 395q0 -104 52.5 -168.5t140.5 -64.5h2q127 0 212 142t85 302q0 92 -46 161t-143 69
q-135 0 -219 -141.5t-84 -299.5z" />
    <glyph glyph-name="tau" unicode="&#x3c4;" horiz-adv-x="841" 
d="M45 795v141q94 61 322 61h534l-45 -186h-285l-86 -473q-10 -47 -10 -84q0 -86 82 -86q29 0 43 2l-37 -174q-45 -18 -108 -19q-223 0 -224 226q0 68 19 155l84 453h-90q-121 0 -199 -16z" />
    <glyph glyph-name="upsilon" unicode="&#x3c5;" horiz-adv-x="1064" 
d="M86 303q0 33 18 148l39 204q51 272 41 342h230q23 -47 -4 -186l-62 -332q-18 -106 -18 -137q0 -76 44 -122t105 -46q88 0 159 97.5t106.5 247t35.5 315.5q0 102 -14 163h221q27 -68 27 -186q0 -143 -35 -285.5t-101.5 -267.5t-180 -203t-255.5 -78q-160 0 -258 87
t-98 239z" />
    <glyph glyph-name="phi" unicode="&#x3c6;" horiz-adv-x="1337" 
d="M63 412q0 127 44.5 238.5t112 184t136 119.5t131.5 66l82 -121q-100 -53 -186 -174t-86 -295q0 -109 50 -185.5t147 -99.5l98 533q31 172 118 257t210 85q150 0 252 -113.5t102 -290.5q0 -283 -181.5 -458.5t-416.5 -180.5l-72 -383h-215l74 383q-162 20 -281 133.5
t-119 301.5zM707 145q143 10 239 144.5t96 318.5q0 100 -38.5 170t-100.5 70q-66 0 -84 -109z" />
    <glyph glyph-name="chi" unicode="&#x3c7;" horiz-adv-x="919" 
d="M-164 -377q53 78 216 322.5t251 380.5l-215 671h248l82 -297q18 -70 51 -213h10q80 147 115 203q31 51 91 153.5t91 153.5h242q-410 -618 -463 -696l217 -700l-229 -52l-86 306q-51 182 -72 266h-10q-14 -27 -31.5 -57.5t-43.5 -73.5t-42 -72q-27 -43 -104.5 -172
t-118.5 -197z" />
    <glyph glyph-name="psi" unicode="&#x3c8;" horiz-adv-x="1353" 
d="M94 358q0 86 17 166l43 226q33 178 28 247h215q23 -41 -4 -184l-51 -283q-16 -94 -16 -163q2 -104 50 -157.5t126 -59.5l207 1107h215l-207 -1107q141 2 248.5 179t107.5 492q0 123 -16 176h217q29 -76 29 -194q0 -354 -167 -583.5t-450 -242.5l-72 -383h-217l72 383
q-164 14 -269.5 108.5t-105.5 272.5z" />
    <glyph glyph-name="omega" unicode="&#x3c9;" horiz-adv-x="1429" 
d="M61 362q0 201 86 381.5t181 262.5h229v-7q-96 -92 -175 -261t-79 -351q0 -100 35 -153.5t88 -53.5q57 0 98 59.5t58 155.5l63 357h221l-63 -316q-16 -94 -17 -121q0 -55 26 -95t79 -40q92 0 163.5 153.5t71.5 352.5q0 205 -82 313v7h216q41 -47 71.5 -142.5t30.5 -206.5
q0 -281 -138.5 -480.5t-336.5 -199.5q-182 0 -236 168h-6q-104 -168 -280 -168q-129 0 -216.5 99.5t-87.5 285.5z" />
    <glyph glyph-name="iotadieresis" unicode="&#x3ca;" horiz-adv-x="509" 
d="M49 1245q0 57 38 94t93 37q51 0 83 -33.5t32 -82.5q0 -57 -37 -94.5t-92 -37.5h-2q-49 0 -82 33t-33 84zM72 156q0 43 24 186l125 655h238l-137 -721q-10 -63 5 -87.5t66 -22.5l-47 -174q-35 -14 -96 -15q-178 1 -178 179zM449 1245q0 57 37.5 94t93.5 37
q51 0 82.5 -33.5t31.5 -82.5q0 -57 -36.5 -94.5t-92.5 -37.5h-2q-49 0 -81.5 33t-32.5 84z" />
    <glyph glyph-name="upsilondieresis" unicode="&#x3cb;" horiz-adv-x="1064" 
d="M86 307q0 49 20 146l35 202q51 268 41 342h230q25 -49 -2 -186l-62 -332q-20 -106 -20 -135q0 -80 44 -125t105 -45q90 0 161 99.5t106.5 248t35.5 312.5q0 102 -14 163h221q27 -68 27 -182q0 -143 -35 -286.5t-102.5 -269.5t-181 -204t-257.5 -78q-160 0 -256 87
t-96 243zM295 1245q0 57 37 94t92 37q51 0 83 -33.5t32 -82.5q0 -57 -37 -94.5t-92 -37.5h-2q-49 0 -81 33t-32 84zM692 1245q0 57 38 94t93 37q51 0 83 -33.5t32 -82.5q0 -57 -37 -94.5t-92 -37.5h-2q-49 0 -82 33t-33 84z" />
    <glyph glyph-name="omicrontonos" unicode="&#x3cc;" horiz-adv-x="1112" 
d="M63 389q0 260 163 445.5t415 185.5q193 0 300.5 -119t107.5 -293q0 -260 -163 -445.5t-413 -185.5h-2q-186 0 -297 116t-111 296zM309 395q0 -104 51.5 -168.5t141.5 -64.5h2q127 0 213 141t86 303q0 90 -46 160t-147 70q-133 0 -217 -142.5t-84 -298.5zM528 1118
l199 303h248l-270 -303h-177z" />
    <glyph glyph-name="upsilontonos" unicode="&#x3cd;" horiz-adv-x="1064" 
d="M86 305q0 45 20 148l35 202q51 268 41 342h230q23 -47 -4 -186l-60 -332q-18 -129 -18 -135q0 -80 43 -125t104 -45q90 0 161 99.5t106.5 248t35.5 312.5q0 102 -14 163h221q27 -68 27 -182q0 -143 -35 -286.5t-101.5 -269.5t-181 -204t-256.5 -78q-160 0 -257 87
t-97 241zM469 1118l197 303h247l-268 -303h-176z" />
    <glyph glyph-name="omegatonos" unicode="&#x3ce;" horiz-adv-x="1429" 
d="M61 362q0 201 86 381.5t181 262.5h229v-7q-96 -92 -175 -261t-79 -351q0 -100 35 -153.5t88 -53.5q57 0 98 59.5t58 155.5l63 357h221l-63 -316q-16 -94 -17 -121q0 -55 26 -95t79 -40q92 0 163.5 153.5t71.5 352.5q0 205 -82 313v7h216q41 -47 71.5 -142.5t30.5 -206.5
q0 -281 -138.5 -480.5t-336.5 -199.5q-182 0 -236 168h-6q-104 -168 -280 -168q-129 0 -216.5 99.5t-87.5 285.5zM698 1118l197 303h248l-269 -303h-176z" />
    <glyph glyph-name="uni03D0" unicode="&#x3d0;" horiz-adv-x="1124" 
d="M-2 -406q-25 86 29 361l170 909q63 358 231 500q131 113 307 113q150 0 240 -90.5t90 -223.5q0 -127 -63.5 -225t-163.5 -145l-2 -11q92 -25 156.5 -114.5t64.5 -214.5q0 -211 -143.5 -343.5t-325.5 -132.5q-195 0 -297 113h-4l-25 -133q-49 -264 -43 -363h-221zM324 297
q31 -57 91 -97t138 -40q106 0 183 82t77 204q0 100 -60.5 162t-158.5 70h-49l28 153q12 0 37 5q102 12 166 90t64 190q0 78 -38 125t-104 47q-190 0 -262 -381z" />
    <glyph glyph-name="theta1" unicode="&#x3d1;" horiz-adv-x="1101" 
d="M80 467q0 176 43 356q66 287 218.5 470.5t371.5 183.5q180 0 278.5 -129t98.5 -340q0 -143 -29 -297q-63 -328 -212 -531t-376 -203h-2q-186 0 -288.5 126t-102.5 364zM311 434q0 -135 48.5 -209.5t134.5 -74.5q221 0 315 507h-475q-23 -135 -23 -223zM367 831h475
q16 100 16 197q0 127 -44 202t-130 75q-117 0 -197.5 -133.5t-119.5 -340.5z" />
    <glyph glyph-name="Upsilon1" unicode="&#x3d2;" horiz-adv-x="1128" 
d="M109 1194l57 199q82 -4 172 -52.5t145 -128.5q139 -193 119 -477h12q90 283 297 475q88 80 183.5 128t165.5 55l18 -211q-141 -49 -298 -204t-251 -372q-63 -145 -88 -282l-59 -324h-240l61 326q27 152 25 274q-4 246 -90 402.5t-229 191.5z" />
    <glyph glyph-name="uni03D3" unicode="&#x3d3;" horiz-adv-x="1128" 
d="M547 1526l197 303h248l-269 -303h-176zM109 1194l57 199q82 -4 172 -52.5t145 -128.5q139 -193 119 -477h12q90 283 297 475q88 80 183.5 128t165.5 55l18 -211q-141 -49 -298 -204t-251 -372q-63 -145 -88 -282l-59 -324h-240l61 326q27 152 25 274q-4 246 -90 402.5
t-229 191.5z" />
    <glyph glyph-name="uni03D4" unicode="&#x3d4;" horiz-adv-x="1128" 
d="M438 1645q0 59 39 97t94 38q53 0 85 -35t32 -86q0 -57 -38 -95t-93 -38h-2q-49 0 -83 33t-34 86zM838 1645q0 59 38.5 97t94.5 38q53 0 84.5 -35t31.5 -86q0 -57 -37.5 -95t-93.5 -38h-2q-49 0 -82.5 33t-33.5 86zM109 1194l57 199q82 -4 172 -52.5t145 -128.5
q139 -193 119 -477h12q90 283 297 475q88 80 183.5 128t165.5 55l18 -211q-141 -49 -298 -204t-251 -372q-63 -145 -88 -282l-59 -324h-240l61 326q27 152 25 274q-4 246 -90 402.5t-229 191.5z" />
    <glyph glyph-name="phi1" unicode="&#x3d5;" horiz-adv-x="1337" 
d="M63 412q0 127 44.5 238.5t112 184t136 119.5t131.5 66l82 -121q-100 -53 -186 -174t-86 -295q0 -109 50 -185.5t147 -99.5l98 533q31 172 118 257t210 85q150 0 252 -113.5t102 -290.5q0 -283 -181.5 -458.5t-416.5 -180.5l-72 -383h-215l74 383q-162 20 -281 133.5
t-119 301.5zM707 145q143 10 239 144.5t96 318.5q0 100 -38.5 170t-100.5 70q-66 0 -84 -109z" />
    <glyph glyph-name="omega1" unicode="&#x3d6;" horiz-adv-x="1130" 
d="M4 0q127 209 229 612q27 104 48 199q-131 0 -197 -18l-4 139q76 66 323 65h773l-43 -186h-132l-92 -498q-39 -215 -32 -313h-228q-25 59 21 297l94 514h-254q-4 -12 -19.5 -83t-25.5 -110q-113 -461 -232 -618h-229z" />
    <glyph glyph-name="uni0400" unicode="&#x400;" horiz-adv-x="1015" 
d="M420 1829h244l145 -303h-172zM49 0l262 1380h766l-39 -202h-526l-70 -363h498l-39 -201h-495l-78 -411h557l-39 -203h-797z" />
    <glyph glyph-name="afii10023" unicode="&#x401;" horiz-adv-x="1015" 
d="M49 0l262 1380h766l-39 -202h-526l-70 -363h498l-39 -201h-495l-78 -411h557l-39 -203h-797zM406 1581q0 55 38.5 93t92.5 38q51 0 82.5 -35t31.5 -82q0 -55 -38 -93t-91 -38h-2q-47 0 -80.5 34t-33.5 83zM809 1581q0 55 39 93t92 38q51 0 83 -35t32 -82q0 -55 -38 -93
t-91 -38h-2q-47 0 -81 34t-34 83z" />
    <glyph glyph-name="afii10051" unicode="&#x402;" horiz-adv-x="1366" 
d="M137 1174l43 206h1055l-41 -206h-461l-57 -314h4q96 61 229 62q174 0 271.5 -121t97.5 -318q0 -168 -55.5 -318.5t-155.5 -252.5q-84 -88 -189.5 -141.5t-205.5 -65.5l-37 201q145 33 242 135q147 158 147 416q0 119 -52 192.5t-157 73.5q-86 0 -176 -57l-125 -666h-235
l219 1174h-361z" />
    <glyph glyph-name="afii10052" unicode="&#x403;" horiz-adv-x="876" 
d="M51 0l262 1380h715l-41 -209h-475l-223 -1171h-238zM541 1454l200 250h281l-274 -250h-207z" />
    <glyph glyph-name="afii10053" unicode="&#x404;" horiz-adv-x="1140" 
d="M100 573q0 190 70 353.5t199 275.5q231 199 553 199q193 0 313 -64l-70 -190q-102 53 -266 53q-195 -2 -336 -113.5t-182 -295.5h608l-31 -191h-598q-4 -29 -4 -57q2 -152 100.5 -258.5t282.5 -106.5q147 0 287 60l25 -189q-139 -72 -371 -72q-279 0 -429.5 165
t-150.5 431z" />
    <glyph glyph-name="afii10054" unicode="&#x405;" horiz-adv-x="1003" 
d="M10 76l82 196q137 -88 311 -88q106 0 180 54.5t74 150.5q0 66 -45 117t-147 106q-281 152 -281 361q0 193 146.5 310.5t361.5 117.5q190 0 307 -70l-77 -196q-113 61 -250 61q-109 0 -173.5 -53t-64.5 -127q0 -66 49 -115t158 -108q268 -141 268 -367
q0 -205 -149.5 -325.5t-382.5 -120.5q-117 0 -216.5 28.5t-150.5 67.5z" />
    <glyph glyph-name="afii10055" unicode="&#x406;" horiz-adv-x="524" 
d="M45 0l262 1380h238l-262 -1380h-238z" />
    <glyph glyph-name="afii10056" unicode="&#x407;" horiz-adv-x="524" 
d="M45 0l262 1380h238l-262 -1380h-238zM133 1581q0 55 39 93t92 38q51 0 83 -35t32 -82q0 -55 -38 -93t-91 -38h-2q-47 0 -81 34t-34 83zM537 1581q0 55 38.5 93t92.5 38q51 0 82.5 -35t31.5 -82q0 -55 -37.5 -93t-91.5 -38h-2q-47 0 -80.5 34t-33.5 83z" />
    <glyph glyph-name="afii10057" unicode="&#x408;" horiz-adv-x="784" 
d="M-68 12l48 203q74 -27 170 -27q106 0 169.5 65.5t92.5 225.5l172 901h237l-176 -927q-47 -252 -163.5 -364t-331.5 -112q-144 0 -218 35z" />
    <glyph glyph-name="afii10058" unicode="&#x409;" horiz-adv-x="1830" 
d="M-74 180q119 8 191 86q141 137 213 522l110 592h820l-99 -497q63 12 156 12q197 0 318.5 -101.5t121.5 -293.5q0 -205 -139 -338q-184 -176 -551 -176q-172 0 -305 18l221 1174h-352l-72 -373q-104 -539 -295 -711q-129 -115 -315 -114zM1030 182q49 -6 115 -6
q143 0 251.5 78t108.5 217q0 117 -70.5 175.5t-185.5 58.5q-63 0 -125 -11z" />
    <glyph glyph-name="afii10059" unicode="&#x40a;" horiz-adv-x="1849" 
d="M53 0l260 1380h240l-104 -540h489l102 540h238l-100 -514q63 12 153 13q193 0 319 -100.5t126 -293.5q0 -195 -140 -327q-178 -172 -549 -172q-174 0 -307 18l121 641h-489l-121 -645h-238zM1049 182q33 -6 118 -6q145 0 251 77t106 208q0 113 -75 170t-189 57
q-68 0 -119 -12z" />
    <glyph glyph-name="afii10060" unicode="&#x40b;" horiz-adv-x="1382" 
d="M137 1176l41 204h1043l-39 -204h-457l-66 -345h5q129 88 297 89q150 0 225.5 -85t73.5 -225q0 -68 -25 -211l-72 -399h-237l73 389q18 96 19 164q0 72 -43 119t-135 47q-121 0 -217 -84l-121 -635h-234l221 1176h-352z" />
    <glyph glyph-name="afii10061" unicode="&#x40c;" horiz-adv-x="1140" 
d="M49 0l262 1380h236l-115 -600h37l516 600h293l-598 -632q113 -35 172 -137.5t94 -274.5q49 -266 76 -336h-248q-16 51 -67 317q-29 152 -85.5 220.5t-183.5 68.5h-39l-114 -606h-236zM614 1454l201 250h281l-275 -250h-207z" />
    <glyph glyph-name="uni040D" unicode="&#x40d;" horiz-adv-x="1323" 
d="M555 1829h244l145 -303h-172zM51 0l262 1380h228l-99 -510q-68 -346 -127 -577h4q111 180 316 465l455 622h256l-263 -1380h-225l98 520q66 332 115 529l-4 2q-111 -188 -313 -473l-428 -578h-275z" />
    <glyph glyph-name="afii10062" unicode="&#x40e;" horiz-adv-x="1083" 
d="M72 8l43 195q43 -16 106 -17q135 0 223 170q25 39 9 88l-289 936h262l143 -551q33 -127 60 -258h8q74 178 121 287l233 522h273l-355 -696q-84 -160 -122.5 -231.5t-114.5 -185t-144 -175.5q-123 -115 -292 -115q-101 0 -164 31zM477 1706h172q-10 -123 94.5 -123
t130.5 123h177q-23 -111 -107 -173.5t-213 -62.5q-131 0 -194.5 62.5t-59.5 173.5z" />
    <glyph glyph-name="afii10145" unicode="&#x40f;" horiz-adv-x="1290" 
d="M51 0l260 1380h242l-223 -1177h524l223 1177h238l-260 -1380h-385l-88 -367h-191l55 367h-395z" />
    <glyph glyph-name="afii10017" unicode="&#x410;" 
d="M-55 0l690 1380h299l174 -1380h-248l-41 393h-432l-188 -393h-254zM463 578h344l-39 342q-8 82 -23 264h-4q-10 -25 -50 -120t-62 -142z" />
    <glyph glyph-name="afii10018" unicode="&#x411;" horiz-adv-x="1122" 
d="M53 4l260 1376h774l-36 -204h-537l-59 -310q57 14 155 15q190 0 312 -100.5t122 -288.5q0 -227 -167 -361q-182 -145 -510 -145q-181 0 -314 18zM324 180q43 -8 120 -8q137 0 244 78t107 213q0 115 -69 175t-185 60q-49 0 -123 -12z" />
    <glyph glyph-name="afii10019" unicode="&#x412;" horiz-adv-x="1140" 
d="M53 12l254 1348q154 31 332 31q215 0 332 -82q133 -82 133 -236q0 -125 -82 -214t-205 -122v-6q100 -31 160.5 -109.5t60.5 -193.5q0 -203 -178 -326q-160 -113 -487 -112q-199 -1 -320 22zM319 184q55 -6 125 -6q147 0 244.5 63.5t97.5 194.5q0 104 -75.5 153.5
t-194.5 49.5h-113zM440 815h111q137 0 222 60.5t85 164.5q0 164 -219 164q-86 0 -127 -10z" />
    <glyph glyph-name="afii10020" unicode="&#x413;" horiz-adv-x="876" 
d="M51 0l262 1380h715l-41 -209h-475l-223 -1171h-238z" />
    <glyph glyph-name="afii10021" unicode="&#x414;" horiz-adv-x="1298" 
d="M-137 -342l90 532l102 7q127 174 213 372q86 205 133 451l70 360h803l-223 -1183l125 -9l-125 -530h-193l53 342h-772l-86 -342h-190zM305 201h508l184 977h-346l-45 -230q-45 -236 -125 -428q-76 -184 -176 -319z" />
    <glyph glyph-name="afii10022" unicode="&#x415;" horiz-adv-x="1015" 
d="M49 0l262 1380h766l-39 -202h-526l-70 -363h498l-39 -201h-495l-78 -411h557l-39 -203h-797z" />
    <glyph glyph-name="afii10024" unicode="&#x416;" horiz-adv-x="1662" 
d="M-63 0q31 45 60.5 102.5t68 144.5t55.5 120q94 188 182 271t238 110l-348 632h256l270 -604h35l110 604h228l-113 -604h39l485 604h273l-574 -632q119 -33 177.5 -136.5t88.5 -267.5q41 -250 72 -344h-240q-25 80 -67 338q-23 137 -78 203.5t-166 66.5h-39l-112 -608
h-232l117 610h-37q-113 0 -190.5 -69.5t-143.5 -208.5q-16 -35 -50 -108.5t-60.5 -126t-53.5 -97.5h-251z" />
    <glyph glyph-name="afii10025" unicode="&#x417;" horiz-adv-x="985" 
d="M-25 82l76 182q139 -84 301 -84q121 0 206 64.5t85 179.5q0 100 -87 153.5t-194 51.5h-94l33 182h80q131 0 226 58.5t93 172.5q0 78 -51 122t-131 44q-131 0 -274 -78l-49 170q160 102 374 103q160 0 269.5 -81t109.5 -241q0 -135 -88 -228t-219 -124l-2 -4
q111 -25 180.5 -107.5t69.5 -203.5q0 -207 -157 -322t-380 -115q-219 1 -377 105z" />
    <glyph glyph-name="afii10026" unicode="&#x418;" horiz-adv-x="1323" 
d="M51 0l262 1380h228l-99 -510q-68 -346 -127 -577h4q111 180 316 465l455 622h256l-263 -1380h-225l98 520q66 332 115 529l-4 2q-111 -188 -313 -473l-428 -578h-275z" />
    <glyph glyph-name="afii10027" unicode="&#x419;" horiz-adv-x="1323" 
d="M51 0l262 1380h228l-99 -510q-68 -346 -127 -577h4q111 180 316 465l455 622h256l-263 -1380h-225l98 520q66 332 115 529l-4 2q-111 -188 -313 -473l-428 -578h-275zM596 1702h172q-10 -123 94.5 -123t130.5 123h176q-23 -111 -106.5 -173.5t-212.5 -62.5
q-131 0 -194.5 62.5t-59.5 173.5z" />
    <glyph glyph-name="afii10028" unicode="&#x41a;" horiz-adv-x="1140" 
d="M49 0l262 1380h236l-115 -600h37l516 600h293l-598 -632q113 -35 172 -137.5t94 -274.5q49 -266 76 -336h-248q-16 51 -67 317q-29 152 -85.5 220.5t-183.5 68.5h-39l-114 -606h-236z" />
    <glyph glyph-name="afii10029" unicode="&#x41b;" horiz-adv-x="1259" 
d="M-74 180q119 12 193 92q137 139 207 514l112 594h844l-262 -1380h-240l226 1178h-379l-72 -375q-98 -524 -287 -699q-119 -119 -319 -124z" />
    <glyph glyph-name="afii10030" unicode="&#x41c;" horiz-adv-x="1642" 
d="M16 0l353 1380h313l74 -645q25 -307 26 -397h9q66 174 174 395l333 647h320l-182 -1380h-232l90 649q61 387 86 506h-6q-131 -297 -229 -487l-338 -652h-186l-72 641q-23 217 -37 498h-4q-8 -39 -50 -231.5t-61 -274.5l-159 -649h-222z" />
    <glyph glyph-name="afii10031" unicode="&#x41d;" horiz-adv-x="1327" 
d="M51 0l262 1380h238l-107 -557h562l106 557h240l-262 -1380h-240l117 612h-561l-117 -612h-238z" />
    <glyph glyph-name="afii10032" unicode="&#x41e;" horiz-adv-x="1409" 
d="M98 547q0 184 66.5 359t183.5 294q203 203 494 203q262 0 401 -161t139 -411q0 -184 -63.5 -358t-175.5 -291q-201 -205 -500 -205h-2q-258 0 -400.5 163t-142.5 407zM350 559q0 -170 80 -275.5t244 -105.5h2q188 0 321 206t133 439q0 74 -14 137.5t-48 120t-99.5 89
t-155.5 32.5q-131 0 -240.5 -101.5t-166 -248t-56.5 -293.5z" />
    <glyph glyph-name="afii10033" unicode="&#x41f;" horiz-adv-x="1296" 
d="M51 0l262 1380h1008l-262 -1380h-240l225 1178h-530l-225 -1178h-238z" />
    <glyph glyph-name="afii10034" unicode="&#x420;" horiz-adv-x="1095" 
d="M49 0l258 1358q135 33 332 33q233 0 354 -99q127 -98 127 -274q0 -233 -176 -377q-162 -129 -432 -129q-68 0 -129 10l-100 -522h-234zM420 719q59 -12 125 -12q147 0 241.5 83.5t94.5 208.5q0 201 -240 201q-90 0 -133 -12z" />
    <glyph glyph-name="afii10035" unicode="&#x421;" horiz-adv-x="1167" 
d="M100 557q0 213 86 390t238 290q217 164 514 164q205 0 301 -62l-70 -192q-90 49 -260 49q-209 0 -350 -129q-94 -82 -147.5 -207t-53.5 -272q0 -184 97.5 -295t294.5 -111q164 0 276 51l23 -192q-139 -61 -361 -61q-270 0 -429 154.5t-159 422.5z" />
    <glyph glyph-name="afii10036" unicode="&#x422;" horiz-adv-x="1030" 
d="M135 1171l41 209h1006l-41 -209h-385l-221 -1171h-240l221 1171h-381z" />
    <glyph glyph-name="afii10037" unicode="&#x423;" horiz-adv-x="1083" 
d="M72 8l43 195q43 -16 106 -17q135 0 223 170q25 39 9 88l-289 936h262l143 -551q33 -127 60 -258h8q74 178 121 287l233 522h273l-355 -696q-84 -160 -122.5 -231.5t-114.5 -185t-144 -175.5q-123 -115 -292 -115q-101 0 -164 31z" />
    <glyph glyph-name="afii10038" unicode="&#x424;" horiz-adv-x="1517" 
d="M111 608q0 180 66.5 323.5t172 225.5t222 125t233.5 43l22 111h226l-23 -117q195 -31 325 -171t130 -380q0 -225 -103.5 -389t-257 -238.5t-333.5 -79.5l-23 -118h-225l24 127q-193 33 -324.5 171t-131.5 367zM352 612q0 -150 68.5 -247t179.5 -121l172 907
q-160 -6 -290 -154.5t-130 -384.5zM825 236q184 10 301 159.5t117 388.5q0 154 -67.5 248t-180.5 113z" />
    <glyph glyph-name="afii10039" unicode="&#x425;" horiz-adv-x="1120" 
d="M-74 0l527 705l-250 675h252l104 -305q37 -111 68 -221h6q59 106 133 223l209 303h285l-517 -678l269 -702h-254l-109 307q-41 106 -82 238h-4q-86 -143 -149 -242l-201 -303h-287z" />
    <glyph glyph-name="afii10040" unicode="&#x426;" horiz-adv-x="1323" 
d="M51 0l262 1380h240l-225 -1177h526l225 1177h238l-225 -1185l125 -7l-125 -530h-193l53 342h-901z" />
    <glyph glyph-name="afii10041" unicode="&#x427;" horiz-adv-x="1189" 
d="M174 795q0 68 23 180l77 405h238l-76 -393q-16 -92 -16 -133q0 -172 205 -172q129 0 231 66l121 632h237l-264 -1386h-237l106 557l-4 2q-119 -66 -289 -66q-164 0 -258 82.5t-94 225.5z" />
    <glyph glyph-name="afii10042" unicode="&#x428;" horiz-adv-x="1732" 
d="M51 0l262 1380h236l-225 -1177h370l224 1177h235l-225 -1177h370l224 1177h235l-264 -1380h-1442z" />
    <glyph glyph-name="afii10043" unicode="&#x429;" horiz-adv-x="1763" 
d="M51 0l262 1380h234l-223 -1177h370l224 1177h233l-223 -1177h370l224 1177h233l-225 -1185l123 -7l-123 -530h-193l54 342h-1340z" />
    <glyph glyph-name="afii10044" unicode="&#x42a;" horiz-adv-x="1341" 
d="M135 1174l39 206h598l-98 -497q82 12 151 12q201 0 323 -102.5t122 -294.5q0 -205 -137 -336q-178 -176 -555 -176q-170 0 -304 18l222 1170h-361zM541 184q47 -8 121 -8q139 0 246.5 78t107.5 215q0 115 -69.5 175.5t-186.5 60.5q-70 0 -123 -15z" />
    <glyph glyph-name="afii10045" unicode="&#x42b;" horiz-adv-x="1583" 
d="M51 4l260 1376h238l-96 -497q61 12 155 12q186 0 306 -102.5t120 -292.5q0 -205 -137 -338q-178 -176 -541 -176q-172 0 -305 18zM319 184q35 -8 119 -8q133 0 237.5 77t104.5 214q0 115 -65.5 176.5t-177.5 61.5q-55 0 -121 -13zM1094 0l264 1380h250l-265 -1380h-249z
" />
    <glyph glyph-name="afii10046" unicode="&#x42c;" horiz-adv-x="1120" 
d="M51 4l258 1376h238l-96 -497q57 12 155 12q197 0 319 -101.5t122 -295.5q0 -203 -136 -334q-186 -178 -557 -178q-170 0 -303 18zM317 184q47 -8 121 -8q139 0 247 77t108 214q0 117 -70 177.5t-188 60.5q-63 0 -121 -13z" />
    <glyph glyph-name="afii10047" unicode="&#x42d;" horiz-adv-x="1144" 
d="M-23 57l64 189q131 -66 289 -66q203 0 336 117t170 299h-598l36 192h590q2 14 2 52q-2 152 -98 256t-264 104q-141 0 -275 -55l-47 180q160 78 355 78q268 0 423.5 -166t155.5 -444q0 -381 -235 -615q-205 -201 -547 -201q-222 0 -357 80z" />
    <glyph glyph-name="afii10048" unicode="&#x42e;" horiz-adv-x="1851" 
d="M51 0l260 1380h240l-107 -559h193q63 233 201 381q195 201 471 201q252 0 385 -161t133 -411q0 -184 -60.5 -358t-169.5 -293q-193 -203 -475 -203q-242 0 -379 159t-137 378q0 53 8 100h-211l-114 -614h-238zM844 559q0 -170 75.5 -276.5t231.5 -106.5h2
q119 0 219.5 101.5t153.5 249t53 296.5q0 381 -299 381q-123 0 -226.5 -102.5t-156.5 -249t-53 -293.5z" />
    <glyph glyph-name="afii10049" unicode="&#x42f;" horiz-adv-x="1122" 
d="M-59 0q35 51 163 311q70 139 140.5 226.5t171.5 117.5v7q-94 27 -161 102.5t-67 198.5q0 213 187 333q158 94 413 95q207 0 357 -33l-254 -1358h-240l111 575h-80q-68 0 -123 -25.5t-98 -81.5t-65.5 -95t-61.5 -117q-82 -178 -131 -256h-262zM434 952q0 -96 72 -149
t178 -53q63 0 113 4l80 440q-66 10 -125 10q-137 0 -227.5 -64.5t-90.5 -187.5z" />
    <glyph glyph-name="afii10065" unicode="&#x430;" horiz-adv-x="1105" 
d="M59 317q0 131 45.5 254t130 224.5t222 163t305.5 61.5q162 0 301 -45l-100 -520q-47 -248 -41 -455h-222q4 100 19 223h-6q-135 -246 -359 -246q-133 0 -214 94t-81 246zM307 360q0 -190 144 -190q88 0 175 106.5t119 286.5l50 262q-41 10 -97 11q-160 0 -275.5 -149
t-115.5 -327z" />
    <glyph glyph-name="afii10066" unicode="&#x431;" horiz-adv-x="1099" 
d="M94 455q0 213 63.5 401t182.5 320q119 135 260 188t356 76q119 10 185 35l-35 -203q-59 -18 -160 -31q-94 -12 -132 -18t-110.5 -25.5t-125 -53.5t-99.5 -85q-96 -102 -139 -260h8q135 199 350 198q162 0 253 -109.5t91 -277.5q-2 -252 -156.5 -442.5t-404.5 -190.5
q-186 0 -286.5 126.5t-100.5 351.5zM330 403q0 -104 45 -175.5t133 -71.5h2q133 0 209 140t76 294q0 96 -42 163.5t-130 67.5q-117 0 -205 -123q-88 -117 -88 -295z" />
    <glyph glyph-name="afii10067" unicode="&#x432;" horiz-adv-x="1038" 
d="M76 279q0 162 68.5 361.5t191.5 289.5q121 90 299 90h2q150 0 237 -60.5t87 -177.5q0 -92 -71 -154.5t-163 -90.5v-5q86 -10 146.5 -64t60.5 -149q0 -119 -82 -198.5t-187.5 -110t-222.5 -30.5q-366 0 -366 299zM315 293q0 -145 156 -146q94 0 157.5 45.5t63.5 118.5
q0 131 -176 131h-2q-92 0 -184 -30q-15 -76 -15 -119zM360 567q203 31 277 70q94 49 94 119q0 47 -32.5 72.5t-86.5 25.5h-2q-174 0 -250 -287z" />
    <glyph glyph-name="afii10068" unicode="&#x433;" horiz-adv-x="813" 
d="M18 246q0 70 26 125t82 97t101 65.5t125 58.5q68 31 102.5 48t68.5 49t34 65q0 39 -30.5 62.5t-88.5 25.5q-98 0 -217 -51l-31 159q135 70 295 70q147 -2 226.5 -71.5t79.5 -188.5q0 -117 -83 -190.5t-241 -141.5q-104 -47 -153.5 -85t-49.5 -91q0 -92 121 -94
q119 0 258 71l31 -168q-152 -86 -328 -81q-154 2 -241 70.5t-87 195.5z" />
    <glyph glyph-name="afii10069" unicode="&#x434;" horiz-adv-x="1085" 
d="M63 383q0 233 143.5 423.5t368.5 190.5q205 0 273 -184h6q2 25 2 74q0 178 -96 268q-84 82 -287 98q-147 16 -184 23l-6 199q37 -8 83 -13.5t99 -8.5t80 -5q238 -25 352 -139q154 -139 154 -455q0 -147 -33 -292.5t-100.5 -281t-189.5 -219.5t-279 -84q-182 0 -284 109
t-102 297zM311 381q0 -98 43 -161.5t131 -63.5h2q82 0 148.5 76.5t98.5 172t34 177.5q0 96 -44 164.5t-132 68.5q-90 0 -157.5 -73.5t-96.5 -170t-27 -190.5z" />
    <glyph glyph-name="afii10070" unicode="&#x435;" horiz-adv-x="980" 
d="M63 391q0 240 160 434.5t404 194.5q147 0 234 -77t87 -204q0 -344 -653 -329q-4 -78 27 -142q57 -100 204.5 -100t274.5 65l22 -174q-154 -80 -352 -79q-201 0 -304.5 111.5t-103.5 299.5zM319 588q199 -2 301.5 31.5t102.5 117.5v2q0 47 -35 75t-92 28q-102 0 -177 -77
t-100 -177z" />
    <glyph glyph-name="afii10072" unicode="&#x436;" horiz-adv-x="1404" 
d="M-76 0q4 6 129 262q131 270 328 287l-260 448h258l190 -424h31l80 424h225l-84 -424h33l356 424h267l-426 -446q135 -35 182 -283q43 -217 59 -268h-229q-18 47 -49 225q-20 102 -61.5 154.5t-125.5 52.5h-32l-82 -432h-226l86 432h-24q-94 0 -156.5 -47t-111.5 -145
q-18 -35 -57.5 -118t-61.5 -122h-238z" />
    <glyph glyph-name="afii10073" unicode="&#x437;" horiz-adv-x="888" 
d="M-37 76l64 162q131 -78 276 -78q88 0 156.5 35.5t68.5 107.5q0 135 -229 135h-102l24 160h96q92 0 167 35t75 102q0 53 -43 82t-108 29q-121 0 -242 -66l-45 146q154 92 336 92q63 0 122.5 -12.5t112.5 -39t86 -77.5t33 -121q0 -96 -74.5 -158.5t-183.5 -85.5v-2
q90 -14 158.5 -74.5t68.5 -156.5q0 -111 -74.5 -184.5t-172 -99t-207.5 -25.5q-220 0 -363 94z" />
    <glyph glyph-name="afii10074" unicode="&#x438;" horiz-adv-x="1116" 
d="M92 260q0 82 21 178l106 559h238l-103 -544q-16 -78 -16 -138q0 -141 127 -141q86 0 168 94t110 246l91 483h239l-131 -688q-20 -106 -49 -309h-213l22 174h-4q-147 -197 -346 -197q-117 0 -188.5 69t-71.5 214z" />
    <glyph glyph-name="afii10075" unicode="&#x439;" horiz-adv-x="1116" 
d="M92 260q0 82 21 178l106 559h238l-103 -544q-16 -78 -16 -138q0 -141 127 -141q86 0 168 94t110 246l91 483h239l-131 -688q-20 -106 -49 -309h-213l22 174h-4q-147 -197 -346 -197q-117 0 -188.5 69t-71.5 214zM455 1409h159q-8 -63 15.5 -102t72.5 -39q90 0 129 141
h160q-27 -125 -106.5 -192.5t-198.5 -67.5q-129 0 -185 71.5t-46 188.5z" />
    <glyph glyph-name="afii10076" unicode="&#x43a;" horiz-adv-x="991" 
d="M41 0l190 997h234l-82 -424h33l379 424h282l-459 -450q131 -43 191 -289q63 -233 76 -258h-236q-10 23 -21.5 60.5t-24.5 92t-23 87.5q-31 104 -75 147t-122 43h-27l-82 -430h-233z" />
    <glyph glyph-name="afii10077" unicode="&#x43b;" horiz-adv-x="1083" 
d="M-63 178q86 6 133 51q109 82 166 365l75 403h736l-189 -997h-237l151 811h-274l-43 -219q-39 -201 -95.5 -324t-144.5 -188q-102 -92 -262 -92z" />
    <glyph glyph-name="afii10078" unicode="&#x43c;" horiz-adv-x="1417" 
d="M16 0l267 997h297l57 -440q23 -184 27 -252h4q47 106 151 299l215 393h303l-131 -997h-221l64 434q16 104 53 338h-8q-29 -70 -156 -309l-244 -451h-182l-55 441q-25 205 -33 321h-8q-45 -221 -78 -346l-109 -428h-213z" />
    <glyph glyph-name="afii10079" unicode="&#x43d;" horiz-adv-x="1114" 
d="M41 0l188 997h238l-72 -383h369l74 383h237l-188 -997h-240l82 428h-369l-81 -428h-238z" />
    <glyph glyph-name="afii10080" unicode="&#x43e;" horiz-adv-x="1110" 
d="M63 389q0 260 163 445.5t415 185.5q193 0 300.5 -119t107.5 -293q0 -260 -163 -445.5t-413 -185.5h-2q-186 0 -297 116t-111 296zM309 395q0 -104 51.5 -168.5t141.5 -64.5h2q127 0 213 141t86 303q0 90 -46 160t-147 70q-133 0 -217 -142.5t-84 -298.5z" />
    <glyph glyph-name="afii10081" unicode="&#x43f;" horiz-adv-x="1126" 
d="M41 0l129 688q29 150 51 309h213l-22 -178h4q139 201 358 201q113 0 183.5 -69.5t70.5 -205.5q0 -76 -18 -163l-109 -582h-239l106 563q12 74 12 119q0 143 -125 143q-86 0 -172 -99t-116 -265l-86 -461h-240z" />
    <glyph glyph-name="afii10082" unicode="&#x440;" horiz-adv-x="1122" 
d="M-43 -406l197 1033q25 141 57 377h215l-23 -170h5q63 88 151 137t184 49q154 0 235 -105.5t81 -263.5q0 -270 -166 -472t-414 -202q-125 0 -198 43h-5l-81 -426h-238zM313 213q61 -51 160 -51q135 0 235.5 147.5t100.5 323.5q0 78 -38 135t-120 57q-94 0 -180 -100
t-115 -268z" />
    <glyph glyph-name="afii10083" unicode="&#x441;" horiz-adv-x="876" 
d="M61 379q0 266 180.5 453.5t452.5 187.5q123 0 205 -39l-61 -184q-70 31 -152 30q-164 0 -269.5 -128t-105.5 -293q0 -111 59.5 -172.5t159.5 -61.5q109 0 211 47l11 -182q-119 -57 -287 -57q-186 0 -295 109.5t-109 289.5z" />
    <glyph glyph-name="afii10084" unicode="&#x442;" horiz-adv-x="1681" 
d="M43 0l127 688q20 106 49 309h207l-23 -174h5q135 197 346 197q111 0 169 -58.5t64 -146.5q135 205 354 205q106 0 174 -68.5t68 -197.5q0 -63 -16 -170l-109 -584h-231l102 557q14 72 14 125q0 143 -120 143q-86 0 -164 -97t-107 -251l-88 -477h-229l106 565
q12 82 13 117q0 143 -119 143q-84 0 -166 -101t-109 -251l-86 -473h-231z" />
    <glyph glyph-name="afii10085" unicode="&#x443;" horiz-adv-x="964" 
d="M-66 -254q117 43 177 88q109 76 176 199q10 18 4 47l-199 917h250l78 -481q37 -219 41 -250h4q12 33 45 111t53 129l207 491h252q-299 -627 -358 -745q-184 -360 -367 -539q-145 -139 -307 -172z" />
    <glyph glyph-name="afii10086" unicode="&#x444;" horiz-adv-x="1452" 
d="M57 328q0 160 55.5 316.5t168 266t254.5 109.5q59 0 101 -33t58 -78h4l103 545h215l-111 -551h4q100 117 228 117q131 0 195.5 -102.5t64.5 -260.5q0 -162 -54.5 -315.5t-163 -259t-245.5 -105.5q-61 0 -109.5 31t-68.5 78h-4l-88 -492h-222l97 494h-2
q-92 -111 -232 -111q-113 0 -180.5 94.5t-67.5 256.5zM295 354q0 -86 31.5 -135t87.5 -49q68 0 113.5 56.5t62.5 133.5l53 267q8 37 12 100q-2 43 -29.5 76t-66.5 33h-2q-113 0 -187.5 -164t-74.5 -318zM809 350q-10 -53 4 -88q6 -35 36 -65.5t75 -28.5q68 4 124 84
t83.5 183.5t27.5 197.5q0 193 -110 192h-2q-84 0 -144 -92q-33 -66 -51 -162z" />
    <glyph glyph-name="afii10087" unicode="&#x445;" horiz-adv-x="966" 
d="M-88 0l434 514l-233 483h262l76 -180l65 -164h6q10 14 45 67.5t62 88.5l143 188h275l-420 -485l233 -512h-262l-80 188q-41 98 -67 179h-5q-92 -145 -102 -160l-156 -207h-276z" />
    <glyph glyph-name="afii10088" unicode="&#x446;" horiz-adv-x="1142" 
d="M92 260q0 80 21 176l106 561h238l-103 -544q-16 -78 -16 -138q0 -141 127 -141q86 0 168 94t110 244l93 485h237l-115 -608q-18 -84 -18 -133q0 -123 139 -125l-139 -436h-174l82 305q-57 14 -90 66q-25 39 -29 114h-4q-70 -96 -165 -149.5t-195 -53.5q-121 0 -197 69
t-76 214z" />
    <glyph glyph-name="afii10089" unicode="&#x447;" horiz-adv-x="1064" 
d="M121 578q0 61 22 170l50 249h239l-47 -227q-18 -96 -18 -139q0 -127 147 -127q117 0 197 71l77 422h238l-190 -997h-238l80 393h-4q-111 -68 -252 -67q-152 0 -226.5 67.5t-74.5 184.5z" />
    <glyph glyph-name="afii10090" unicode="&#x448;" horiz-adv-x="1656" 
d="M92 244q0 63 17 170l108 583h234l-105 -557q-14 -72 -14 -125q0 -143 117 -143q86 0 161.5 96.5t104.5 251.5l88 477h229l-106 -565q-12 -82 -13 -117q0 -143 115 -143q80 0 161 102.5t107 249.5l88 473h232l-127 -682q-18 -94 -29 -315h-215q2 80 10 176h-4
q-133 -199 -340 -199q-106 0 -165.5 59.5t-65.5 145.5q-135 -205 -356 -205q-102 0 -167 69t-65 198z" />
    <glyph glyph-name="afii10091" unicode="&#x449;" horiz-adv-x="1687" 
d="M92 244q0 63 17 170l108 583h234l-105 -557q-14 -72 -14 -125q0 -143 117 -143q82 0 158.5 97.5t105.5 250.5l90 477h229l-106 -565q-12 -82 -13 -117q0 -143 115 -143q80 0 161 102.5t107 249.5l88 473h232l-111 -594q-20 -102 -20 -151q0 -119 139 -121l-139 -436h-174
l82 305q-53 12 -87 65.5t-36 114.5h-6q-137 -203 -355 -203q-106 0 -164.5 59.5t-64.5 145.5q-135 -205 -352 -205q-102 0 -169 69t-67 198z" />
    <glyph glyph-name="afii10092" unicode="&#x44a;" horiz-adv-x="1126" 
d="M78 811l35 186h610q-180 -281 -236 -419h2q111 111 279 110q123 0 197.5 -71.5t74.5 -194.5q0 -174 -141 -306t-367 -132q-334 0 -333 278q0 119 64.5 270.5t152.5 278.5h-338zM434 279q0 -53 33 -88t92 -35h2q98 0 172 64.5t74 158.5q0 63 -36 100t-101 37
q-72 0 -132.5 -46t-84.5 -105q-19 -43 -19 -86z" />
    <glyph glyph-name="afii10093" unicode="&#x44b;" horiz-adv-x="1435" 
d="M80 215q0 78 26 193l130 589h235l-102 -417h2q49 49 123.5 78.5t146.5 29.5q121 0 195.5 -71.5t74.5 -196.5q0 -176 -141 -306t-377 -130q-313 0 -313 231zM315 256q0 -47 32 -73.5t91 -26.5h2q92 0 165 63.5t73 159.5q0 63 -35 100t-100 37q-70 0 -132.5 -53t-80.5 -119
q-15 -49 -15 -88zM956 0l191 997h248l-191 -997h-248z" />
    <glyph glyph-name="afii10094" unicode="&#x44c;" horiz-adv-x="1009" 
d="M80 223q0 61 29 187l131 587h233l-104 -417h2q49 49 124.5 78.5t149.5 29.5q121 0 200 -71.5t79 -196.5q0 -180 -142.5 -308t-382.5 -128q-319 -1 -319 239zM317 262q0 -49 33 -77.5t90 -28.5h2q96 0 172 62.5t76 158.5q0 63 -34.5 101t-100.5 38q-76 0 -137.5 -51
t-83.5 -111q-17 -45 -17 -92z" />
    <glyph glyph-name="afii10095" unicode="&#x44d;" horiz-adv-x="935" 
d="M-25 47l60 170q106 -53 237 -53q129 0 218.5 67.5t115.5 190.5h-418l29 158h412v26q0 98 -66.5 164t-185.5 66q-109 0 -215 -41l-41 166q143 59 287 59q219 0 337.5 -126t118.5 -341q0 -254 -158.5 -415t-435.5 -161q-189 7 -295 70z" />
    <glyph glyph-name="afii10096" unicode="&#x44e;" horiz-adv-x="1503" 
d="M41 0l188 997h240l-74 -389h146q55 184 192 298t317.5 114t286 -121t105.5 -301q0 -254 -156 -437.5t-393 -183.5q-178 0 -280.5 111t-102.5 281q0 16 4 65h-152l-81 -434h-240zM741 395q0 -102 47.5 -167.5t131.5 -65.5h2q115 0 195.5 142t80.5 300q0 92 -42 162
t-132 70q-123 0 -203 -143.5t-80 -297.5z" />
    <glyph glyph-name="afii10097" unicode="&#x44f;" horiz-adv-x="1036" 
d="M-45 0q27 39 48.5 79t50 100.5t40.5 82.5q96 174 248 207v4q-80 18 -142.5 76.5t-62.5 144.5q0 319 531 320q190 0 329 -23l-188 -991h-236l78 395h-80q-88 0 -145 -45t-104 -137q-84 -168 -113 -213h-254zM383 692q0 -68 63.5 -103.5t143.5 -35.5h90l55 287
q-55 10 -119 10q-233 0 -233 -158z" />
    <glyph glyph-name="uni0450" unicode="&#x450;" horiz-adv-x="980" 
d="M348 1446h244l145 -303h-172zM63 391q0 240 160 434.5t404 194.5q147 0 234 -77t87 -204q0 -344 -653 -329q-4 -78 27 -142q57 -100 204.5 -100t274.5 65l22 -174q-154 -80 -352 -79q-201 0 -304.5 111.5t-103.5 299.5zM319 588q199 -2 301.5 31.5t102.5 117.5v2
q0 47 -35 75t-92 28q-102 0 -177 -77t-100 -177z" />
    <glyph glyph-name="afii10071" unicode="&#x451;" horiz-adv-x="980" 
d="M63 391q0 240 160 434.5t404 194.5q147 0 234 -77t87 -204q0 -344 -653 -329q-4 -78 27 -142q57 -100 204.5 -100t274.5 65l22 -174q-154 -80 -352 -79q-201 0 -304.5 111.5t-103.5 299.5zM319 588q199 -2 301.5 31.5t102.5 117.5v2q0 47 -35 75t-92 28q-102 0 -177 -77
t-100 -177zM338 1268q0 59 39 97t94 38q53 0 85 -35t32 -86q0 -57 -38 -95t-93 -38h-2q-49 0 -83 33t-34 86zM737 1268q0 59 39 97t94 38q53 0 85 -35t32 -86q0 -57 -38 -95t-93 -38h-2q-49 0 -83 33t-34 86z" />
    <glyph glyph-name="afii10099" unicode="&#x452;" horiz-adv-x="1124" 
d="M41 0l217 1141h-119l33 162h117l28 151h236l-27 -151h484l-33 -162h-481l-54 -271h4q125 139 293 140q156 0 233 -116t77 -300q0 -213 -70 -409.5t-207 -319.5q-61 -68 -155.5 -115t-184.5 -57l-39 196q106 18 199 109q94 80 151.5 233.5t57.5 321.5q0 260 -162 260
q-90 0 -163 -83t-95 -206l-100 -524h-240z" />
    <glyph glyph-name="afii10100" unicode="&#x453;" horiz-adv-x="813" 
d="M18 246q0 70 26 125t82 97t101 65.5t125 58.5q68 31 102.5 48t68.5 49t34 65q0 39 -30.5 62.5t-88.5 25.5q-98 0 -217 -51l-31 159q135 70 295 70q147 -2 226.5 -71.5t79.5 -188.5q0 -117 -83 -190.5t-241 -141.5q-104 -47 -153.5 -85t-49.5 -91q0 -92 121 -94
q119 0 258 71l31 -168q-152 -86 -328 -81q-154 2 -241 70.5t-87 195.5zM424 1118l197 303h251l-268 -303h-180z" />
    <glyph glyph-name="afii10101" unicode="&#x454;" horiz-adv-x="886" 
d="M66 418q0 258 161 426q172 176 441 176q150 0 245 -55l-59 -170q-82 41 -186 41q-125 0 -213 -70t-121 -184h426l-29 -158h-422v-35q10 -102 78 -163.5t180 -61.5q104 0 201 41l18 -170q-111 -57 -288 -58q-195 0 -313.5 120t-118.5 321z" />
    <glyph glyph-name="afii10102" unicode="&#x455;" horiz-adv-x="813" 
d="M4 53l62 170q117 -66 239 -65q70 0 112 34.5t42 88.5q0 47 -29 80.5t-102 72.5q-197 102 -197 258q0 143 113.5 235.5t290.5 92.5q150 0 235 -51l-61 -172q-82 45 -187 45q-68 0 -109.5 -32t-41.5 -83q0 -72 129 -137q207 -111 207 -268q0 -162 -119 -253.5t-305 -88.5
q-179 -1 -279 73z" />
    <glyph glyph-name="afii10103" unicode="&#x456;" horiz-adv-x="512" 
d="M41 0l190 997h238l-188 -997h-240zM262 1286q0 66 44 109t108 43q59 0 97 -37t38 -98q-2 -70 -46 -111t-110 -41h-2q-57 0 -93 38t-36 97z" />
    <glyph glyph-name="afii10104" unicode="&#x457;" horiz-adv-x="509" 
d="M41 0l190 997h238l-190 -997h-238zM74 1268q0 59 39 97t94 38q53 0 85 -35t32 -86q0 -57 -38 -95t-93 -38h-3q-49 0 -82.5 33t-33.5 86zM473 1268q0 59 39 97t94 38q53 0 85 -35t32 -86q0 -57 -38 -95t-93 -38h-2q-49 0 -83 33t-34 86z" />
    <glyph glyph-name="afii10105" unicode="&#x458;" horiz-adv-x="520" 
d="M-211 -414l29 183q27 -6 71 -7q63 0 105.5 50.5t66.5 183.5l191 1001h237l-184 -977q-49 -252 -135 -346q-90 -102 -252 -102q-72 0 -129 14zM272 1284q0 66 45 110t107 44q59 0 97 -37t38 -96q0 -70 -45 -112t-111 -42h-2q-57 0 -93 37t-36 96z" />
    <glyph glyph-name="afii10106" unicode="&#x459;" horiz-adv-x="1560" 
d="M-66 178q68 6 119 51q111 84 162 365l76 403h715l-84 -413h4q111 104 276 104q121 0 198 -70.5t77 -195.5q0 -180 -142.5 -309t-386.5 -129q-315 0 -315 237q0 66 24 185l82 405h-262l-43 -219q-41 -209 -94 -328t-141 -184q-102 -92 -248 -92zM868 266q0 -111 125 -110
h2q96 0 172 62.5t76 158.5q0 63 -36 101t-99 38q-74 0 -135.5 -50t-87.5 -114q-17 -43 -17 -86z" />
    <glyph glyph-name="afii10107" unicode="&#x45a;" horiz-adv-x="1581" 
d="M41 0l188 997h238l-70 -366h328l72 366h231l-84 -413h2q47 47 123 75.5t148 28.5q123 0 201.5 -71.5t78.5 -196.5q0 -180 -142.5 -308t-387.5 -128q-313 0 -314 225q0 51 17 133l20 104h-328l-83 -446h-238zM889 258q0 -47 34.5 -74.5t90.5 -27.5h2q100 0 174 61.5
t74 159.5q0 63 -37 101t-103 38q-76 0 -137 -52t-82 -120q-16 -49 -16 -86z" />
    <glyph glyph-name="afii10108" unicode="&#x45b;" horiz-adv-x="1128" 
d="M43 0l215 1143h-137l31 157h137l28 154h240l-31 -154h461l-33 -157h-456l-58 -295h4q141 172 334 172q109 0 179.5 -68.5t70.5 -199.5q0 -76 -18 -177l-109 -575h-237l106 559q12 74 12 129q0 137 -125 137q-90 0 -174 -98t-112 -252l-90 -475h-238z" />
    <glyph glyph-name="afii10109" unicode="&#x45c;" horiz-adv-x="991" 
d="M41 0l190 997h234l-82 -424h33l379 424h282l-459 -450q131 -43 191 -289q63 -233 76 -258h-236q-10 23 -21.5 60.5t-24.5 92t-23 87.5q-31 104 -75 147t-122 43h-27l-82 -430h-233zM502 1118l196 303h252l-268 -303h-180z" />
    <glyph glyph-name="uni045D" unicode="&#x45d;" horiz-adv-x="1116" 
d="M370 1446h244l145 -303h-172zM92 260q0 82 21 178l106 559h238l-103 -544q-16 -78 -16 -138q0 -141 127 -141q86 0 168 94t110 246l91 483h239l-131 -688q-20 -106 -49 -309h-213l22 174h-4q-147 -197 -346 -197q-117 0 -188.5 69t-71.5 214z" />
    <glyph glyph-name="afii10110" unicode="&#x45e;" horiz-adv-x="964" 
d="M-66 -254q117 43 177 88q109 76 176 199q10 18 4 47l-199 917h250l78 -481q37 -219 41 -250h4q12 33 45 111t53 129l207 491h252q-299 -627 -358 -745q-184 -360 -367 -539q-145 -139 -307 -172zM358 1409h160q-8 -63 15.5 -102t72.5 -39q90 0 129 141h160
q-27 -125 -106.5 -192.5t-198.5 -67.5q-129 0 -185.5 71.5t-46.5 188.5z" />
    <glyph glyph-name="afii10193" unicode="&#x45f;" horiz-adv-x="1116" 
d="M92 260q0 82 21 178l106 559h238l-103 -544q-16 -78 -16 -138q0 -141 127 -141q86 0 168 94t110 246l91 483h239l-131 -688q-20 -106 -49 -309h-213l22 174h-4q-70 -94 -164 -145.5t-182 -51.5q-117 0 -188.5 69t-71.5 214zM283 -420l67 328l215 14l-90 -315z" />
    <glyph glyph-name="uni0470" unicode="&#x470;" horiz-adv-x="1374" 
d="M137 801q0 63 17 162l79 417h232l-76 -399q-16 -98 -16 -152q0 -119 52 -176t161 -69l149 796h223l-149 -798q137 10 223 104t127 311l72 383h231l-80 -428q-49 -266 -206.5 -405t-399.5 -150l-74 -397h-225l76 397q-80 8 -149.5 33t-132 70t-98.5 123t-36 178z" />
    <glyph glyph-name="uni0471" unicode="&#x471;" horiz-adv-x="1353" 
d="M94 358q0 86 17 166l43 226q33 178 28 247h215q23 -41 -4 -184l-51 -283q-16 -94 -16 -163q2 -104 50 -157.5t126 -59.5l207 1107h215l-207 -1107q141 2 248.5 179t107.5 492q0 123 -16 176h217q29 -76 29 -194q0 -354 -167 -583.5t-450 -242.5l-72 -383h-217l72 383
q-164 14 -269.5 108.5t-105.5 272.5z" />
    <glyph glyph-name="afii10050" unicode="&#x490;" horiz-adv-x="872" 
d="M51 0l260 1380h514l90 267h185l-117 -476h-473l-219 -1171h-240z" />
    <glyph glyph-name="afii10098" unicode="&#x491;" horiz-adv-x="796" 
d="M41 0l188 997h426l82 230h178l-102 -418h-381l-153 -809h-238z" />
    <glyph glyph-name="uni04AE" unicode="&#x4ae;" horiz-adv-x="1118" 
d="M156 1380h256l108 -393q41 -168 55 -242h5q61 109 143 246l250 389h282l-591 -809l-109 -571h-240l109 567z" />
    <glyph glyph-name="uni04C0" unicode="&#x4c0;" horiz-adv-x="524" 
d="M45 0l262 1380h238l-262 -1380h-238z" />
    <glyph glyph-name="uni04C1" unicode="&#x4c1;" horiz-adv-x="1662" 
d="M807 1784h129q0 -127 105 -127q61 0 97 37t48 90h133q-20 -119 -96 -188.5t-192 -69.5q-131 0 -184.5 71.5t-39.5 186.5zM-63 0q31 45 60.5 102.5t68 144.5t55.5 120q94 188 182 271t238 110l-348 632h256l270 -604h35l110 604h228l-113 -604h39l485 604h273l-574 -632
q119 -33 177.5 -136.5t88.5 -267.5q41 -250 72 -344h-240q-25 80 -67 338q-23 137 -78 203.5t-166 66.5h-39l-112 -608h-232l117 610h-37q-113 0 -190.5 -69.5t-143.5 -208.5q-16 -35 -50 -108.5t-60.5 -126t-53.5 -97.5h-251z" />
    <glyph glyph-name="uni04C2" unicode="&#x4c2;" horiz-adv-x="1404" 
d="M620 1401h129q0 -127 105 -127q61 0 97 37t48 90h133q-20 -119 -96 -188.5t-192 -69.5q-131 0 -184.5 71.5t-39.5 186.5zM-76 0q4 6 129 262q131 270 328 287l-260 448h258l190 -424h31l80 424h225l-84 -424h33l356 424h267l-426 -446q135 -35 182 -283q43 -217 59 -268
h-229q-18 47 -49 225q-20 102 -61.5 154.5t-125.5 52.5h-32l-82 -432h-226l86 432h-24q-94 0 -156.5 -47t-111.5 -145q-18 -35 -57.5 -118t-61.5 -122h-238z" />
    <glyph glyph-name="uni04D0" unicode="&#x4d0;" 
d="M606 1784h129q0 -127 105 -127q61 0 97 37t48 90h133q-20 -119 -96 -188.5t-192 -69.5q-131 0 -184.5 71.5t-39.5 186.5zM-55 0l690 1380h299l174 -1380h-248l-41 393h-432l-188 -393h-254zM463 578h344l-39 342q-8 82 -23 264h-4q-10 -25 -50 -120t-62 -142z" />
    <glyph glyph-name="uni04D1" unicode="&#x4d1;" horiz-adv-x="1105" 
d="M579 1401h129q0 -127 105 -127q61 0 97 37t48 90h133q-20 -119 -96 -188.5t-192 -69.5q-131 0 -184.5 71.5t-39.5 186.5zM59 317q0 131 45.5 254t130 224.5t222 163t305.5 61.5q162 0 301 -45l-100 -520q-47 -248 -41 -455h-222q4 100 19 223h-6q-135 -246 -359 -246
q-133 0 -214 94t-81 246zM307 360q0 -190 144 -190q88 0 175 106.5t119 286.5l50 262q-41 10 -97 11q-160 0 -275.5 -149t-115.5 -327z" />
    <glyph glyph-name="uni04D2" unicode="&#x4d2;" 
d="M512 1645q0 59 39 97t94 38q53 0 85 -35t32 -86q0 -57 -38 -95t-93 -38h-2q-49 0 -83 33t-34 86zM912 1645q0 59 38.5 97t94.5 38q53 0 84.5 -35t31.5 -86q0 -57 -37.5 -95t-93.5 -38h-2q-49 0 -82.5 33t-33.5 86zM-55 0l690 1380h299l174 -1380h-248l-41 393h-432
l-188 -393h-254zM463 578h344l-39 342q-8 82 -23 264h-4q-10 -25 -50 -120t-62 -142z" />
    <glyph glyph-name="uni04D3" unicode="&#x4d3;" horiz-adv-x="1105" 
d="M485 1262q0 59 39 97t94 38q53 0 85 -35t32 -86q0 -57 -38 -95t-93 -38h-2q-49 0 -83 33t-34 86zM885 1262q0 59 38.5 97t94.5 38q53 0 84.5 -35t31.5 -86q0 -57 -37.5 -95t-93.5 -38h-2q-49 0 -82.5 33t-33.5 86zM59 317q0 131 45.5 254t130 224.5t222 163t305.5 61.5
q162 0 301 -45l-100 -520q-47 -248 -41 -455h-222q4 100 19 223h-6q-135 -246 -359 -246q-133 0 -214 94t-81 246zM307 360q0 -190 144 -190q88 0 175 106.5t119 286.5l50 262q-41 10 -97 11q-160 0 -275.5 -149t-115.5 -327z" />
    <glyph glyph-name="uni04D4" unicode="&#x4d4;" horiz-adv-x="1662" 
d="M-102 0l878 1380h895l-37 -202h-520l-37 -367h494l-37 -201h-467l-37 -407h524l-38 -203h-730l37 428h-403l-268 -428h-254zM535 629h303l32 362q20 209 21 211h-6q-88 -156 -121 -209z" />
    <glyph glyph-name="uni04D5" unicode="&#x4d5;" horiz-adv-x="1521" 
d="M10 244q0 135 94.5 229t236.5 134t314 36l4 31q12 61 -30.5 117.5t-143.5 56.5q-137 0 -270 -84l-41 154q160 102 340 102q238 0 291 -182h6q59 86 155.5 134t207.5 48q152 0 233.5 -77t81.5 -181q0 -102 -50 -171t-145.5 -100.5t-205 -42t-254.5 -4.5q-14 -104 14 -170
q59 -109 217 -108q131 0 278 65l15 -170q-143 -84 -348 -84q-115 0 -203 51.5t-125 145.5h-6q-133 -197 -375 -197q-133 0 -212 76t-79 191zM250 281q0 -55 33.5 -87t93.5 -32q82 0 148.5 58.5t84.5 162.5l19 100q-59 2 -118.5 -6t-122 -27.5t-100.5 -63.5t-38 -105z
M862 612q188 -8 291.5 16.5t103.5 110.5v2q0 41 -33.5 72t-93.5 31q-104 0 -176 -74t-92 -158z" />
    <glyph glyph-name="uni04D6" unicode="&#x4d6;" horiz-adv-x="1015" 
d="M516 1784h129q0 -127 105 -127q61 0 97 37t48 90h133q-20 -119 -96 -188.5t-192 -69.5q-131 0 -184.5 71.5t-39.5 186.5zM49 0l262 1380h766l-39 -202h-526l-70 -363h498l-39 -201h-495l-78 -411h557l-39 -203h-797z" />
    <glyph glyph-name="uni04D7" unicode="&#x4d7;" horiz-adv-x="980" 
d="M444 1401h129q0 -127 105 -127q61 0 97 37t48 90h133q-20 -119 -96 -188.5t-192 -69.5q-131 0 -184.5 71.5t-39.5 186.5zM63 391q0 240 160 434.5t404 194.5q147 0 234 -77t87 -204q0 -344 -653 -329q-4 -78 27 -142q57 -100 204.5 -100t274.5 65l22 -174
q-154 -80 -352 -79q-201 0 -304.5 111.5t-103.5 299.5zM319 588q199 -2 301.5 31.5t102.5 117.5v2q0 47 -35 75t-92 28q-102 0 -177 -77t-100 -177z" />
    <glyph glyph-name="afii10846" unicode="&#x4d9;" horiz-adv-x="968" 
d="M23 258q0 344 653 330q8 76 -25 139q-57 104 -205 104q-143 0 -270 -67l-31 172q150 84 355 84q201 0 305 -112.5t104 -303.5q0 -154 -67.5 -296t-198.5 -235t-295 -93q-147 0 -236 76.5t-89 201.5zM248 260q0 -47 34.5 -74.5t94.5 -27.5h2q102 0 175 75.5t97 176.5
q-199 2 -301 -32t-102 -118z" />
    <glyph glyph-name="uni04DB" unicode="&#x4db;" horiz-adv-x="968" 
d="M223 1262q0 59 39 97t94 38q53 0 85 -35t32 -86q0 -57 -38 -95t-93 -38h-2q-49 0 -83 33t-34 86zM623 1262q0 59 38.5 97t94.5 38q53 0 84.5 -35t31.5 -86q0 -57 -37.5 -95t-93.5 -38h-2q-49 0 -82.5 33t-33.5 86zM23 258q0 344 653 330q8 76 -25 139q-57 104 -205 104
q-143 0 -270 -67l-31 172q150 84 355 84q201 0 305 -112.5t104 -303.5q0 -154 -67.5 -296t-198.5 -235t-295 -93q-147 0 -236 76.5t-89 201.5zM248 260q0 -47 34.5 -74.5t94.5 -27.5h2q102 0 175 75.5t97 176.5q-199 2 -301 -32t-102 -118z" />
    <glyph glyph-name="uni04DC" unicode="&#x4dc;" horiz-adv-x="1662" 
d="M712 1645q0 59 39 97t94 38q53 0 85 -35t32 -86q0 -57 -38 -95t-93 -38h-2q-49 0 -83 33t-34 86zM1112 1645q0 59 38.5 97t94.5 38q53 0 84.5 -35t31.5 -86q0 -57 -37.5 -95t-93.5 -38h-2q-49 0 -82.5 33t-33.5 86zM-63 0q31 45 60.5 102.5t68 144.5t55.5 120
q94 188 182 271t238 110l-348 632h256l270 -604h35l110 604h228l-113 -604h39l485 604h273l-574 -632q119 -33 177.5 -136.5t88.5 -267.5q41 -250 72 -344h-240q-25 80 -67 338q-23 137 -78 203.5t-166 66.5h-39l-112 -608h-232l117 610h-37q-113 0 -190.5 -69.5
t-143.5 -208.5q-16 -35 -50 -108.5t-60.5 -126t-53.5 -97.5h-251z" />
    <glyph glyph-name="uni04DD" unicode="&#x4dd;" horiz-adv-x="1404" 
d="M526 1262q0 59 39 97t94 38q53 0 85 -35t32 -86q0 -57 -38 -95t-93 -38h-2q-49 0 -83 33t-34 86zM926 1262q0 59 38.5 97t94.5 38q53 0 84.5 -35t31.5 -86q0 -57 -37.5 -95t-93.5 -38h-2q-49 0 -82.5 33t-33.5 86zM-76 0q4 6 129 262q131 270 328 287l-260 448h258
l190 -424h31l80 424h225l-84 -424h33l356 424h267l-426 -446q135 -35 182 -283q43 -217 59 -268h-229q-18 47 -49 225q-20 102 -61.5 154.5t-125.5 52.5h-32l-82 -432h-226l86 432h-24q-94 0 -156.5 -47t-111.5 -145q-18 -35 -57.5 -118t-61.5 -122h-238z" />
    <glyph glyph-name="uni04DE" unicode="&#x4de;" horiz-adv-x="985" 
d="M293 1645q0 59 39 97t94 38q53 0 85 -35t32 -86q0 -57 -38 -95t-93 -38h-2q-49 0 -83 33t-34 86zM693 1645q0 59 38.5 97t94.5 38q53 0 84.5 -35t31.5 -86q0 -57 -37.5 -95t-93.5 -38h-2q-49 0 -82.5 33t-33.5 86zM-25 82l76 182q139 -84 301 -84q121 0 206 64.5
t85 179.5q0 100 -87 153.5t-194 51.5h-94l33 182h80q131 0 226 58.5t93 172.5q0 78 -51 122t-131 44q-131 0 -274 -78l-49 170q160 102 374 103q160 0 269.5 -81t109.5 -241q0 -135 -88 -228t-219 -124l-2 -4q111 -25 180.5 -107.5t69.5 -203.5q0 -207 -157 -322t-380 -115
q-219 1 -377 105z" />
    <glyph glyph-name="uni04DF" unicode="&#x4df;" horiz-adv-x="888" 
d="M182 1262q0 59 39 97t94 38q53 0 85 -35t32 -86q0 -57 -38 -95t-93 -38h-2q-49 0 -83 33t-34 86zM582 1262q0 59 38.5 97t94.5 38q53 0 84.5 -35t31.5 -86q0 -57 -37.5 -95t-93.5 -38h-2q-49 0 -82.5 33t-33.5 86zM-37 76l64 162q131 -78 276 -78q88 0 156.5 35.5
t68.5 107.5q0 135 -229 135h-102l24 160h96q92 0 167 35t75 102q0 53 -43 82t-108 29q-121 0 -242 -66l-45 146q154 92 336 92q63 0 122.5 -12.5t112.5 -39t86 -77.5t33 -121q0 -96 -74.5 -158.5t-183.5 -85.5v-2q90 -14 158.5 -74.5t68.5 -156.5q0 -111 -74.5 -184.5
t-172 -99t-207.5 -25.5q-220 0 -363 94z" />
    <glyph glyph-name="uni04E2" unicode="&#x4e2;" horiz-adv-x="1323" 
d="M619 1526l27 137h479l-27 -137h-479zM51 0l262 1380h228l-99 -510q-68 -346 -127 -577h4q111 180 316 465l455 622h256l-263 -1380h-225l98 520q66 332 115 529l-4 2q-111 -188 -313 -473l-428 -578h-275z" />
    <glyph glyph-name="uni04E3" unicode="&#x4e3;" horiz-adv-x="1116" 
d="M436 1143l27 137h479l-27 -137h-479zM92 260q0 82 21 178l106 559h238l-103 -544q-16 -78 -16 -138q0 -141 127 -141q86 0 168 94t110 246l91 483h239l-131 -688q-20 -106 -49 -309h-213l22 174h-4q-147 -197 -346 -197q-117 0 -188.5 69t-71.5 214z" />
    <glyph glyph-name="uni04E4" unicode="&#x4e4;" horiz-adv-x="1323" 
d="M557 1645q0 59 39 97t94 38q53 0 85 -35t32 -86q0 -57 -38 -95t-93 -38h-2q-49 0 -83 33t-34 86zM957 1645q0 59 38.5 97t94.5 38q53 0 84.5 -35t31.5 -86q0 -57 -37.5 -95t-93.5 -38h-2q-49 0 -82.5 33t-33.5 86zM51 0l262 1380h228l-99 -510q-68 -346 -127 -577h4
q111 180 316 465l455 622h256l-263 -1380h-225l98 520q66 332 115 529l-4 2q-111 -188 -313 -473l-428 -578h-275z" />
    <glyph glyph-name="uni04E5" unicode="&#x4e5;" horiz-adv-x="1116" 
d="M375 1262q0 59 39 97t94 38q53 0 85 -35t32 -86q0 -57 -38 -95t-93 -38h-2q-49 0 -83 33t-34 86zM775 1262q0 59 38.5 97t94.5 38q53 0 84.5 -35t31.5 -86q0 -57 -37.5 -95t-93.5 -38h-2q-49 0 -82.5 33t-33.5 86zM92 260q0 82 21 178l106 559h238l-103 -544
q-16 -78 -16 -138q0 -141 127 -141q86 0 168 94t110 246l91 483h239l-131 -688q-20 -106 -49 -309h-213l22 174h-4q-147 -197 -346 -197q-117 0 -188.5 69t-71.5 214z" />
    <glyph glyph-name="uni04E6" unicode="&#x4e6;" horiz-adv-x="1409" 
d="M565 1645q0 59 39 97t94 38q53 0 85 -35t32 -86q0 -57 -38 -95t-93 -38h-2q-49 0 -83 33t-34 86zM965 1645q0 59 38.5 97t94.5 38q53 0 84.5 -35t31.5 -86q0 -57 -37.5 -95t-93.5 -38h-2q-49 0 -82.5 33t-33.5 86zM98 547q0 184 66.5 359t183.5 294q203 203 494 203
q262 0 401 -161t139 -411q0 -184 -63.5 -358t-175.5 -291q-201 -205 -500 -205h-2q-258 0 -400.5 163t-142.5 407zM350 559q0 -170 80 -275.5t244 -105.5h2q188 0 321 206t133 439q0 74 -14 137.5t-48 120t-99.5 89t-155.5 32.5q-131 0 -240.5 -101.5t-166 -248
t-56.5 -293.5z" />
    <glyph glyph-name="uni04E7" unicode="&#x4e7;" horiz-adv-x="1110" 
d="M364 1262q0 59 39 97t94 38q53 0 85 -35t32 -86q0 -57 -38 -95t-93 -38h-2q-49 0 -83 33t-34 86zM764 1262q0 59 38.5 97t94.5 38q53 0 84.5 -35t31.5 -86q0 -57 -37.5 -95t-93.5 -38h-2q-49 0 -82.5 33t-33.5 86zM63 389q0 260 163 445.5t415 185.5q193 0 300.5 -119
t107.5 -293q0 -260 -163 -445.5t-413 -185.5h-2q-186 0 -297 116t-111 296zM309 395q0 -104 51.5 -168.5t141.5 -64.5h2q127 0 213 141t86 303q0 90 -46 160t-147 70q-133 0 -217 -142.5t-84 -298.5z" />
    <glyph glyph-name="uni04E8" unicode="&#x4e8;" horiz-adv-x="1409" 
d="M98 547q0 182 66.5 358t183.5 297q201 201 494 201q262 0 401 -161t139 -411q0 -184 -63.5 -358t-177.5 -291q-199 -205 -498 -205h-2q-256 0 -399.5 163t-143.5 407zM350 559q0 -170 80 -276.5t244 -106.5h2q125 0 232.5 101.5t164.5 250t57 295.5q0 76 -14 138.5
t-48 120t-99.5 90t-157.5 32.5q-131 0 -239.5 -102.5t-165 -250t-56.5 -292.5zM489 612l31 191h479l-32 -191h-478z" />
    <glyph glyph-name="uni04E9" unicode="&#x4e9;" horiz-adv-x="1101" 
d="M80 467q0 176 43 356q66 287 218.5 470.5t371.5 183.5q180 0 278.5 -129t98.5 -340q0 -143 -29 -297q-63 -328 -212 -531t-376 -203h-2q-186 0 -288.5 126t-102.5 364zM311 434q0 -135 48.5 -209.5t134.5 -74.5q221 0 315 507h-475q-23 -135 -23 -223zM367 831h475
q16 100 16 197q0 127 -44 202t-130 75q-117 0 -197.5 -133.5t-119.5 -340.5z" />
    <glyph glyph-name="uni04EA" unicode="&#x4ea;" horiz-adv-x="1409" 
d="M565 1645q0 59 39 97t94 38q53 0 85 -35t32 -86q0 -57 -38 -95t-93 -38h-2q-49 0 -83 33t-34 86zM965 1645q0 59 38.5 97t94.5 38q53 0 84.5 -35t31.5 -86q0 -57 -37.5 -95t-93.5 -38h-2q-49 0 -82.5 33t-33.5 86zM98 547q0 182 66.5 358t183.5 297q201 201 494 201
q262 0 401 -161t139 -411q0 -184 -63.5 -358t-177.5 -291q-199 -205 -498 -205h-2q-256 0 -399.5 163t-143.5 407zM350 559q0 -170 80 -276.5t244 -106.5h2q125 0 232.5 101.5t164.5 250t57 295.5q0 76 -14 138.5t-48 120t-99.5 90t-157.5 32.5q-131 0 -239.5 -102.5
t-165 -250t-56.5 -292.5zM489 612l31 191h479l-32 -191h-478z" />
    <glyph glyph-name="uni04EB" unicode="&#x4eb;" horiz-adv-x="1101" 
d="M436 1719q0 59 39 97t94 38q53 0 85 -35t32 -86q0 -57 -38 -95t-93 -38h-2q-49 0 -83 33t-34 86zM836 1719q0 59 38.5 97t94.5 38q53 0 84.5 -35t31.5 -86q0 -57 -37.5 -95t-93.5 -38h-2q-49 0 -82.5 33t-33.5 86zM80 467q0 176 43 356q66 287 218.5 470.5t371.5 183.5
q180 0 278.5 -129t98.5 -340q0 -143 -29 -297q-63 -328 -212 -531t-376 -203h-2q-186 0 -288.5 126t-102.5 364zM311 434q0 -135 48.5 -209.5t134.5 -74.5q221 0 315 507h-475q-23 -135 -23 -223zM367 831h475q16 100 16 197q0 127 -44 202t-130 75q-117 0 -197.5 -133.5
t-119.5 -340.5z" />
    <glyph glyph-name="uni04EC" unicode="&#x4ec;" horiz-adv-x="1144" 
d="M260 1645q0 59 39 97t94 38q53 0 85 -35t32 -86q0 -57 -38 -95t-93 -38h-2q-49 0 -83 33t-34 86zM660 1645q0 59 38.5 97t94.5 38q53 0 84.5 -35t31.5 -86q0 -57 -37.5 -95t-93.5 -38h-2q-49 0 -82.5 33t-33.5 86zM-23 57l64 189q131 -66 289 -66q203 0 336 117t170 299
h-598l36 192h590q2 14 2 52q-2 152 -98 256t-264 104q-141 0 -275 -55l-47 180q160 78 355 78q268 0 423.5 -166t155.5 -444q0 -381 -235 -615q-205 -201 -547 -201q-222 0 -357 80z" />
    <glyph glyph-name="uni04ED" unicode="&#x4ed;" horiz-adv-x="935" 
d="M131 1262q0 59 39 97t94 38q53 0 85 -35t32 -86q0 -57 -38 -95t-93 -38h-2q-49 0 -83 33t-34 86zM531 1262q0 59 38.5 97t94.5 38q53 0 84.5 -35t31.5 -86q0 -57 -37.5 -95t-93.5 -38h-2q-49 0 -82.5 33t-33.5 86zM-25 47l60 170q106 -53 237 -53q129 0 218.5 67.5
t115.5 190.5h-418l29 158h412v26q0 98 -66.5 164t-185.5 66q-109 0 -215 -41l-41 166q143 59 287 59q219 0 337.5 -126t118.5 -341q0 -254 -158.5 -415t-435.5 -161q-189 7 -295 70z" />
    <glyph glyph-name="uni04EE" unicode="&#x4ee;" horiz-adv-x="1083" 
d="M504 1526l27 137h479l-27 -137h-479zM72 8l43 195q43 -16 106 -17q135 0 223 170q25 39 9 88l-289 936h262l143 -551q33 -127 60 -258h8q74 178 121 287l233 522h273l-355 -696q-84 -160 -122.5 -231.5t-114.5 -185t-144 -175.5q-123 -115 -292 -115q-101 0 -164 31z" />
    <glyph glyph-name="uni04EF" unicode="&#x4ef;" horiz-adv-x="964" 
d="M346 1143l27 137h479l-27 -137h-479zM-66 -254q117 43 177 88q109 76 176 199q10 18 4 47l-199 917h250l78 -481q37 -219 41 -250h4q12 33 45 111t53 129l207 491h252q-299 -627 -358 -745q-184 -360 -367 -539q-145 -139 -307 -172z" />
    <glyph glyph-name="uni04F0" unicode="&#x4f0;" horiz-adv-x="1083" 
d="M442 1645q0 59 39 97t94 38q53 0 85 -35t32 -86q0 -57 -38 -95t-93 -38h-2q-49 0 -83 33t-34 86zM842 1645q0 59 38.5 97t94.5 38q53 0 84.5 -35t31.5 -86q0 -57 -37.5 -95t-93.5 -38h-2q-49 0 -82.5 33t-33.5 86zM72 8l43 195q43 -16 106 -17q135 0 223 170q25 39 9 88
l-289 936h262l143 -551q33 -127 60 -258h8q74 178 121 287l233 522h273l-355 -696q-84 -160 -122.5 -231.5t-114.5 -185t-144 -175.5q-123 -115 -292 -115q-101 0 -164 31z" />
    <glyph glyph-name="uni04F1" unicode="&#x4f1;" horiz-adv-x="964" 
d="M284 1262q0 59 39 97t94 38q53 0 85 -35t32 -86q0 -57 -38 -95t-93 -38h-2q-49 0 -83 33t-34 86zM684 1262q0 59 38.5 97t94.5 38q53 0 84.5 -35t31.5 -86q0 -57 -37.5 -95t-93.5 -38h-2q-49 0 -82.5 33t-33.5 86zM-66 -254q117 43 177 88q109 76 176 199q10 18 4 47
l-199 917h250l78 -481q37 -219 41 -250h4q12 33 45 111t53 129l207 491h252q-299 -627 -358 -745q-184 -360 -367 -539q-145 -139 -307 -172z" />
    <glyph glyph-name="uni04F2" unicode="&#x4f2;" horiz-adv-x="1083" 
d="M502 1526l180 303h219l-250 -303h-149zM834 1526l180 303h219l-252 -303h-147zM72 8l43 195q43 -16 106 -17q135 0 223 170q25 39 9 88l-289 936h262l143 -551q33 -127 60 -258h8q74 178 121 287l233 522h273l-355 -696q-84 -160 -122.5 -231.5t-114.5 -185t-144 -175.5
q-123 -115 -292 -115q-101 0 -164 31z" />
    <glyph glyph-name="uni04F3" unicode="&#x4f3;" horiz-adv-x="964" 
d="M346 1143l180 303h219l-250 -303h-149zM678 1143l180 303h219l-252 -303h-147zM-66 -254q117 43 177 88q109 76 176 199q10 18 4 47l-199 917h250l78 -481q37 -219 41 -250h4q12 33 45 111t53 129l207 491h252q-299 -627 -358 -745q-184 -360 -367 -539
q-145 -139 -307 -172z" />
    <glyph glyph-name="uni04F4" unicode="&#x4f4;" horiz-adv-x="1189" 
d="M473 1645q0 59 39 97t94 38q53 0 85 -35t32 -86q0 -57 -38 -95t-93 -38h-2q-49 0 -83 33t-34 86zM873 1645q0 59 38.5 97t94.5 38q53 0 84.5 -35t31.5 -86q0 -57 -37.5 -95t-93.5 -38h-2q-49 0 -82.5 33t-33.5 86zM174 795q0 68 23 180l77 405h238l-76 -393
q-16 -92 -16 -133q0 -172 205 -172q129 0 231 66l121 632h237l-264 -1386h-237l106 557l-4 2q-119 -66 -289 -66q-164 0 -258 82.5t-94 225.5z" />
    <glyph glyph-name="uni04F5" unicode="&#x4f5;" horiz-adv-x="1064" 
d="M338 1262q0 59 39 97t94 38q53 0 85 -35t32 -86q0 -57 -38 -95t-93 -38h-2q-49 0 -83 33t-34 86zM738 1262q0 59 38.5 97t94.5 38q53 0 84.5 -35t31.5 -86q0 -57 -37.5 -95t-93.5 -38h-2q-49 0 -82.5 33t-33.5 86zM121 578q0 61 22 170l50 249h239l-47 -227
q-18 -96 -18 -139q0 -127 147 -127q117 0 197 71l77 422h238l-190 -997h-238l80 393h-4q-111 -68 -252 -67q-152 0 -226.5 67.5t-74.5 184.5z" />
    <glyph glyph-name="uni04F8" unicode="&#x4f8;" horiz-adv-x="1583" 
d="M688 1645q0 59 39 97t94 38q53 0 85 -35t32 -86q0 -57 -38 -95t-93 -38h-2q-49 0 -83 33t-34 86zM1088 1645q0 59 38.5 97t94.5 38q53 0 84.5 -35t31.5 -86q0 -57 -37.5 -95t-93.5 -38h-2q-49 0 -82.5 33t-33.5 86zM51 4l260 1376h238l-96 -497q61 12 155 12
q186 0 306 -102.5t120 -292.5q0 -205 -137 -338q-178 -176 -541 -176q-172 0 -305 18zM319 184q35 -8 119 -8q133 0 237.5 77t104.5 214q0 115 -65.5 176.5t-177.5 61.5q-55 0 -121 -13zM1094 0l264 1380h250l-265 -1380h-249z" />
    <glyph glyph-name="uni04F9" unicode="&#x4f9;" horiz-adv-x="1435" 
d="M542 1262q0 59 39 97t94 38q53 0 85 -35t32 -86q0 -57 -38 -95t-93 -38h-2q-49 0 -83 33t-34 86zM942 1262q0 59 38.5 97t94.5 38q53 0 84.5 -35t31.5 -86q0 -57 -37.5 -95t-93.5 -38h-2q-49 0 -82.5 33t-33.5 86zM80 215q0 78 26 193l130 589h235l-102 -417h2
q49 49 123.5 78.5t146.5 29.5q121 0 195.5 -71.5t74.5 -196.5q0 -176 -141 -306t-377 -130q-313 0 -313 231zM315 256q0 -47 32 -73.5t91 -26.5h2q92 0 165 63.5t73 159.5q0 63 -35 100t-100 37q-70 0 -132.5 -53t-80.5 -119q-15 -49 -15 -88zM956 0l191 997h248l-191 -997
h-248z" />
    <glyph glyph-name="uni2000" unicode="&#x2000;" horiz-adv-x="925" 
 />
    <glyph glyph-name="uni2001" unicode="&#x2001;" horiz-adv-x="1853" 
 />
    <glyph glyph-name="uni2002" unicode="&#x2002;" horiz-adv-x="925" 
 />
    <glyph glyph-name="uni2003" unicode="&#x2003;" horiz-adv-x="1853" 
 />
    <glyph glyph-name="uni2004" unicode="&#x2004;" horiz-adv-x="616" 
 />
    <glyph glyph-name="uni2005" unicode="&#x2005;" horiz-adv-x="462" 
 />
    <glyph glyph-name="uni2006" unicode="&#x2006;" horiz-adv-x="307" 
 />
    <glyph glyph-name="uni2007" unicode="&#x2007;" horiz-adv-x="307" 
 />
    <glyph glyph-name="uni2008" unicode="&#x2008;" horiz-adv-x="231" 
 />
    <glyph glyph-name="uni2009" unicode="&#x2009;" horiz-adv-x="370" 
 />
    <glyph glyph-name="uni200A" unicode="&#x200a;" horiz-adv-x="102" 
 />
    <glyph glyph-name="uni2010" unicode="&#x2010;" horiz-adv-x="645" 
d="M61 459l33 174h512l-33 -174h-512z" />
    <glyph glyph-name="uni2011" unicode="&#x2011;" horiz-adv-x="645" 
d="M61 459l33 174h512l-33 -174h-512z" />
    <glyph glyph-name="figuredash" unicode="&#x2012;" horiz-adv-x="645" 
d="M61 459l33 174h512l-33 -174h-512z" />
    <glyph glyph-name="endash" unicode="&#x2013;" horiz-adv-x="1024" 
d="M51 440l31 160h901l-31 -160h-901z" />
    <glyph glyph-name="emdash" unicode="&#x2014;" horiz-adv-x="2048" 
d="M51 440l31 160h1925l-31 -160h-1925z" />
    <glyph glyph-name="quoteleft" unicode="&#x2018;" horiz-adv-x="464" 
d="M137 879q143 319 299 524l160 14q-141 -279 -213 -518z" />
    <glyph glyph-name="quoteright" unicode="&#x2019;" horiz-adv-x="464" 
d="M125 879q133 262 213 518l246 20q-154 -332 -299 -524z" />
    <glyph glyph-name="quotesinglbase" unicode="&#x201a;" horiz-adv-x="464" 
d="M-111 -242q147 289 220 535l256 20q-143 -319 -308 -538z" />
    <glyph glyph-name="quotedblleft" unicode="&#x201c;" horiz-adv-x="821" 
d="M137 879q141 315 297 524l160 14q-133 -262 -213 -518zM496 879q147 328 297 524l159 14q-141 -279 -213 -518z" />
    <glyph glyph-name="quotedblright" unicode="&#x201d;" horiz-adv-x="821" 
d="M123 879q133 262 213 518l244 20q-147 -328 -297 -524zM481 879q133 262 213 518l244 20q-141 -315 -297 -524z" />
    <glyph glyph-name="quotedblbase" unicode="&#x201e;" horiz-adv-x="821" 
d="M-121 -242q147 289 219 535l256 20q-143 -319 -307 -538zM260 -242q147 289 219 535l256 20q-143 -319 -307 -538z" />
    <glyph glyph-name="dagger" unicode="&#x2020;" horiz-adv-x="1030" 
d="M135 784l37 197l340 -20l59 419h228l-105 -419l348 20l-38 -197l-338 21l-152 -907h-227l196 907z" />
    <glyph glyph-name="daggerdbl" unicode="&#x2021;" horiz-adv-x="1030" 
d="M41 285l37 196l338 -20l69 370l-344 -20l37 197l336 -21l59 393h222l-95 -393l344 21l-36 -197l-338 20l-70 -370l344 20l-37 -196l-338 20l-59 -407h-221l96 407z" />
    <glyph glyph-name="bullet" unicode="&#x2022;" horiz-adv-x="632" 
d="M82 543q-2 100 69.5 171.5t174 71.5t173 -70.5t70.5 -173t-70.5 -173t-172.5 -70.5h-2q-100 0 -171 70t-71 174z" />
    <glyph glyph-name="ellipsis" unicode="&#x2026;" horiz-adv-x="2048" 
d="M115 127q0 74 48 125t120 51q63 0 104 -43t41 -108q0 -74 -48 -123t-122 -49h-2q-61 0 -101 42t-40 105zM799 127q0 74 48 125t120 51q63 0 104 -43t41 -108q0 -74 -48 -123t-122 -49h-2q-61 0 -101 42t-40 105zM1483 127q0 74 48 125t120 51q63 0 104 -43t41 -108
q0 -74 -48 -123t-122 -49h-2q-61 0 -101 42t-40 105z" />
    <glyph glyph-name="uni202F" unicode="&#x202f;" horiz-adv-x="370" 
 />
    <glyph glyph-name="perthousand" unicode="&#x2030;" horiz-adv-x="2455" 
d="M135 842q0 203 116 357.5t296 154.5h2q127 0 198.5 -83t71.5 -210q0 -221 -115.5 -373.5t-289.5 -152.5q-127 0 -203 83t-76 224zM299 -25l995 1379h152l-995 -1379h-152zM322 836q0 -160 112 -160q88 0 143.5 127t55.5 256q0 154 -111 153h-2q-86 0 -142 -123.5
t-56 -252.5zM934 291q0 203 115.5 357.5t296.5 154.5h2q127 0 198.5 -83t71.5 -210q0 -221 -116 -373.5t-290 -152.5q-127 0 -202.5 83t-75.5 224zM1120 285q0 -160 113 -160q88 0 143.5 127t55.5 256q0 154 -111 154h-2q-86 0 -142.5 -124t-56.5 -253zM1702 291
q0 203 115.5 357.5t296.5 154.5h2q127 0 198.5 -83t71.5 -210q0 -221 -116 -373.5t-290 -152.5q-127 0 -202.5 83t-75.5 224zM1888 285q0 -160 113 -160q88 0 143.5 127t55.5 256q0 154 -111 154h-2q-86 0 -142.5 -124t-56.5 -253z" />
    <glyph glyph-name="guilsinglleft" unicode="&#x2039;" horiz-adv-x="528" 
d="M55 516l289 385h191l-302 -389l201 -381h-174z" />
    <glyph glyph-name="guilsinglright" unicode="&#x203a;" horiz-adv-x="526" 
d="M12 131l301 391l-200 379h174l205 -385l-289 -385h-191z" />
    <glyph glyph-name="uni2215" unicode="&#x2044;" horiz-adv-x="841" 
d="M-125 -23l1002 1377h153l-1001 -1377h-154z" />
    <glyph glyph-name="uni2215" unicode="&#x2215;" horiz-adv-x="841" 
d="M-125 -23l1002 1377h153l-1001 -1377h-154z" />
    <glyph glyph-name="uni205F" unicode="&#x205f;" horiz-adv-x="462" 
 />
    <glyph glyph-name="Euro" unicode="&#x20ac;" horiz-adv-x="1062" 
d="M16 496l27 127h125q4 39 20 106h-127l29 127h135q78 215 261.5 356.5t408.5 141.5q164 0 283 -62l-74 -182q-98 45 -221 45q-135 0 -246 -87t-162 -212h506l-29 -127h-522q-14 -41 -20 -106h522l-27 -127h-497q8 -141 84.5 -230.5t216.5 -89.5q131 0 237 51l29 -180
q-121 -70 -309 -70q-233 0 -367.5 143.5t-138.5 375.5h-144z" />
    <glyph glyph-name="trademark" unicode="&#x2122;" horiz-adv-x="1402" 
d="M213 1264v116h477v-116h-168v-443h-143v443h-166zM727 821l37 559h221l64 -198q20 -86 34 -162h2q35 141 39 160l66 200h207l35 -559h-140l-14 283v90q0 63 -2 100h-8q-8 -35 -24.5 -103.5t-22.5 -90.5l-78 -269h-142l-71 273l-37 190h-8q-6 -186 -6 -190l-15 -283h-137z
" />
    <glyph glyph-name="partialdiff" unicode="&#x2202;" horiz-adv-x="1116" 
d="M63 377q0 227 147.5 385t367.5 158q98 0 170.5 -47.5t101.5 -104.5h2q12 63 12 152q-2 178 -84 276t-213 98q-166 0 -278 -75l-49 163q164 111 370 111q219 0 352.5 -157.5t133.5 -438.5q0 -162 -41 -321.5t-119 -295t-206 -219.5t-286 -84q-182 0 -281.5 114t-99.5 286z
M305 379q0 -98 46 -155.5t126 -57.5h2q115 0 200 115.5t120 287.5q-18 61 -76.5 112.5t-134.5 51.5q-121 0 -202 -105.5t-81 -248.5z" />
    <glyph glyph-name="uni2206" unicode="&#x2206;" horiz-adv-x="1179" 
d="M2 0l25 131l624 1206h295l176 -1206l-24 -131h-1096zM297 203h582l-84 592q-27 252 -37 342h-6q-98 -227 -142 -314z" />
    <glyph glyph-name="product" unicode="&#x220f;" horiz-adv-x="1302" 
d="M72 -184l260 1312h-156l39 203h1182l-41 -203h-154l-258 -1312h-227l260 1312h-420l-258 -1312h-227z" />
    <glyph glyph-name="summation" unicode="&#x2211;" horiz-adv-x="1126" 
d="M-57 -184l24 145l557 612l-321 592l28 166h916l-35 -207h-629v-6l297 -543l-491 -544v-8h688l-37 -207h-997z" />
    <glyph glyph-name="radical" unicode="&#x221a;" horiz-adv-x="1136" 
d="M90 735l336 135l111 -665q12 -61 16 -150h4q25 76 55 156l584 1497h168l-754 -1896h-168l-163 870l-158 -64z" />
    <glyph glyph-name="infinity" unicode="&#x221e;" horiz-adv-x="1517" 
d="M63 541q0 133 93.5 228t236.5 95q53 0 103.5 -17.5t101.5 -55t80 -63.5t82 -77q125 121 182 156q94 57 199 57q139 0 226 -91t87 -232q0 -133 -93 -228.5t-237 -95.5h-2q-70 0 -142.5 38t-112.5 71.5t-109 103.5q-125 -121 -183 -156q-94 -57 -198 -57
q-139 0 -226.5 91.5t-87.5 232.5zM231 541q0 -72 45.5 -119t112.5 -47h2q47 0 99.5 29.5t82 56t80.5 80.5q-12 10 -42.5 40.5t-49 47t-48.5 37t-58.5 31t-59.5 10.5q-68 0 -116 -49t-48 -117zM864 543q10 -10 43 -42t50.5 -47.5t47 -38t58.5 -31.5t59 -9h2q68 0 115 49
t47 117q0 72 -45 119t-113 47q-49 0 -102 -30t-80 -54.5t-82 -79.5z" />
    <glyph glyph-name="integral" unicode="&#x222b;" horiz-adv-x="649" 
d="M-137 -301l45 156q33 -12 74 -13q51 0 89 33t60.5 97.5t31.5 103.5t19 104q27 172 63 486.5t58 463.5q16 106 43 188.5t71 160t116.5 120.5t168.5 43q61 0 107 -18l-45 -151q-27 10 -66 10q-37 0 -65.5 -14.5t-50 -50.5t-34.5 -61.5t-25.5 -82.5t-16.5 -76.5t-14 -81.5
q-23 -147 -58 -454.5t-61 -475.5q-16 -100 -40 -179t-67 -161t-115.5 -127t-168.5 -45q-66 0 -119 25z" />
    <glyph glyph-name="approxequal" unicode="&#x2248;" 
d="M43 715q55 74 141 125t185 51q33 0 62.5 -4t58 -14.5t46 -16.5t47 -20.5t40.5 -18.5q4 -2 56 -26.5t89 -33.5t82 -9q117 0 225 124l99 -104q-53 -78 -139.5 -129t-182.5 -51q-41 0 -83 9t-60.5 15t-65.5 28t-49 22q-8 4 -45 21t-56.5 24.5t-55.5 15.5t-70 8
q-125 0 -234 -125zM49 295q55 74 142.5 124t181.5 50q41 0 82 -9t60.5 -15.5t64.5 -27t49 -22.5q14 -6 47 -20.5t54.5 -23.5t56 -17t67.5 -8q129 0 231 125l95 -101q-53 -80 -140.5 -132t-185.5 -52q-31 0 -60.5 4t-59 14.5t-46 16.5t-49.5 21.5t-39 17.5q-6 4 -45 21.5
t-57.5 24.5t-55 15t-73.5 8q-119 0 -232 -125z" />
    <glyph glyph-name="notequal" unicode="&#x2260;" 
d="M82 258v160h360l168 262h-528v160h631l139 227h170l-145 -227h262v-160h-365l-166 -262h531v-160h-633l-141 -227h-170l145 227h-258z" />
    <glyph glyph-name="lessequal" unicode="&#x2264;" 
d="M127 600v158l967 375v-175l-746 -278v-4l746 -277v-176zM129 0v152h965v-152h-965z" />
    <glyph glyph-name="greaterequal" unicode="&#x2265;" 
d="M127 0v152h965v-152h-965zM127 223v176l745 277v4l-745 278v175l967 -375v-158z" />
    <glyph glyph-name="lozenge" unicode="&#x25ca;" horiz-adv-x="1146" 
d="M125 666l516 735h190l248 -735l-518 -738h-188zM332 670l155 -502q10 -29 15 -55h4q23 37 37 55l327 491l-155 502q-2 8 -7.5 27.5t-7.5 28.5h-4q-12 -27 -34 -56z" />
    <glyph glyph-name="uniFB01" unicode="&#xfb01;" horiz-adv-x="1095" 
d="M72 0l153 813h-131l35 184h131l8 43q39 207 176.5 321t346.5 114q164 0 253 -56l-67 -184q-98 45 -209 45q-223 0 -262 -240l-8 -43h559l-191 -997h-237l153 813h-319l-154 -813h-237z" />
    <glyph glyph-name="uniFB02" unicode="&#xfb02;" horiz-adv-x="1095" 
d="M72 0l153 813h-131l35 184h131l8 43q39 217 197 336q131 100 344 101q205 0 321 -76l-264 -1401h-239l239 1264q-41 23 -121 22q-98 0 -158.5 -67.5t-80.5 -176.5l-8 -45h188l-35 -184h-188l-154 -813h-237z" />
    <glyph glyph-name="uniFB03" unicode="&#xfb03;" horiz-adv-x="1691" 
d="M70 0l153 813h-131l35 184h131l8 41q43 195 146 301q111 111 282 111q94 0 166 -43l-80 -176q-43 25 -90 24q-68 0 -108 -41q-55 -55 -80 -184l-8 -33h362l8 43q41 207 177.5 321t344.5 114q164 0 254 -56l-67 -184q-98 45 -209 45q-223 0 -262 -242l-8 -41h559
l-191 -997h-237l153 813h-319l-154 -813h-237l153 813h-360l-154 -813h-237z" />
    <glyph glyph-name="uniFB04" unicode="&#xfb04;" horiz-adv-x="1691" 
d="M70 0l153 813h-129l35 184h129l8 37q39 199 148 305q106 111 280 111q90 0 168 -39l-76 -178q-45 23 -94 22q-68 0 -108 -45q-57 -57 -82 -178l-6 -35h360l8 43q39 217 197 336q131 100 344 101q205 0 321 -76l-264 -1401h-239l239 1264q-41 23 -121 22
q-98 0 -158.5 -67.5t-80.5 -176.5l-8 -45h188l-35 -184h-188l-154 -813h-237l153 813h-358l-154 -813h-239z" />
    </font>
</defs>
</svg>
